<svg width="16" height="20" viewBox="0 0 16 20" fill="none" xmlns="http://www.w3.org/2000/svg">
<path d="M15.1648 9.1703C15.1315 9.0217 15.0626 8.88342 14.9639 8.76745C14.8652 8.65147 14.7398 8.56128 14.5984 8.50468L10.5999 6.90546L11.4273 1.38905C11.4577 1.19096 11.4238 0.988356 11.3305 0.810947C11.2373 0.633539 11.0897 0.490667 10.9094 0.403287C10.729 0.315908 10.5254 0.288621 10.3284 0.325427C10.1314 0.362234 9.95142 0.461198 9.81479 0.607803L1.06479 9.9828C0.960778 10.0942 0.88549 10.2293 0.845445 10.3763C0.8054 10.5233 0.801804 10.6779 0.83497 10.8267C0.868135 10.9754 0.937061 11.1138 1.03578 11.2299C1.1345 11.346 1.26003 11.4363 1.40151 11.493L5.39994 13.0922L4.5726 18.6109C4.54223 18.809 4.57613 19.0116 4.66934 19.189C4.76255 19.3664 4.91016 19.5093 5.09051 19.5967C5.27086 19.6841 5.47446 19.7114 5.67146 19.6746C5.86845 19.6377 6.04847 19.5388 6.1851 19.3922L14.9351 10.0172C15.0396 9.90546 15.1151 9.76989 15.1551 9.62227C15.1952 9.47466 15.1985 9.31949 15.1648 9.1703ZM6.87494 15.9023L7.36479 12.6391C7.39609 12.4302 7.35595 12.2169 7.25088 12.0337C7.14581 11.8505 6.98196 11.7081 6.78588 11.6297L3.37026 10.2633L9.12494 4.09765L8.6351 7.36093C8.6038 7.56979 8.64393 7.7831 8.749 7.9663C8.85408 8.1495 9.01792 8.29185 9.21401 8.3703L12.6296 9.73671L6.87494 15.9023Z" fill="#4F46E5"/>
</svg>
