<svg width="20" height="18" viewBox="0 0 20 18" fill="none" xmlns="http://www.w3.org/2000/svg">
<path d="M10 4.93749C9.19652 4.93749 8.41108 5.17575 7.743 5.62215C7.07493 6.06854 6.55423 6.70302 6.24675 7.44534C5.93926 8.18767 5.85881 9.0045 6.01557 9.79255C6.17232 10.5806 6.55923 11.3045 7.12738 11.8726C7.69554 12.4408 8.4194 12.8277 9.20745 12.9844C9.9955 13.1412 10.8123 13.0607 11.5547 12.7533C12.297 12.4458 12.9315 11.9251 13.3779 11.257C13.8242 10.5889 14.0625 9.80348 14.0625 8.99999C14.0613 7.92293 13.6329 6.89034 12.8713 6.12874C12.1097 5.36714 11.0771 4.93873 10 4.93749ZM10 11.1875C9.56736 11.1875 9.14443 11.0592 8.7847 10.8188C8.42496 10.5785 8.14459 10.2368 7.97902 9.83711C7.81345 9.4374 7.77013 8.99757 7.85454 8.57323C7.93894 8.1489 8.14728 7.75912 8.45321 7.4532C8.75914 7.14727 9.14891 6.93893 9.57325 6.85452C9.99758 6.77012 10.4374 6.81344 10.8371 6.97901C11.2368 7.14457 11.5785 7.42495 11.8188 7.78468C12.0592 8.14441 12.1875 8.56735 12.1875 8.99999C12.1875 9.58015 11.957 10.1366 11.5468 10.5468C11.1366 10.957 10.5802 11.1875 10 11.1875ZM18.8953 7.31484C18.8689 7.18279 18.8143 7.05798 18.7353 6.94892C18.6563 6.83985 18.5547 6.74909 18.4375 6.6828L16.2664 5.44452L16.2578 2.99843C16.2573 2.86271 16.2274 2.72872 16.1701 2.6057C16.1128 2.48268 16.0294 2.37358 15.9258 2.28593C15.0509 1.54568 14.0435 0.978094 12.957 0.613274C12.8331 0.57147 12.7018 0.55606 12.5716 0.568035C12.4413 0.58001 12.315 0.619104 12.2008 0.682805L10 1.91171L7.79922 0.682024C7.68485 0.617973 7.55831 0.578621 7.42777 0.56651C7.29724 0.554398 7.16562 0.569797 7.04141 0.611712C5.95466 0.978048 4.94726 1.54722 4.07266 2.28906C3.96939 2.37661 3.8863 2.48549 3.82912 2.60822C3.77194 2.73094 3.74201 2.8646 3.74141 2.99999L3.73047 5.44843L1.56251 6.68359C1.44525 6.75012 1.34372 6.84117 1.26485 6.95051C1.18598 7.05985 1.13162 7.18492 1.10547 7.31718C0.884764 8.42899 0.884764 9.57334 1.10547 10.6851C1.13182 10.8171 1.18628 10.9419 1.26514 11.0509C1.344 11.16 1.44542 11.2508 1.56251 11.3172L3.73594 12.5555L3.74454 15.0016C3.74501 15.1373 3.77494 15.2713 3.83227 15.3943C3.8896 15.5173 3.97295 15.6264 4.07657 15.7141C4.95149 16.4543 5.95887 17.0219 7.04532 17.3867C7.16925 17.4285 7.30056 17.4439 7.4308 17.4319C7.56104 17.42 7.68734 17.3809 7.80157 17.3172L10 16.0883L12.1984 17.318C12.3128 17.382 12.4394 17.4214 12.5699 17.4335C12.7004 17.4456 12.832 17.4302 12.9563 17.3883C14.043 17.0219 15.0504 16.4528 15.925 15.7109C16.0283 15.6234 16.1114 15.5145 16.1686 15.3918C16.2257 15.269 16.2557 15.1354 16.2563 15L16.2672 12.5516L18.4398 11.3164C18.5571 11.2499 18.6586 11.1588 18.7375 11.0495C18.8164 10.9401 18.8707 10.8151 18.8969 10.6828C19.1171 9.57089 19.1165 8.42654 18.8953 7.31484ZM17.1273 9.90702L15.0274 11.1008C14.8781 11.1854 14.7552 11.3094 14.6719 11.4594C14.6297 11.5375 14.5852 11.6101 14.5391 11.6844C14.4465 11.8322 14.397 12.0029 14.3961 12.1773L14.3852 14.5469C13.8797 14.9272 13.3262 15.239 12.7391 15.4742L10.618 14.2875C10.4781 14.2092 10.3205 14.168 10.1602 14.168H10.1375C10.0484 14.168 9.95782 14.168 9.86876 14.168C9.70122 14.164 9.53566 14.2047 9.38907 14.2859L7.26563 15.4703C6.67747 15.2363 6.1227 14.9258 5.61563 14.5469L5.60704 12.1844C5.60631 12.0097 5.5568 11.8387 5.46407 11.6906C5.41876 11.6172 5.37344 11.5414 5.33126 11.4656C5.24792 11.3166 5.12522 11.1934 4.97657 11.1094L2.87501 9.90859C2.79336 9.30613 2.79336 8.69542 2.87501 8.09296L4.97501 6.89921C5.12396 6.81465 5.2469 6.6909 5.33047 6.5414C5.37266 6.46327 5.41719 6.38984 5.46329 6.31562C5.55587 6.16779 5.60539 5.99707 5.60626 5.82265L5.61485 3.45312C6.12044 3.07388 6.67393 2.76312 7.26094 2.5289L9.38204 3.71562C9.52855 3.79781 9.69457 3.83885 9.86251 3.83437C9.95157 3.83437 10.0422 3.83437 10.1313 3.83437C10.2988 3.83833 10.4644 3.79761 10.6109 3.7164L12.7344 2.52968C13.3225 2.76371 13.8773 3.07419 14.3844 3.45312L14.393 5.81562C14.3937 5.99031 14.4432 6.16132 14.5359 6.30937C14.5813 6.3828 14.6266 6.45859 14.6688 6.53437C14.7521 6.68339 14.8748 6.80663 15.0234 6.89062L17.125 8.08827C17.2077 8.69165 17.2085 9.30344 17.1273 9.90702Z" fill="#475569"/>
</svg>
