<svg width="14" height="10" viewBox="0 0 14 10" fill="none" xmlns="http://www.w3.org/2000/svg">
<path d="M13.3437 5.00001V8.50002C13.3437 8.67406 13.2746 8.84098 13.1515 8.96405C13.0284 9.08712 12.8615 9.15627 12.6875 9.15627H9.18748C9.01343 9.15627 8.84651 9.08712 8.72344 8.96405C8.60037 8.84098 8.53123 8.67406 8.53123 8.50002C8.53123 8.32597 8.60037 8.15905 8.72344 8.03598C8.84651 7.9129 9.01343 7.84377 9.18748 7.84377H11.1015L7.43748 4.1797L5.71427 5.90345C5.65331 5.96463 5.58086 6.01318 5.50109 6.0463C5.42132 6.07942 5.3358 6.09647 5.24943 6.09647C5.16306 6.09647 5.07754 6.07942 4.99777 6.0463C4.918 6.01318 4.84555 5.96463 4.78459 5.90345L0.847086 1.96595C0.723801 1.84267 0.654541 1.67546 0.654541 1.50111C0.654541 1.41478 0.671545 1.32929 0.704582 1.24954C0.737619 1.16978 0.786041 1.09731 0.847086 1.03626C0.90813 0.97522 0.9806 0.926797 1.06036 0.89376C1.14012 0.860723 1.2256 0.843719 1.31193 0.843719C1.48628 0.843719 1.65349 0.91298 1.77677 1.03626L5.24998 4.50783L6.97318 2.78408C7.03415 2.7229 7.10659 2.67435 7.18636 2.64123C7.26613 2.60811 7.35165 2.59106 7.43802 2.59106C7.52439 2.59106 7.60992 2.60811 7.68969 2.64123C7.76945 2.67435 7.8419 2.7229 7.90287 2.78408L12.0312 6.91408V5.00001C12.0312 4.82597 12.1004 4.65905 12.2234 4.53598C12.3465 4.4129 12.5134 4.34376 12.6875 4.34376C12.8615 4.34376 13.0284 4.4129 13.1515 4.53598C13.2746 4.65905 13.3437 4.82597 13.3437 5.00001Z" fill="#F43F5E"/>
</svg>
