<svg width="20" height="16" viewBox="0 0 20 16" fill="none" xmlns="http://www.w3.org/2000/svg">
<path d="M15.3507 9.83672C15.5268 10.0128 15.6258 10.2517 15.6258 10.5008C15.6258 10.7499 15.5268 10.9887 15.3507 11.1648C15.1746 11.341 14.9357 11.4399 14.6867 11.4399C14.4376 11.4399 14.1987 11.341 14.0226 11.1648L13.1249 10.2656V14.25C13.1249 14.4986 13.0262 14.7371 12.8503 14.9129C12.6745 15.0887 12.4361 15.1875 12.1874 15.1875C11.9388 15.1875 11.7003 15.0887 11.5245 14.9129C11.3487 14.7371 11.2499 14.4986 11.2499 14.25V10.2656L10.3507 11.1656C10.1746 11.3417 9.93572 11.4407 9.68665 11.4407C9.43758 11.4407 9.19871 11.3417 9.02259 11.1656C8.84647 10.9895 8.74753 10.7506 8.74753 10.5016C8.74753 10.2525 8.84647 10.0136 9.02259 9.8375L11.5226 7.3375C11.6097 7.2501 11.7132 7.18075 11.8271 7.13344C11.9411 7.08612 12.0633 7.06176 12.1867 7.06176C12.31 7.06176 12.4322 7.08612 12.5462 7.13344C12.6601 7.18075 12.7636 7.2501 12.8507 7.3375L15.3507 9.83672ZM12.4999 0.8125C11.2024 0.813123 9.92917 1.16468 8.81514 1.82994C7.70111 2.49519 6.78775 3.44937 6.17181 4.59141C5.45448 4.51627 4.72936 4.588 4.04065 4.8022C3.35194 5.01641 2.71406 5.36861 2.16588 5.83734C1.61771 6.30608 1.17072 6.88152 0.852161 7.52862C0.533602 8.17571 0.350145 8.88089 0.31297 9.60118C0.275795 10.3215 0.38568 11.0418 0.635929 11.7183C0.886179 12.3947 1.27155 13.0131 1.76856 13.5358C2.26557 14.0585 2.8638 14.4745 3.5268 14.7584C4.1898 15.0424 4.90368 15.1884 5.62493 15.1875H7.81243C8.06107 15.1875 8.29953 15.0887 8.47535 14.9129C8.65116 14.7371 8.74993 14.4986 8.74993 14.25C8.74993 14.0014 8.65116 13.7629 8.47535 13.5871C8.29953 13.4113 8.06107 13.3125 7.81243 13.3125H5.62493C4.72916 13.307 3.87092 12.9521 3.23294 12.3232C2.59497 11.6944 2.22766 10.8414 2.20923 9.94579C2.19079 9.05019 2.5227 8.18278 3.13426 7.52824C3.74583 6.8737 4.58874 6.48375 5.48353 6.44141C5.36964 6.95311 5.31227 7.47577 5.31243 8C5.31243 8.24864 5.41121 8.4871 5.58702 8.66291C5.76284 8.83873 6.00129 8.9375 6.24993 8.9375C6.49857 8.9375 6.73703 8.83873 6.91285 8.66291C7.08866 8.4871 7.18743 8.24864 7.18743 8C7.18808 7.23149 7.35545 6.47228 7.678 5.77474C8.00056 5.0772 8.47061 4.45794 9.05572 3.9597C9.64083 3.46146 10.3271 3.0961 11.0671 2.88883C11.8071 2.68156 12.5833 2.63731 13.3421 2.75914C14.1009 2.88097 14.8242 3.16597 15.4622 3.59449C16.1001 4.02301 16.6375 4.58483 17.0372 5.2412C17.437 5.89756 17.6895 6.63284 17.7775 7.39629C17.8655 8.15975 17.7868 8.9332 17.5468 9.66328C17.5083 9.78024 17.4932 9.90364 17.5023 10.0264C17.5115 10.1492 17.5448 10.269 17.6002 10.379C17.6557 10.4889 17.7323 10.5869 17.8256 10.6672C17.9189 10.7476 18.0271 10.8087 18.1441 10.8473C18.261 10.8858 18.3844 10.9009 18.5072 10.8917C18.63 10.8826 18.7498 10.8493 18.8598 10.7938C18.9697 10.7384 19.0676 10.6618 19.148 10.5685C19.2283 10.4752 19.2895 10.367 19.3281 10.25C19.6829 9.17017 19.7768 8.02161 19.6019 6.89849C19.4271 5.77538 18.9886 4.70969 18.3223 3.7888C17.6561 2.86791 16.781 2.11805 15.7689 1.60069C14.7569 1.08334 13.6366 0.813227 12.4999 0.8125Z" fill="#475569"/>
</svg>
