<svg width="20" height="16" viewBox="0 0 20 16" fill="none" xmlns="http://www.w3.org/2000/svg">
<path d="M1.75 12.9219H18.25C18.5003 12.9219 18.7417 13.0087 18.9336 13.166L19.0127 13.2373C19.2149 13.4395 19.3281 13.7141 19.3281 14C19.3281 14.2503 19.2413 14.4917 19.084 14.6836L19.0127 14.7627C18.8105 14.9649 18.5359 15.0781 18.25 15.0781H1.75C1.49973 15.0781 1.25828 14.9913 1.06641 14.834L0.987305 14.7627C0.785117 14.5605 0.671875 14.2859 0.671875 14C0.671875 13.7497 0.758728 13.5083 0.916016 13.3164L0.987305 13.2373C1.18949 13.0351 1.46406 12.9219 1.75 12.9219ZM1.75 6.92188H18.25C18.5003 6.92188 18.7417 7.00873 18.9336 7.16602L19.0127 7.2373C19.2149 7.43949 19.3281 7.71406 19.3281 8C19.3281 8.25028 19.2413 8.49172 19.084 8.68359L19.0127 8.7627C18.8105 8.96488 18.5359 9.07812 18.25 9.07812H1.75C1.49973 9.07812 1.25828 8.99127 1.06641 8.83398L0.987305 8.7627C0.785117 8.56051 0.671875 8.28594 0.671875 8C0.671875 7.74972 0.758728 7.50828 0.916016 7.31641L0.987305 7.2373C1.18949 7.03512 1.46406 6.92188 1.75 6.92188ZM1.75 0.921875H18.25C18.5003 0.921875 18.7417 1.00873 18.9336 1.16602L19.0127 1.2373C19.2149 1.43949 19.3281 1.71406 19.3281 2C19.3281 2.25027 19.2413 2.49172 19.084 2.68359L19.0127 2.7627C18.8105 2.96488 18.5359 3.07812 18.25 3.07812H1.75C1.49972 3.07812 1.25828 2.99127 1.06641 2.83398L0.987305 2.7627C0.785117 2.56051 0.671875 2.28594 0.671875 2C0.671875 1.74972 0.758728 1.50828 0.916016 1.31641L0.987305 1.2373C1.18949 1.03512 1.46406 0.921875 1.75 0.921875Z" fill="#475569" stroke="#475569" stroke-width="0.09375"/>
</svg>
