<svg width="736" height="196" viewBox="0 0 736 196" fill="none" xmlns="http://www.w3.org/2000/svg">
<path d="M0 10H736" stroke="#CBD5E1"/>
<path d="M0 42H736" stroke="#CBD5E1"/>
<path d="M0 74H736" stroke="#CBD5E1"/>
<path d="M0 106H736" stroke="#CBD5E1"/>
<path d="M0 138H736" stroke="#CBD5E1"/>
<path d="M0 170H736" stroke="#CBD5E1"/>
<path opacity="0.08" d="M34.7919 143.957H0V167H182.153H219.543H736V64.6124H698.982V132.686H661.962V85.9542H625.683V58.1265H589.392V99.1242H551.634V140.701H514.984V105.135H477.229V31.2409H440.566V65.6928H403.557V135.804H366.9V161.74H330.246V132.686H292.854V115.266H256.202V134.69H219.543V167H182.153V140.701H145.501V99.1242H108.477V132.686H71.8229V123.972H34.7919V143.957Z" fill="url(#paint0_linear_6211_46807)"/>
<path d="M0 143.957H34.7919V123.972H71.8229V132.686H108.477V99.1242H145.501V140.701H182.153V167H219.543V134.69H256.202V115.266H292.854V132.686H330.246V161.74H366.9V135.804H403.557V65.6928H440.566V31.2409H477.229V105.135H514.985V140.701H551.634V99.1242H589.392V58.1265H625.683V85.9542H661.962V132.686H698.982V64.6124H736" stroke="#C7D2FE" stroke-width="2"/>
<path opacity="0.24" d="M0 63.9508H34.7919V16.7439H71.8229V89.857H108.477V167H145.501V71.4348H182.153V10.9869H219.543V85.2515H256.202V153.183H292.854V89.857H330.246V23.0765H366.9V105.976H403.557V10.9869H440.566V113.46H477.229V153.183H514.984V71.4348H551.634V167H589.392V121.52H625.683V10.9869H661.962V89.857H698.982V153.183H736V167H589.392H551.634H145.501H108.477H0V63.9508Z" fill="url(#paint1_linear_6211_46807)"/>
<path d="M0 63.9508H34.7919V16.7439H71.8229V89.857H108.477V167H145.501V71.4348H182.153V10.9869H219.543V85.2515H256.202V153.183H292.854V89.857H330.246V23.0765H366.9V105.976H403.557V10.9869H440.566V113.46H477.229V153.183H514.985V71.4348H551.634V167H589.392V121.52H625.683V10.9869H661.962V89.857H698.982V153.183H736" stroke="#4F46E5" stroke-width="2"/>
<path d="M21.5895 193V192.184L24.0615 189.508C24.5495 188.988 24.9375 188.56 25.2255 188.224C25.5215 187.888 25.7375 187.588 25.8735 187.324C26.0095 187.06 26.0775 186.78 26.0775 186.484C26.0775 185.996 25.9335 185.62 25.6455 185.356C25.3575 185.092 24.9775 184.96 24.5055 184.96C24.0255 184.96 23.6175 185.1 23.2815 185.38C22.9455 185.652 22.7135 186.04 22.5855 186.544L21.5175 186.268C21.6215 185.788 21.8135 185.372 22.0935 185.02C22.3735 184.668 22.7215 184.396 23.1375 184.204C23.5535 184.012 24.0095 183.916 24.5055 183.916C25.0495 183.916 25.5255 184.024 25.9335 184.24C26.3495 184.448 26.6735 184.74 26.9055 185.116C27.1455 185.492 27.2655 185.928 27.2655 186.424C27.2655 186.752 27.1975 187.072 27.0615 187.384C26.9255 187.696 26.7255 188.028 26.4615 188.38C26.1975 188.724 25.8535 189.124 25.4295 189.58L23.2215 191.98H27.4575V193H21.5895Z" fill="#475569"/>
<path d="M74.6821 193V190.936H70.2901V189.964L74.6581 184.06H75.7861V189.964H76.9501V190.936H75.7861V193H74.6821ZM71.1781 190.384L71.0101 189.964H74.6821V185.044L75.0301 185.14L71.1781 190.384Z" fill="#475569"/>
<path d="M122.687 193.144C122.111 193.144 121.599 193.016 121.151 192.76C120.711 192.504 120.363 192.156 120.107 191.716C119.851 191.268 119.723 190.76 119.723 190.192C119.723 189.88 119.759 189.572 119.831 189.268C119.903 188.964 120.019 188.656 120.179 188.344C120.339 188.032 120.543 187.708 120.791 187.372L123.311 184.06H124.727L121.643 188.068L121.427 188.044C121.547 187.884 121.679 187.76 121.823 187.672C121.975 187.584 122.135 187.52 122.303 187.48C122.479 187.44 122.663 187.42 122.855 187.42C123.383 187.42 123.855 187.544 124.271 187.792C124.695 188.032 125.027 188.364 125.267 188.788C125.515 189.212 125.639 189.7 125.639 190.252C125.639 190.804 125.511 191.3 125.255 191.74C124.999 192.172 124.647 192.516 124.199 192.772C123.759 193.02 123.255 193.144 122.687 193.144ZM122.687 192.088C123.023 192.088 123.323 192.012 123.587 191.86C123.851 191.7 124.059 191.48 124.211 191.2C124.371 190.92 124.451 190.608 124.451 190.264C124.451 189.904 124.375 189.592 124.223 189.328C124.071 189.056 123.863 188.84 123.599 188.68C123.335 188.52 123.031 188.44 122.687 188.44C122.351 188.44 122.047 188.52 121.775 188.68C121.503 188.84 121.291 189.056 121.139 189.328C120.987 189.592 120.911 189.904 120.911 190.264C120.911 190.608 120.987 190.92 121.139 191.2C121.299 191.48 121.511 191.7 121.775 191.86C122.047 192.012 122.351 192.088 122.687 192.088Z" fill="#475569"/>
<path d="M171.74 193.144C171.14 193.144 170.608 193.024 170.144 192.784C169.688 192.544 169.328 192.22 169.064 191.812C168.808 191.396 168.68 190.932 168.68 190.42C168.68 189.844 168.84 189.34 169.16 188.908C169.48 188.476 169.92 188.168 170.48 187.984L170.456 188.284C170.032 188.116 169.7 187.848 169.46 187.48C169.228 187.104 169.112 186.7 169.112 186.268C169.112 185.812 169.224 185.408 169.448 185.056C169.68 184.704 169.992 184.428 170.384 184.228C170.784 184.02 171.236 183.916 171.74 183.916C172.244 183.916 172.692 184.016 173.084 184.216C173.476 184.416 173.784 184.696 174.008 185.056C174.24 185.408 174.356 185.812 174.356 186.268C174.356 186.724 174.232 187.132 173.984 187.492C173.744 187.852 173.424 188.12 173.024 188.296L172.988 187.984C173.556 188.168 174 188.48 174.32 188.92C174.64 189.352 174.8 189.852 174.8 190.42C174.8 190.932 174.668 191.396 174.404 191.812C174.148 192.22 173.788 192.544 173.324 192.784C172.868 193.024 172.34 193.144 171.74 193.144ZM171.74 192.124C172.116 192.124 172.444 192.052 172.724 191.908C173.004 191.764 173.22 191.564 173.372 191.308C173.532 191.044 173.612 190.744 173.612 190.408C173.612 190.064 173.532 189.764 173.372 189.508C173.22 189.244 173.004 189.044 172.724 188.908C172.444 188.764 172.116 188.692 171.74 188.692C171.364 188.692 171.032 188.764 170.744 188.908C170.464 189.044 170.248 189.244 170.096 189.508C169.944 189.764 169.868 190.064 169.868 190.408C169.868 190.744 169.944 191.044 170.096 191.308C170.248 191.564 170.464 191.764 170.744 191.908C171.032 192.052 171.364 192.124 171.74 192.124ZM171.74 187.672C172.012 187.672 172.252 187.612 172.46 187.492C172.676 187.372 172.848 187.212 172.976 187.012C173.104 186.804 173.168 186.564 173.168 186.292C173.168 186.02 173.104 185.784 172.976 185.584C172.848 185.384 172.676 185.228 172.46 185.116C172.252 184.996 172.012 184.936 171.74 184.936C171.46 184.936 171.212 184.996 170.996 185.116C170.78 185.228 170.608 185.384 170.48 185.584C170.352 185.784 170.288 186.02 170.288 186.292C170.288 186.564 170.352 186.804 170.48 187.012C170.608 187.212 170.78 187.372 170.996 187.492C171.212 187.612 171.46 187.672 171.74 187.672Z" fill="#475569"/>
<path d="M216.333 193V185.08H214.641V184.06H217.521V193H216.333ZM223.075 193.144C222.363 193.144 221.739 192.952 221.203 192.568C220.675 192.176 220.263 191.636 219.967 190.948C219.671 190.252 219.523 189.444 219.523 188.524C219.523 187.604 219.671 186.8 219.967 186.112C220.263 185.416 220.675 184.876 221.203 184.492C221.731 184.108 222.351 183.916 223.063 183.916C223.775 183.916 224.395 184.108 224.923 184.492C225.451 184.876 225.863 185.416 226.159 186.112C226.463 186.8 226.615 187.604 226.615 188.524C226.615 189.444 226.467 190.252 226.171 190.948C225.875 191.644 225.459 192.184 224.923 192.568C224.395 192.952 223.779 193.144 223.075 193.144ZM223.075 192.052C223.555 192.052 223.971 191.908 224.323 191.62C224.675 191.324 224.947 190.912 225.139 190.384C225.339 189.856 225.439 189.236 225.439 188.524C225.439 187.812 225.339 187.192 225.139 186.664C224.947 186.136 224.671 185.728 224.311 185.44C223.959 185.152 223.543 185.008 223.063 185.008C222.583 185.008 222.167 185.152 221.815 185.44C221.463 185.728 221.187 186.136 220.987 186.664C220.795 187.192 220.699 187.812 220.699 188.524C220.699 189.228 220.795 189.844 220.987 190.372C221.187 190.9 221.463 191.312 221.815 191.608C222.175 191.904 222.595 192.052 223.075 192.052Z" fill="#475569"/>
<path d="M266.15 193V185.08H264.458V184.06H267.338V193H266.15ZM269.184 193V192.184L271.656 189.508C272.144 188.988 272.532 188.56 272.82 188.224C273.116 187.888 273.332 187.588 273.468 187.324C273.604 187.06 273.672 186.78 273.672 186.484C273.672 185.996 273.528 185.62 273.24 185.356C272.952 185.092 272.572 184.96 272.1 184.96C271.62 184.96 271.212 185.1 270.876 185.38C270.54 185.652 270.308 186.04 270.18 186.544L269.112 186.268C269.216 185.788 269.408 185.372 269.688 185.02C269.968 184.668 270.316 184.396 270.732 184.204C271.148 184.012 271.604 183.916 272.1 183.916C272.644 183.916 273.12 184.024 273.528 184.24C273.944 184.448 274.268 184.74 274.5 185.116C274.74 185.492 274.86 185.928 274.86 186.424C274.86 186.752 274.792 187.072 274.656 187.384C274.52 187.696 274.32 188.028 274.056 188.38C273.792 188.724 273.448 189.124 273.024 189.58L270.816 191.98H275.052V193H269.184Z" fill="#475569"/>
<path d="M314.982 193V185.08H313.29V184.06H316.17V193H314.982ZM322.276 193V190.936H317.884V189.964L322.252 184.06H323.38V189.964H324.544V190.936H323.38V193H322.276ZM318.772 190.384L318.604 189.964H322.276V185.044L322.624 185.14L318.772 190.384Z" fill="#475569"/>
<path d="M364.342 193V185.08H362.65V184.06H365.53V193H364.342ZM370.223 193.144C369.647 193.144 369.135 193.016 368.687 192.76C368.247 192.504 367.899 192.156 367.643 191.716C367.387 191.268 367.259 190.76 367.259 190.192C367.259 189.88 367.295 189.572 367.367 189.268C367.439 188.964 367.555 188.656 367.715 188.344C367.875 188.032 368.079 187.708 368.327 187.372L370.847 184.06H372.263L369.179 188.068L368.963 188.044C369.083 187.884 369.215 187.76 369.359 187.672C369.511 187.584 369.671 187.52 369.839 187.48C370.015 187.44 370.199 187.42 370.391 187.42C370.919 187.42 371.391 187.544 371.807 187.792C372.231 188.032 372.563 188.364 372.803 188.788C373.051 189.212 373.175 189.7 373.175 190.252C373.175 190.804 373.047 191.3 372.791 191.74C372.535 192.172 372.183 192.516 371.735 192.772C371.295 193.02 370.791 193.144 370.223 193.144ZM370.223 192.088C370.559 192.088 370.859 192.012 371.123 191.86C371.387 191.7 371.595 191.48 371.747 191.2C371.907 190.92 371.987 190.608 371.987 190.264C371.987 189.904 371.911 189.592 371.759 189.328C371.607 189.056 371.399 188.84 371.135 188.68C370.871 188.52 370.567 188.44 370.223 188.44C369.887 188.44 369.583 188.52 369.311 188.68C369.039 188.84 368.827 189.056 368.675 189.328C368.523 189.592 368.447 189.904 368.447 190.264C368.447 190.608 368.523 190.92 368.675 191.2C368.835 191.48 369.047 191.7 369.311 191.86C369.583 192.012 369.887 192.088 370.223 192.088Z" fill="#475569"/>
<path d="M413.168 193V185.08H411.476V184.06H414.356V193H413.168ZM419.334 193.144C418.734 193.144 418.202 193.024 417.738 192.784C417.282 192.544 416.922 192.22 416.658 191.812C416.402 191.396 416.274 190.932 416.274 190.42C416.274 189.844 416.434 189.34 416.754 188.908C417.074 188.476 417.514 188.168 418.074 187.984L418.05 188.284C417.626 188.116 417.294 187.848 417.054 187.48C416.822 187.104 416.706 186.7 416.706 186.268C416.706 185.812 416.818 185.408 417.042 185.056C417.274 184.704 417.586 184.428 417.978 184.228C418.378 184.02 418.83 183.916 419.334 183.916C419.838 183.916 420.286 184.016 420.678 184.216C421.07 184.416 421.378 184.696 421.602 185.056C421.834 185.408 421.95 185.812 421.95 186.268C421.95 186.724 421.826 187.132 421.578 187.492C421.338 187.852 421.018 188.12 420.618 188.296L420.582 187.984C421.15 188.168 421.594 188.48 421.914 188.92C422.234 189.352 422.394 189.852 422.394 190.42C422.394 190.932 422.262 191.396 421.998 191.812C421.742 192.22 421.382 192.544 420.918 192.784C420.462 193.024 419.934 193.144 419.334 193.144ZM419.334 192.124C419.71 192.124 420.038 192.052 420.318 191.908C420.598 191.764 420.814 191.564 420.966 191.308C421.126 191.044 421.206 190.744 421.206 190.408C421.206 190.064 421.126 189.764 420.966 189.508C420.814 189.244 420.598 189.044 420.318 188.908C420.038 188.764 419.71 188.692 419.334 188.692C418.958 188.692 418.626 188.764 418.338 188.908C418.058 189.044 417.842 189.244 417.69 189.508C417.538 189.764 417.462 190.064 417.462 190.408C417.462 190.744 417.538 191.044 417.69 191.308C417.842 191.564 418.058 191.764 418.338 191.908C418.626 192.052 418.958 192.124 419.334 192.124ZM419.334 187.672C419.606 187.672 419.846 187.612 420.054 187.492C420.27 187.372 420.442 187.212 420.57 187.012C420.698 186.804 420.762 186.564 420.762 186.292C420.762 186.02 420.698 185.784 420.57 185.584C420.442 185.384 420.27 185.228 420.054 185.116C419.846 184.996 419.606 184.936 419.334 184.936C419.054 184.936 418.806 184.996 418.59 185.116C418.374 185.228 418.202 185.384 418.074 185.584C417.946 185.784 417.882 186.02 417.882 186.292C417.882 186.564 417.946 186.804 418.074 187.012C418.202 187.212 418.374 187.372 418.59 187.492C418.806 187.612 419.054 187.672 419.334 187.672Z" fill="#475569"/>
<path d="M458.878 193V192.184L461.35 189.508C461.838 188.988 462.226 188.56 462.514 188.224C462.81 187.888 463.026 187.588 463.162 187.324C463.298 187.06 463.366 186.78 463.366 186.484C463.366 185.996 463.222 185.62 462.934 185.356C462.646 185.092 462.266 184.96 461.794 184.96C461.314 184.96 460.906 185.1 460.57 185.38C460.234 185.652 460.002 186.04 459.874 186.544L458.806 186.268C458.91 185.788 459.102 185.372 459.382 185.02C459.662 184.668 460.01 184.396 460.426 184.204C460.842 184.012 461.298 183.916 461.794 183.916C462.338 183.916 462.814 184.024 463.222 184.24C463.638 184.448 463.962 184.74 464.194 185.116C464.434 185.492 464.554 185.928 464.554 186.424C464.554 186.752 464.486 187.072 464.35 187.384C464.214 187.696 464.014 188.028 463.75 188.38C463.486 188.724 463.142 189.124 462.718 189.58L460.51 191.98H464.746V193H458.878ZM469.709 193.144C468.997 193.144 468.373 192.952 467.837 192.568C467.309 192.176 466.897 191.636 466.601 190.948C466.305 190.252 466.157 189.444 466.157 188.524C466.157 187.604 466.305 186.8 466.601 186.112C466.897 185.416 467.309 184.876 467.837 184.492C468.365 184.108 468.985 183.916 469.697 183.916C470.409 183.916 471.029 184.108 471.557 184.492C472.085 184.876 472.497 185.416 472.793 186.112C473.097 186.8 473.249 187.604 473.249 188.524C473.249 189.444 473.101 190.252 472.805 190.948C472.509 191.644 472.093 192.184 471.557 192.568C471.029 192.952 470.413 193.144 469.709 193.144ZM469.709 192.052C470.189 192.052 470.605 191.908 470.957 191.62C471.309 191.324 471.581 190.912 471.773 190.384C471.973 189.856 472.073 189.236 472.073 188.524C472.073 187.812 471.973 187.192 471.773 186.664C471.581 186.136 471.305 185.728 470.945 185.44C470.593 185.152 470.177 185.008 469.697 185.008C469.217 185.008 468.801 185.152 468.449 185.44C468.097 185.728 467.821 186.136 467.621 186.664C467.429 187.192 467.333 187.812 467.333 188.524C467.333 189.228 467.429 189.844 467.621 190.372C467.821 190.9 468.097 191.312 468.449 191.608C468.809 191.904 469.229 192.052 469.709 192.052Z" fill="#475569"/>
<path d="M508.695 193V192.184L511.167 189.508C511.655 188.988 512.043 188.56 512.331 188.224C512.627 187.888 512.843 187.588 512.979 187.324C513.115 187.06 513.183 186.78 513.183 186.484C513.183 185.996 513.039 185.62 512.751 185.356C512.463 185.092 512.083 184.96 511.611 184.96C511.131 184.96 510.723 185.1 510.387 185.38C510.051 185.652 509.819 186.04 509.691 186.544L508.623 186.268C508.727 185.788 508.919 185.372 509.199 185.02C509.479 184.668 509.827 184.396 510.243 184.204C510.659 184.012 511.115 183.916 511.611 183.916C512.155 183.916 512.631 184.024 513.039 184.24C513.455 184.448 513.779 184.74 514.011 185.116C514.251 185.492 514.371 185.928 514.371 186.424C514.371 186.752 514.303 187.072 514.167 187.384C514.031 187.696 513.831 188.028 513.567 188.38C513.303 188.724 512.959 189.124 512.535 189.58L510.327 191.98H514.563V193H508.695ZM515.818 193V192.184L518.29 189.508C518.778 188.988 519.166 188.56 519.454 188.224C519.75 187.888 519.966 187.588 520.102 187.324C520.238 187.06 520.306 186.78 520.306 186.484C520.306 185.996 520.162 185.62 519.874 185.356C519.586 185.092 519.206 184.96 518.734 184.96C518.254 184.96 517.846 185.1 517.51 185.38C517.174 185.652 516.942 186.04 516.814 186.544L515.746 186.268C515.85 185.788 516.042 185.372 516.322 185.02C516.602 184.668 516.95 184.396 517.366 184.204C517.782 184.012 518.238 183.916 518.734 183.916C519.278 183.916 519.754 184.024 520.162 184.24C520.578 184.448 520.902 184.74 521.134 185.116C521.374 185.492 521.494 185.928 521.494 186.424C521.494 186.752 521.426 187.072 521.29 187.384C521.154 187.696 520.954 188.028 520.69 188.38C520.426 188.724 520.082 189.124 519.658 189.58L517.45 191.98H521.686V193H515.818Z" fill="#475569"/>
<path d="M557.585 193V192.184L560.057 189.508C560.545 188.988 560.933 188.56 561.221 188.224C561.517 187.888 561.733 187.588 561.869 187.324C562.005 187.06 562.073 186.78 562.073 186.484C562.073 185.996 561.929 185.62 561.641 185.356C561.353 185.092 560.973 184.96 560.501 184.96C560.021 184.96 559.613 185.1 559.277 185.38C558.941 185.652 558.709 186.04 558.581 186.544L557.513 186.268C557.617 185.788 557.809 185.372 558.089 185.02C558.369 184.668 558.717 184.396 559.133 184.204C559.549 184.012 560.005 183.916 560.501 183.916C561.045 183.916 561.521 184.024 561.929 184.24C562.345 184.448 562.669 184.74 562.901 185.116C563.141 185.492 563.261 185.928 563.261 186.424C563.261 186.752 563.193 187.072 563.057 187.384C562.921 187.696 562.721 188.028 562.457 188.38C562.193 188.724 561.849 189.124 561.425 189.58L559.217 191.98H563.453V193H557.585ZM568.852 193V190.936H564.46V189.964L568.828 184.06H569.956V189.964H571.12V190.936H569.956V193H568.852ZM565.348 190.384L565.18 189.964H568.852V185.044L569.2 185.14L565.348 190.384Z" fill="#475569"/>
<path d="M606.828 193V192.184L609.3 189.508C609.788 188.988 610.176 188.56 610.464 188.224C610.76 187.888 610.976 187.588 611.112 187.324C611.248 187.06 611.316 186.78 611.316 186.484C611.316 185.996 611.172 185.62 610.884 185.356C610.596 185.092 610.216 184.96 609.744 184.96C609.264 184.96 608.856 185.1 608.52 185.38C608.184 185.652 607.952 186.04 607.824 186.544L606.756 186.268C606.86 185.788 607.052 185.372 607.332 185.02C607.612 184.668 607.96 184.396 608.376 184.204C608.792 184.012 609.248 183.916 609.744 183.916C610.288 183.916 610.764 184.024 611.172 184.24C611.588 184.448 611.912 184.74 612.144 185.116C612.384 185.492 612.504 185.928 612.504 186.424C612.504 186.752 612.436 187.072 612.3 187.384C612.164 187.696 611.964 188.028 611.7 188.38C611.436 188.724 611.092 189.124 610.668 189.58L608.46 191.98H612.696V193H606.828ZM616.915 193.144C616.339 193.144 615.827 193.016 615.379 192.76C614.939 192.504 614.591 192.156 614.335 191.716C614.079 191.268 613.951 190.76 613.951 190.192C613.951 189.88 613.987 189.572 614.059 189.268C614.131 188.964 614.247 188.656 614.407 188.344C614.567 188.032 614.771 187.708 615.019 187.372L617.539 184.06H618.955L615.871 188.068L615.655 188.044C615.775 187.884 615.907 187.76 616.051 187.672C616.203 187.584 616.363 187.52 616.531 187.48C616.707 187.44 616.891 187.42 617.083 187.42C617.611 187.42 618.083 187.544 618.499 187.792C618.923 188.032 619.255 188.364 619.495 188.788C619.743 189.212 619.867 189.7 619.867 190.252C619.867 190.804 619.739 191.3 619.483 191.74C619.227 192.172 618.875 192.516 618.427 192.772C617.987 193.02 617.483 193.144 616.915 193.144ZM616.915 192.088C617.251 192.088 617.551 192.012 617.815 191.86C618.079 191.7 618.287 191.48 618.439 191.2C618.599 190.92 618.679 190.608 618.679 190.264C618.679 189.904 618.603 189.592 618.451 189.328C618.299 189.056 618.091 188.84 617.827 188.68C617.563 188.52 617.259 188.44 616.915 188.44C616.579 188.44 616.275 188.52 616.003 188.68C615.731 188.84 615.519 189.056 615.367 189.328C615.215 189.592 615.139 189.904 615.139 190.264C615.139 190.608 615.215 190.92 615.367 191.2C615.527 191.48 615.739 191.7 616.003 191.86C616.275 192.012 616.579 192.088 616.915 192.088Z" fill="#475569"/>
<path d="M655.713 193V192.184L658.185 189.508C658.673 188.988 659.061 188.56 659.349 188.224C659.645 187.888 659.861 187.588 659.997 187.324C660.133 187.06 660.201 186.78 660.201 186.484C660.201 185.996 660.057 185.62 659.769 185.356C659.481 185.092 659.101 184.96 658.629 184.96C658.149 184.96 657.741 185.1 657.405 185.38C657.069 185.652 656.837 186.04 656.709 186.544L655.641 186.268C655.745 185.788 655.937 185.372 656.217 185.02C656.497 184.668 656.845 184.396 657.261 184.204C657.677 184.012 658.133 183.916 658.629 183.916C659.173 183.916 659.649 184.024 660.057 184.24C660.473 184.448 660.797 184.74 661.029 185.116C661.269 185.492 661.389 185.928 661.389 186.424C661.389 186.752 661.321 187.072 661.185 187.384C661.049 187.696 660.849 188.028 660.585 188.38C660.321 188.724 659.977 189.124 659.553 189.58L657.345 191.98H661.581V193H655.713ZM665.968 193.144C665.368 193.144 664.836 193.024 664.372 192.784C663.916 192.544 663.556 192.22 663.292 191.812C663.036 191.396 662.908 190.932 662.908 190.42C662.908 189.844 663.068 189.34 663.388 188.908C663.708 188.476 664.148 188.168 664.708 187.984L664.684 188.284C664.26 188.116 663.928 187.848 663.688 187.48C663.456 187.104 663.34 186.7 663.34 186.268C663.34 185.812 663.452 185.408 663.676 185.056C663.908 184.704 664.22 184.428 664.612 184.228C665.012 184.02 665.464 183.916 665.968 183.916C666.472 183.916 666.92 184.016 667.312 184.216C667.704 184.416 668.012 184.696 668.236 185.056C668.468 185.408 668.584 185.812 668.584 186.268C668.584 186.724 668.46 187.132 668.212 187.492C667.972 187.852 667.652 188.12 667.252 188.296L667.216 187.984C667.784 188.168 668.228 188.48 668.548 188.92C668.868 189.352 669.028 189.852 669.028 190.42C669.028 190.932 668.896 191.396 668.632 191.812C668.376 192.22 668.016 192.544 667.552 192.784C667.096 193.024 666.568 193.144 665.968 193.144ZM665.968 192.124C666.344 192.124 666.672 192.052 666.952 191.908C667.232 191.764 667.448 191.564 667.6 191.308C667.76 191.044 667.84 190.744 667.84 190.408C667.84 190.064 667.76 189.764 667.6 189.508C667.448 189.244 667.232 189.044 666.952 188.908C666.672 188.764 666.344 188.692 665.968 188.692C665.592 188.692 665.26 188.764 664.972 188.908C664.692 189.044 664.476 189.244 664.324 189.508C664.172 189.764 664.096 190.064 664.096 190.408C664.096 190.744 664.172 191.044 664.324 191.308C664.476 191.564 664.692 191.764 664.972 191.908C665.26 192.052 665.592 192.124 665.968 192.124ZM665.968 187.672C666.24 187.672 666.48 187.612 666.688 187.492C666.904 187.372 667.076 187.212 667.204 187.012C667.332 186.804 667.396 186.564 667.396 186.292C667.396 186.02 667.332 185.784 667.204 185.584C667.076 185.384 666.904 185.228 666.688 185.116C666.48 184.996 666.24 184.936 665.968 184.936C665.688 184.936 665.44 184.996 665.224 185.116C665.008 185.228 664.836 185.384 664.708 185.584C664.58 185.784 664.516 186.02 664.516 186.292C664.516 186.564 664.58 186.804 664.708 187.012C664.836 187.212 665.008 187.372 665.224 187.492C665.44 187.612 665.688 187.672 665.968 187.672Z" fill="#475569"/>
<path d="M707.021 193.144C706.549 193.144 706.109 193.06 705.701 192.892C705.293 192.724 704.941 192.488 704.645 192.184C704.349 191.872 704.129 191.504 703.985 191.08L704.981 190.672C705.149 191.12 705.413 191.468 705.773 191.716C706.133 191.964 706.549 192.088 707.021 192.088C707.389 192.088 707.717 192.016 708.005 191.872C708.293 191.728 708.517 191.52 708.677 191.248C708.845 190.976 708.929 190.648 708.929 190.264C708.929 189.872 708.845 189.544 708.677 189.28C708.517 189.008 708.293 188.8 708.005 188.656C707.717 188.512 707.385 188.44 707.009 188.44C706.889 188.44 706.757 188.448 706.613 188.464C706.477 188.48 706.361 188.504 706.265 188.536L706.013 187.996L708.401 185.08H704.441V184.06H709.733V185.044L707.453 187.852L707.381 187.54C707.917 187.556 708.389 187.68 708.797 187.912C709.205 188.144 709.525 188.46 709.757 188.86C709.989 189.252 710.105 189.712 710.105 190.24C710.105 190.784 709.973 191.276 709.709 191.716C709.445 192.156 709.081 192.504 708.617 192.76C708.153 193.016 707.621 193.144 707.021 193.144ZM715.113 193.144C714.401 193.144 713.777 192.952 713.241 192.568C712.713 192.176 712.301 191.636 712.005 190.948C711.709 190.252 711.561 189.444 711.561 188.524C711.561 187.604 711.709 186.8 712.005 186.112C712.301 185.416 712.713 184.876 713.241 184.492C713.769 184.108 714.389 183.916 715.101 183.916C715.813 183.916 716.433 184.108 716.961 184.492C717.489 184.876 717.901 185.416 718.197 186.112C718.501 186.8 718.653 187.604 718.653 188.524C718.653 189.444 718.505 190.252 718.209 190.948C717.913 191.644 717.497 192.184 716.961 192.568C716.433 192.952 715.817 193.144 715.113 193.144ZM715.113 192.052C715.593 192.052 716.009 191.908 716.361 191.62C716.713 191.324 716.985 190.912 717.177 190.384C717.377 189.856 717.477 189.236 717.477 188.524C717.477 187.812 717.377 187.192 717.177 186.664C716.985 186.136 716.709 185.728 716.349 185.44C715.997 185.152 715.581 185.008 715.101 185.008C714.621 185.008 714.205 185.152 713.853 185.44C713.501 185.728 713.225 186.136 713.025 186.664C712.833 187.192 712.737 187.812 712.737 188.524C712.737 189.228 712.833 189.844 713.025 190.372C713.225 190.9 713.501 191.312 713.853 191.608C714.213 191.904 714.633 192.052 715.113 192.052Z" fill="#475569"/>
<defs>
<linearGradient id="paint0_linear_6211_46807" x1="368" y1="167" x2="368" y2="31.2409" gradientUnits="userSpaceOnUse">
<stop stop-color="#4F46E5" stop-opacity="0"/>
<stop offset="1" stop-color="#4F46E5"/>
</linearGradient>
<linearGradient id="paint1_linear_6211_46807" x1="368" y1="10.9869" x2="368" y2="167" gradientUnits="userSpaceOnUse">
<stop stop-color="#4F46E5"/>
<stop offset="1" stop-color="#4F46E5" stop-opacity="0"/>
</linearGradient>
</defs>
</svg>
