<svg width="4" height="16" viewBox="0 0 4 16" fill="none" xmlns="http://www.w3.org/2000/svg">
<path d="M2 12.9219C2.38539 12.9219 2.75483 13.0751 3.02734 13.3477C3.29986 13.6202 3.45312 13.9896 3.45312 14.375C3.45312 14.6265 3.38792 14.873 3.26465 15.0908L3.20801 15.1826C3.06823 15.3917 2.87689 15.5603 2.65332 15.6729L2.55566 15.7178C2.32335 15.8139 2.0706 15.848 1.82227 15.8174L1.7168 15.7998C1.43492 15.7437 1.17588 15.6056 0.972656 15.4023C0.794752 15.2244 0.666413 15.004 0.599609 14.7627L0.575195 14.6582C0.526198 14.4117 0.541778 14.1575 0.620117 13.9199L0.657227 13.8193C0.75347 13.587 0.908205 13.3835 1.10547 13.2295L1.19238 13.167C1.43135 13.0073 1.7126 12.9219 2 12.9219ZM2 6.54688C2.33721 6.54688 2.66232 6.66411 2.9209 6.87598L3.02734 6.97266C3.29986 7.24517 3.45312 7.61461 3.45312 8C3.45312 8.2874 3.36768 8.56865 3.20801 8.80762C3.06823 9.0167 2.87689 9.18531 2.65332 9.29785L2.55566 9.34277C2.32335 9.43891 2.0706 9.47299 1.82227 9.44238L1.7168 9.4248C1.43492 9.36873 1.17588 9.23057 0.972656 9.02734C0.794752 8.84944 0.666413 8.629 0.599609 8.3877L0.575195 8.2832C0.526198 8.0367 0.541778 7.78245 0.620117 7.54492L0.657227 7.44434C0.75347 7.21198 0.908206 7.00853 1.10547 6.85449L1.19238 6.79199C1.43135 6.63232 1.7126 6.54688 2 6.54688ZM1.44434 0.282227C1.67665 0.186091 1.9294 0.152014 2.17773 0.182617L2.2832 0.200195C2.56508 0.256264 2.82412 0.394433 3.02734 0.597656C3.23057 0.800879 3.36874 1.05992 3.4248 1.3418C3.4738 1.5883 3.45822 1.84255 3.37988 2.08008L3.34277 2.18066C3.24653 2.41302 3.09179 2.61647 2.89453 2.77051L2.80762 2.83301C2.56865 2.99268 2.2874 3.07812 2 3.07812C1.61461 3.07812 1.24517 2.92486 0.972656 2.65234C0.700143 2.37983 0.546875 2.01039 0.546875 1.625C0.546875 1.37353 0.612075 1.12697 0.735352 0.90918L0.791992 0.817383C0.931774 0.608301 1.12311 0.43969 1.34668 0.327148L1.44434 0.282227Z" fill="#475569" stroke="#475569" stroke-width="0.09375"/>
</svg>
