<svg width="21" height="21" viewBox="0 0 21 21" fill="none" xmlns="http://www.w3.org/2000/svg">
<path d="M14.0615 0.922287C14.4856 0.922348 14.8945 1.06988 15.2197 1.33635L15.3535 1.45744L19.543 5.64592C19.6703 5.77317 19.7787 5.91845 19.8633 6.07658L19.9395 6.23967C20.0313 6.46141 20.0791 6.69887 20.0791 6.93889C20.0791 7.11913 20.0522 7.29829 20 7.47014L19.9395 7.63908C19.8705 7.80538 19.7779 7.9604 19.6641 8.09904L19.543 8.23186L9.68555 18.0922L9.60547 18.1723H18.25C18.5004 18.1723 18.7417 18.259 18.9336 18.4164L19.0127 18.4877C19.2148 18.6899 19.3281 18.9646 19.3281 19.2504C19.328 19.5004 19.241 19.7413 19.084 19.933L19.0127 20.0121C18.8105 20.2143 18.5359 20.3285 18.25 20.3285H2.5C2.07593 20.3285 1.66704 20.1808 1.3418 19.9145L1.20703 19.7924C0.864468 19.4497 0.671981 18.985 0.671875 18.5004V14.31L0.680664 14.1303C0.692181 14.0114 0.715408 13.894 0.75 13.7797L0.810547 13.6108C0.879526 13.4443 0.972706 13.2893 1.08691 13.1508L1.20703 13.018H1.20801L12.7686 1.45744C13.1114 1.11472 13.5768 0.922287 14.0615 0.922287ZM2.82812 14.4496V18.1723H6.55078L14.4727 10.2504L10.75 6.52776L2.82812 14.4496ZM12.2773 5.00041L15.9668 8.68987L16 8.72209L16.0332 8.68987L17.7861 6.93694L14.0635 3.21428L12.2773 5.00041Z" fill="#475569" stroke="#475569" stroke-width="0.09375"/>
</svg>
