<svg width="22" height="21" viewBox="0 0 22 21" fill="none" xmlns="http://www.w3.org/2000/svg">
<path d="M10.25 15.5C10.25 15.7984 10.1315 16.0845 9.9205 16.2955C9.70952 16.5065 9.42337 16.625 9.125 16.625H6.5C6.20163 16.625 5.91548 16.5065 5.7045 16.2955C5.49353 16.0845 5.375 15.7984 5.375 15.5C5.375 15.2016 5.49353 14.9155 5.7045 14.7045C5.91548 14.4935 6.20163 14.375 6.5 14.375H9.125C9.42337 14.375 9.70952 14.4935 9.9205 14.7045C10.1315 14.9155 10.25 15.2016 10.25 15.5ZM15.5 14.375H12.875C12.5766 14.375 12.2905 14.4935 12.0795 14.7045C11.8685 14.9155 11.75 15.2016 11.75 15.5C11.75 15.7984 11.8685 16.0845 12.0795 16.2955C12.2905 16.5065 12.5766 16.625 12.875 16.625H15.5C15.7984 16.625 16.0845 16.5065 16.2955 16.2955C16.5065 16.0845 16.625 15.7984 16.625 15.5C16.625 15.2016 16.5065 14.9155 16.2955 14.7045C16.0845 14.4935 15.7984 14.375 15.5 14.375ZM21.875 19.25C21.875 19.5484 21.7565 19.8345 21.5455 20.0455C21.3345 20.2565 21.0484 20.375 20.75 20.375H1.25C0.951631 20.375 0.665483 20.2565 0.454505 20.0455C0.243526 19.8345 0.125 19.5484 0.125 19.25C0.125 18.9516 0.243526 18.6655 0.454505 18.4545C0.665483 18.2435 0.951631 18.125 1.25 18.125H1.625V7.25C1.625 7.04107 1.68318 6.83628 1.79302 6.65855C1.90286 6.48083 2.06002 6.3372 2.24688 6.24377C2.43375 6.15034 2.64295 6.11078 2.85103 6.12955C3.05911 6.14831 3.25786 6.22464 3.425 6.35L7.625 9.5V7.25C7.625 7.04107 7.68318 6.83628 7.79302 6.65855C7.90286 6.48083 8.06002 6.3372 8.24689 6.24377C8.43375 6.15034 8.64295 6.11078 8.85103 6.12955C9.05911 6.14831 9.25786 6.22464 9.425 6.35L12.5497 8.69375L13.5444 1.73469C13.6101 1.2887 13.8335 0.881053 14.1741 0.585712C14.5147 0.290372 14.9498 0.126914 15.4006 0.125H17.0994C17.5502 0.126914 17.9853 0.290372 18.3259 0.585712C18.6665 0.881053 18.8899 1.2887 18.9556 1.73469L20.3619 11.5906C20.3619 11.6 20.3731 11.7163 20.3731 11.75V18.125H20.7481C20.896 18.1248 21.0425 18.1537 21.1792 18.2101C21.3159 18.2665 21.4402 18.3494 21.5448 18.4538C21.6495 18.5583 21.7325 18.6824 21.7892 18.819C21.8458 18.9557 21.875 19.1021 21.875 19.25ZM14.6028 10.2341L15.125 10.625H17.9525L16.7741 2.375H15.7259L14.6028 10.2341ZM3.875 18.125H18.125V12.875H14.75C14.5066 12.875 14.2697 12.7961 14.075 12.65L12.7269 11.6394H12.7213L9.875 9.5V11.75C9.875 11.9589 9.81682 12.1637 9.70698 12.3414C9.59714 12.5192 9.43998 12.6628 9.25311 12.7562C9.06625 12.8497 8.85705 12.8892 8.64897 12.8705C8.44089 12.8517 8.24214 12.7754 8.075 12.65L3.875 9.5V18.125Z" fill="#4F46E5"/>
</svg>
