<svg width="905" height="249" viewBox="0 0 905 249" fill="none" xmlns="http://www.w3.org/2000/svg">
<path d="M4.15725 21V13.08H2.46525V12.06H5.34525V21H4.15725ZM7.59928 22.668V22.128C7.84728 22.064 8.03528 21.94 8.16328 21.756C8.29128 21.572 8.36328 21.32 8.37928 21H7.83928V19.56H9.00328V20.58C9.00328 21.156 8.88328 21.62 8.64328 21.972C8.41128 22.324 8.06328 22.556 7.59928 22.668ZM14.4252 21.144C13.7132 21.144 13.0892 20.952 12.5532 20.568C12.0252 20.176 11.6132 19.636 11.3172 18.948C11.0212 18.252 10.8732 17.444 10.8732 16.524C10.8732 15.604 11.0212 14.8 11.3172 14.112C11.6132 13.416 12.0252 12.876 12.5532 12.492C13.0812 12.108 13.7012 11.916 14.4132 11.916C15.1252 11.916 15.7452 12.108 16.2732 12.492C16.8012 12.876 17.2132 13.416 17.5092 14.112C17.8132 14.8 17.9652 15.604 17.9652 16.524C17.9652 17.444 17.8172 18.252 17.5212 18.948C17.2252 19.644 16.8092 20.184 16.2732 20.568C15.7452 20.952 15.1292 21.144 14.4252 21.144ZM14.4252 20.052C14.9052 20.052 15.3212 19.908 15.6732 19.62C16.0252 19.324 16.2972 18.912 16.4892 18.384C16.6892 17.856 16.7892 17.236 16.7892 16.524C16.7892 15.812 16.6892 15.192 16.4892 14.664C16.2972 14.136 16.0212 13.728 15.6612 13.44C15.3092 13.152 14.8932 13.008 14.4132 13.008C13.9332 13.008 13.5172 13.152 13.1652 13.44C12.8132 13.728 12.5372 14.136 12.3372 14.664C12.1452 15.192 12.0492 15.812 12.0492 16.524C12.0492 17.228 12.1452 17.844 12.3372 18.372C12.5372 18.9 12.8132 19.312 13.1652 19.608C13.5252 19.904 13.9452 20.052 14.4252 20.052ZM23.0488 21.144C22.3368 21.144 21.7128 20.952 21.1768 20.568C20.6488 20.176 20.2368 19.636 19.9408 18.948C19.6448 18.252 19.4968 17.444 19.4968 16.524C19.4968 15.604 19.6448 14.8 19.9408 14.112C20.2368 13.416 20.6488 12.876 21.1768 12.492C21.7048 12.108 22.3248 11.916 23.0368 11.916C23.7488 11.916 24.3688 12.108 24.8968 12.492C25.4248 12.876 25.8368 13.416 26.1328 14.112C26.4368 14.8 26.5888 15.604 26.5888 16.524C26.5888 17.444 26.4408 18.252 26.1448 18.948C25.8488 19.644 25.4328 20.184 24.8968 20.568C24.3688 20.952 23.7528 21.144 23.0488 21.144ZM23.0488 20.052C23.5288 20.052 23.9448 19.908 24.2968 19.62C24.6488 19.324 24.9208 18.912 25.1128 18.384C25.3128 17.856 25.4128 17.236 25.4128 16.524C25.4128 15.812 25.3128 15.192 25.1128 14.664C24.9208 14.136 24.6448 13.728 24.2848 13.44C23.9328 13.152 23.5168 13.008 23.0368 13.008C22.5568 13.008 22.1408 13.152 21.7888 13.44C21.4368 13.728 21.1608 14.136 20.9608 14.664C20.7688 15.192 20.6728 15.812 20.6728 16.524C20.6728 17.228 20.7688 17.844 20.9608 18.372C21.1608 18.9 21.4368 19.312 21.7888 19.608C22.1488 19.904 22.5688 20.052 23.0488 20.052ZM31.6724 21.144C30.9604 21.144 30.3364 20.952 29.8004 20.568C29.2724 20.176 28.8604 19.636 28.5644 18.948C28.2684 18.252 28.1204 17.444 28.1204 16.524C28.1204 15.604 28.2684 14.8 28.5644 14.112C28.8604 13.416 29.2724 12.876 29.8004 12.492C30.3284 12.108 30.9484 11.916 31.6604 11.916C32.3724 11.916 32.9924 12.108 33.5204 12.492C34.0484 12.876 34.4604 13.416 34.7564 14.112C35.0604 14.8 35.2124 15.604 35.2124 16.524C35.2124 17.444 35.0644 18.252 34.7684 18.948C34.4724 19.644 34.0564 20.184 33.5204 20.568C32.9924 20.952 32.3764 21.144 31.6724 21.144ZM31.6724 20.052C32.1524 20.052 32.5684 19.908 32.9204 19.62C33.2724 19.324 33.5444 18.912 33.7364 18.384C33.9364 17.856 34.0364 17.236 34.0364 16.524C34.0364 15.812 33.9364 15.192 33.7364 14.664C33.5444 14.136 33.2684 13.728 32.9084 13.44C32.5564 13.152 32.1404 13.008 31.6604 13.008C31.1804 13.008 30.7644 13.152 30.4124 13.44C30.0604 13.728 29.7844 14.136 29.5844 14.664C29.3924 15.192 29.2964 15.812 29.2964 16.524C29.2964 17.228 29.3924 17.844 29.5844 18.372C29.7844 18.9 30.0604 19.312 30.4124 19.608C30.7724 19.904 31.1924 20.052 31.6724 20.052Z" fill="#475569"/>
<path d="M44 16H904" stroke="#CBD5E1"/>
<path d="M13.1052 62.4L16.1892 58.38L16.4052 58.404C16.2852 58.564 16.1532 58.692 16.0092 58.788C15.8652 58.876 15.7052 58.94 15.5292 58.98C15.3612 59.02 15.1772 59.04 14.9772 59.04C14.4492 59.04 13.9732 58.92 13.5492 58.68C13.1332 58.432 12.8012 58.096 12.5532 57.672C12.3132 57.24 12.1932 56.748 12.1932 56.196C12.1932 55.644 12.3212 55.152 12.5772 54.72C12.8332 54.288 13.1852 53.948 13.6332 53.7C14.0812 53.444 14.5852 53.316 15.1452 53.316C15.7212 53.316 16.2292 53.444 16.6692 53.7C17.1172 53.948 17.4692 54.296 17.7252 54.744C17.9812 55.184 18.1092 55.692 18.1092 56.268C18.1092 56.58 18.0732 56.888 18.0012 57.192C17.9292 57.496 17.8132 57.804 17.6532 58.116C17.5012 58.428 17.2972 58.752 17.0412 59.088L14.5212 62.4H13.1052ZM15.1452 58.008C15.4892 58.008 15.7932 57.932 16.0572 57.78C16.3292 57.62 16.5412 57.404 16.6932 57.132C16.8452 56.852 16.9212 56.54 16.9212 56.196C16.9212 55.836 16.8412 55.52 16.6812 55.248C16.5292 54.976 16.3212 54.76 16.0572 54.6C15.7932 54.44 15.4892 54.36 15.1452 54.36C14.8092 54.36 14.5092 54.44 14.2452 54.6C13.9812 54.76 13.7692 54.976 13.6092 55.248C13.4572 55.52 13.3812 55.836 13.3812 56.196C13.3812 56.54 13.4572 56.852 13.6092 57.132C13.7612 57.404 13.9692 57.62 14.2332 57.78C14.5052 57.932 14.8092 58.008 15.1452 58.008ZM23.0488 62.544C22.3368 62.544 21.7128 62.352 21.1768 61.968C20.6488 61.576 20.2368 61.036 19.9408 60.348C19.6448 59.652 19.4968 58.844 19.4968 57.924C19.4968 57.004 19.6448 56.2 19.9408 55.512C20.2368 54.816 20.6488 54.276 21.1768 53.892C21.7048 53.508 22.3248 53.316 23.0368 53.316C23.7488 53.316 24.3688 53.508 24.8968 53.892C25.4248 54.276 25.8368 54.816 26.1328 55.512C26.4368 56.2 26.5888 57.004 26.5888 57.924C26.5888 58.844 26.4408 59.652 26.1448 60.348C25.8488 61.044 25.4328 61.584 24.8968 61.968C24.3688 62.352 23.7528 62.544 23.0488 62.544ZM23.0488 61.452C23.5288 61.452 23.9448 61.308 24.2968 61.02C24.6488 60.724 24.9208 60.312 25.1128 59.784C25.3128 59.256 25.4128 58.636 25.4128 57.924C25.4128 57.212 25.3128 56.592 25.1128 56.064C24.9208 55.536 24.6448 55.128 24.2848 54.84C23.9328 54.552 23.5168 54.408 23.0368 54.408C22.5568 54.408 22.1408 54.552 21.7888 54.84C21.4368 55.128 21.1608 55.536 20.9608 56.064C20.7688 56.592 20.6728 57.212 20.6728 57.924C20.6728 58.628 20.7688 59.244 20.9608 59.772C21.1608 60.3 21.4368 60.712 21.7888 61.008C22.1488 61.304 22.5688 61.452 23.0488 61.452ZM31.6724 62.544C30.9604 62.544 30.3364 62.352 29.8004 61.968C29.2724 61.576 28.8604 61.036 28.5644 60.348C28.2684 59.652 28.1204 58.844 28.1204 57.924C28.1204 57.004 28.2684 56.2 28.5644 55.512C28.8604 54.816 29.2724 54.276 29.8004 53.892C30.3284 53.508 30.9484 53.316 31.6604 53.316C32.3724 53.316 32.9924 53.508 33.5204 53.892C34.0484 54.276 34.4604 54.816 34.7564 55.512C35.0604 56.2 35.2124 57.004 35.2124 57.924C35.2124 58.844 35.0644 59.652 34.7684 60.348C34.4724 61.044 34.0564 61.584 33.5204 61.968C32.9924 62.352 32.3764 62.544 31.6724 62.544ZM31.6724 61.452C32.1524 61.452 32.5684 61.308 32.9204 61.02C33.2724 60.724 33.5444 60.312 33.7364 59.784C33.9364 59.256 34.0364 58.636 34.0364 57.924C34.0364 57.212 33.9364 56.592 33.7364 56.064C33.5444 55.536 33.2684 55.128 32.9084 54.84C32.5564 54.552 32.1404 54.408 31.6604 54.408C31.1804 54.408 30.7644 54.552 30.4124 54.84C30.0604 55.128 29.7844 55.536 29.5844 56.064C29.3924 56.592 29.2964 57.212 29.2964 57.924C29.2964 58.628 29.3924 59.244 29.5844 59.772C29.7844 60.3 30.0604 60.712 30.4124 61.008C30.7724 61.304 31.1924 61.452 31.6724 61.452Z" fill="#475569"/>
<path d="M44 57.4H904" stroke="#CBD5E1"/>
<path d="M14.9859 103.944C14.3859 103.944 13.8539 103.824 13.3899 103.584C12.9339 103.344 12.5739 103.02 12.3099 102.612C12.0539 102.196 11.9259 101.732 11.9259 101.22C11.9259 100.644 12.0859 100.14 12.4059 99.708C12.7259 99.276 13.1659 98.968 13.7259 98.784L13.7019 99.084C13.2779 98.916 12.9459 98.648 12.7059 98.28C12.4739 97.904 12.3579 97.5 12.3579 97.068C12.3579 96.612 12.4699 96.208 12.6939 95.856C12.9259 95.504 13.2379 95.228 13.6299 95.028C14.0299 94.82 14.4819 94.716 14.9859 94.716C15.4899 94.716 15.9379 94.816 16.3299 95.016C16.7219 95.216 17.0299 95.496 17.2539 95.856C17.4859 96.208 17.6019 96.612 17.6019 97.068C17.6019 97.524 17.4779 97.932 17.2299 98.292C16.9899 98.652 16.6699 98.92 16.2699 99.096L16.2339 98.784C16.8019 98.968 17.2459 99.28 17.5659 99.72C17.8859 100.152 18.0459 100.652 18.0459 101.22C18.0459 101.732 17.9139 102.196 17.6499 102.612C17.3939 103.02 17.0339 103.344 16.5699 103.584C16.1139 103.824 15.5859 103.944 14.9859 103.944ZM14.9859 102.924C15.3619 102.924 15.6899 102.852 15.9699 102.708C16.2499 102.564 16.4659 102.364 16.6179 102.108C16.7779 101.844 16.8579 101.544 16.8579 101.208C16.8579 100.864 16.7779 100.564 16.6179 100.308C16.4659 100.044 16.2499 99.844 15.9699 99.708C15.6899 99.564 15.3619 99.492 14.9859 99.492C14.6099 99.492 14.2779 99.564 13.9899 99.708C13.7099 99.844 13.4939 100.044 13.3419 100.308C13.1899 100.564 13.1139 100.864 13.1139 101.208C13.1139 101.544 13.1899 101.844 13.3419 102.108C13.4939 102.364 13.7099 102.564 13.9899 102.708C14.2779 102.852 14.6099 102.924 14.9859 102.924ZM14.9859 98.472C15.2579 98.472 15.4979 98.412 15.7059 98.292C15.9219 98.172 16.0939 98.012 16.2219 97.812C16.3499 97.604 16.4139 97.364 16.4139 97.092C16.4139 96.82 16.3499 96.584 16.2219 96.384C16.0939 96.184 15.9219 96.028 15.7059 95.916C15.4979 95.796 15.2579 95.736 14.9859 95.736C14.7059 95.736 14.4579 95.796 14.2419 95.916C14.0259 96.028 13.8539 96.184 13.7259 96.384C13.5979 96.584 13.5339 96.82 13.5339 97.092C13.5339 97.364 13.5979 97.604 13.7259 97.812C13.8539 98.012 14.0259 98.172 14.2419 98.292C14.4579 98.412 14.7059 98.472 14.9859 98.472ZM23.0488 103.944C22.3368 103.944 21.7128 103.752 21.1768 103.368C20.6488 102.976 20.2368 102.436 19.9408 101.748C19.6448 101.052 19.4968 100.244 19.4968 99.324C19.4968 98.404 19.6448 97.6 19.9408 96.912C20.2368 96.216 20.6488 95.676 21.1768 95.292C21.7048 94.908 22.3248 94.716 23.0368 94.716C23.7488 94.716 24.3688 94.908 24.8968 95.292C25.4248 95.676 25.8368 96.216 26.1328 96.912C26.4368 97.6 26.5888 98.404 26.5888 99.324C26.5888 100.244 26.4408 101.052 26.1448 101.748C25.8488 102.444 25.4328 102.984 24.8968 103.368C24.3688 103.752 23.7528 103.944 23.0488 103.944ZM23.0488 102.852C23.5288 102.852 23.9448 102.708 24.2968 102.42C24.6488 102.124 24.9208 101.712 25.1128 101.184C25.3128 100.656 25.4128 100.036 25.4128 99.324C25.4128 98.612 25.3128 97.992 25.1128 97.464C24.9208 96.936 24.6448 96.528 24.2848 96.24C23.9328 95.952 23.5168 95.808 23.0368 95.808C22.5568 95.808 22.1408 95.952 21.7888 96.24C21.4368 96.528 21.1608 96.936 20.9608 97.464C20.7688 97.992 20.6728 98.612 20.6728 99.324C20.6728 100.028 20.7688 100.644 20.9608 101.172C21.1608 101.7 21.4368 102.112 21.7888 102.408C22.1488 102.704 22.5688 102.852 23.0488 102.852ZM31.6724 103.944C30.9604 103.944 30.3364 103.752 29.8004 103.368C29.2724 102.976 28.8604 102.436 28.5644 101.748C28.2684 101.052 28.1204 100.244 28.1204 99.324C28.1204 98.404 28.2684 97.6 28.5644 96.912C28.8604 96.216 29.2724 95.676 29.8004 95.292C30.3284 94.908 30.9484 94.716 31.6604 94.716C32.3724 94.716 32.9924 94.908 33.5204 95.292C34.0484 95.676 34.4604 96.216 34.7564 96.912C35.0604 97.6 35.2124 98.404 35.2124 99.324C35.2124 100.244 35.0644 101.052 34.7684 101.748C34.4724 102.444 34.0564 102.984 33.5204 103.368C32.9924 103.752 32.3764 103.944 31.6724 103.944ZM31.6724 102.852C32.1524 102.852 32.5684 102.708 32.9204 102.42C33.2724 102.124 33.5444 101.712 33.7364 101.184C33.9364 100.656 34.0364 100.036 34.0364 99.324C34.0364 98.612 33.9364 97.992 33.7364 97.464C33.5444 96.936 33.2684 96.528 32.9084 96.24C32.5564 95.952 32.1404 95.808 31.6604 95.808C31.1804 95.808 30.7644 95.952 30.4124 96.24C30.0604 96.528 29.7844 96.936 29.5844 97.464C29.3924 97.992 29.2964 98.612 29.2964 99.324C29.2964 100.028 29.3924 100.644 29.5844 101.172C29.7844 101.7 30.0604 102.112 30.4124 102.408C30.7724 102.704 31.1924 102.852 31.6724 102.852Z" fill="#475569"/>
<path d="M44 98.8H904" stroke="#CBD5E1"/>
<path d="M13.1026 145.2L17.0266 137.28H12.6466V136.26H18.2626V137.28L14.3746 145.2H13.1026ZM23.0488 145.344C22.3368 145.344 21.7128 145.152 21.1768 144.768C20.6488 144.376 20.2368 143.836 19.9408 143.148C19.6448 142.452 19.4968 141.644 19.4968 140.724C19.4968 139.804 19.6448 139 19.9408 138.312C20.2368 137.616 20.6488 137.076 21.1768 136.692C21.7048 136.308 22.3248 136.116 23.0368 136.116C23.7488 136.116 24.3688 136.308 24.8968 136.692C25.4248 137.076 25.8368 137.616 26.1328 138.312C26.4368 139 26.5888 139.804 26.5888 140.724C26.5888 141.644 26.4408 142.452 26.1448 143.148C25.8488 143.844 25.4328 144.384 24.8968 144.768C24.3688 145.152 23.7528 145.344 23.0488 145.344ZM23.0488 144.252C23.5288 144.252 23.9448 144.108 24.2968 143.82C24.6488 143.524 24.9208 143.112 25.1128 142.584C25.3128 142.056 25.4128 141.436 25.4128 140.724C25.4128 140.012 25.3128 139.392 25.1128 138.864C24.9208 138.336 24.6448 137.928 24.2848 137.64C23.9328 137.352 23.5168 137.208 23.0368 137.208C22.5568 137.208 22.1408 137.352 21.7888 137.64C21.4368 137.928 21.1608 138.336 20.9608 138.864C20.7688 139.392 20.6728 140.012 20.6728 140.724C20.6728 141.428 20.7688 142.044 20.9608 142.572C21.1608 143.1 21.4368 143.512 21.7888 143.808C22.1488 144.104 22.5688 144.252 23.0488 144.252ZM31.6724 145.344C30.9604 145.344 30.3364 145.152 29.8004 144.768C29.2724 144.376 28.8604 143.836 28.5644 143.148C28.2684 142.452 28.1204 141.644 28.1204 140.724C28.1204 139.804 28.2684 139 28.5644 138.312C28.8604 137.616 29.2724 137.076 29.8004 136.692C30.3284 136.308 30.9484 136.116 31.6604 136.116C32.3724 136.116 32.9924 136.308 33.5204 136.692C34.0484 137.076 34.4604 137.616 34.7564 138.312C35.0604 139 35.2124 139.804 35.2124 140.724C35.2124 141.644 35.0644 142.452 34.7684 143.148C34.4724 143.844 34.0564 144.384 33.5204 144.768C32.9924 145.152 32.3764 145.344 31.6724 145.344ZM31.6724 144.252C32.1524 144.252 32.5684 144.108 32.9204 143.82C33.2724 143.524 33.5444 143.112 33.7364 142.584C33.9364 142.056 34.0364 141.436 34.0364 140.724C34.0364 140.012 33.9364 139.392 33.7364 138.864C33.5444 138.336 33.2684 137.928 32.9084 137.64C32.5564 137.352 32.1404 137.208 31.6604 137.208C31.1804 137.208 30.7644 137.352 30.4124 137.64C30.0604 137.928 29.7844 138.336 29.5844 138.864C29.3924 139.392 29.2964 140.012 29.2964 140.724C29.2964 141.428 29.3924 142.044 29.5844 142.572C29.7844 143.1 30.0604 143.512 30.4124 143.808C30.7724 144.104 31.1924 144.252 31.6724 144.252Z" fill="#475569"/>
<path d="M44 140.2H904" stroke="#CBD5E1"/>
<path d="M15.1812 186.744C14.6052 186.744 14.0932 186.616 13.6452 186.36C13.2052 186.104 12.8572 185.756 12.6012 185.316C12.3452 184.868 12.2172 184.36 12.2172 183.792C12.2172 183.48 12.2532 183.172 12.3252 182.868C12.3972 182.564 12.5132 182.256 12.6732 181.944C12.8332 181.632 13.0372 181.308 13.2852 180.972L15.8052 177.66H17.2212L14.1372 181.668L13.9212 181.644C14.0412 181.484 14.1732 181.36 14.3172 181.272C14.4692 181.184 14.6292 181.12 14.7972 181.08C14.9732 181.04 15.1572 181.02 15.3492 181.02C15.8772 181.02 16.3492 181.144 16.7652 181.392C17.1892 181.632 17.5212 181.964 17.7612 182.388C18.0092 182.812 18.1332 183.3 18.1332 183.852C18.1332 184.404 18.0052 184.9 17.7492 185.34C17.4932 185.772 17.1412 186.116 16.6932 186.372C16.2532 186.62 15.7492 186.744 15.1812 186.744ZM15.1812 185.688C15.5172 185.688 15.8172 185.612 16.0812 185.46C16.3452 185.3 16.5532 185.08 16.7052 184.8C16.8652 184.52 16.9452 184.208 16.9452 183.864C16.9452 183.504 16.8692 183.192 16.7172 182.928C16.5652 182.656 16.3572 182.44 16.0932 182.28C15.8292 182.12 15.5252 182.04 15.1812 182.04C14.8452 182.04 14.5412 182.12 14.2692 182.28C13.9972 182.44 13.7852 182.656 13.6332 182.928C13.4812 183.192 13.4052 183.504 13.4052 183.864C13.4052 184.208 13.4812 184.52 13.6332 184.8C13.7932 185.08 14.0052 185.3 14.2692 185.46C14.5412 185.612 14.8452 185.688 15.1812 185.688ZM23.0488 186.744C22.3368 186.744 21.7128 186.552 21.1768 186.168C20.6488 185.776 20.2368 185.236 19.9408 184.548C19.6448 183.852 19.4968 183.044 19.4968 182.124C19.4968 181.204 19.6448 180.4 19.9408 179.712C20.2368 179.016 20.6488 178.476 21.1768 178.092C21.7048 177.708 22.3248 177.516 23.0368 177.516C23.7488 177.516 24.3688 177.708 24.8968 178.092C25.4248 178.476 25.8368 179.016 26.1328 179.712C26.4368 180.4 26.5888 181.204 26.5888 182.124C26.5888 183.044 26.4408 183.852 26.1448 184.548C25.8488 185.244 25.4328 185.784 24.8968 186.168C24.3688 186.552 23.7528 186.744 23.0488 186.744ZM23.0488 185.652C23.5288 185.652 23.9448 185.508 24.2968 185.22C24.6488 184.924 24.9208 184.512 25.1128 183.984C25.3128 183.456 25.4128 182.836 25.4128 182.124C25.4128 181.412 25.3128 180.792 25.1128 180.264C24.9208 179.736 24.6448 179.328 24.2848 179.04C23.9328 178.752 23.5168 178.608 23.0368 178.608C22.5568 178.608 22.1408 178.752 21.7888 179.04C21.4368 179.328 21.1608 179.736 20.9608 180.264C20.7688 180.792 20.6728 181.412 20.6728 182.124C20.6728 182.828 20.7688 183.444 20.9608 183.972C21.1608 184.5 21.4368 184.912 21.7888 185.208C22.1488 185.504 22.5688 185.652 23.0488 185.652ZM31.6724 186.744C30.9604 186.744 30.3364 186.552 29.8004 186.168C29.2724 185.776 28.8604 185.236 28.5644 184.548C28.2684 183.852 28.1204 183.044 28.1204 182.124C28.1204 181.204 28.2684 180.4 28.5644 179.712C28.8604 179.016 29.2724 178.476 29.8004 178.092C30.3284 177.708 30.9484 177.516 31.6604 177.516C32.3724 177.516 32.9924 177.708 33.5204 178.092C34.0484 178.476 34.4604 179.016 34.7564 179.712C35.0604 180.4 35.2124 181.204 35.2124 182.124C35.2124 183.044 35.0644 183.852 34.7684 184.548C34.4724 185.244 34.0564 185.784 33.5204 186.168C32.9924 186.552 32.3764 186.744 31.6724 186.744ZM31.6724 185.652C32.1524 185.652 32.5684 185.508 32.9204 185.22C33.2724 184.924 33.5444 184.512 33.7364 183.984C33.9364 183.456 34.0364 182.836 34.0364 182.124C34.0364 181.412 33.9364 180.792 33.7364 180.264C33.5444 179.736 33.2684 179.328 32.9084 179.04C32.5564 178.752 32.1404 178.608 31.6604 178.608C31.1804 178.608 30.7644 178.752 30.4124 179.04C30.0604 179.328 29.7844 179.736 29.5844 180.264C29.3924 180.792 29.2964 181.412 29.2964 182.124C29.2964 182.828 29.3924 183.444 29.5844 183.972C29.7844 184.5 30.0604 184.912 30.4124 185.208C30.7724 185.504 31.1924 185.652 31.6724 185.652Z" fill="#475569"/>
<path d="M44 181.6H904" stroke="#CBD5E1"/>
<path d="M14.9583 228.144C14.4943 228.144 14.0583 228.064 13.6503 227.904C13.2423 227.736 12.8863 227.5 12.5823 227.196C12.2863 226.884 12.0703 226.52 11.9343 226.104L12.8943 225.696C13.0623 226.136 13.3343 226.48 13.7103 226.728C14.0943 226.968 14.5103 227.088 14.9583 227.088C15.3263 227.088 15.6503 227.008 15.9303 226.848C16.2183 226.68 16.4423 226.452 16.6023 226.164C16.7623 225.868 16.8423 225.54 16.8423 225.18C16.8423 224.804 16.7583 224.472 16.5903 224.184C16.4303 223.896 16.2103 223.672 15.9303 223.512C15.6503 223.344 15.3303 223.26 14.9703 223.26C14.6023 223.26 14.2663 223.344 13.9623 223.512C13.6583 223.68 13.4383 223.892 13.3023 224.148L12.3543 223.944L13.0383 219.06H17.6703V220.08H13.4823L13.9383 219.624L13.4103 223.416L13.0023 223.176C13.2663 222.84 13.5743 222.6 13.9263 222.456C14.2863 222.304 14.6743 222.228 15.0903 222.228C15.6743 222.228 16.1863 222.36 16.6263 222.624C17.0663 222.888 17.4103 223.24 17.6583 223.68C17.9063 224.12 18.0303 224.62 18.0303 225.18C18.0303 225.74 17.8943 226.244 17.6223 226.692C17.3583 227.14 16.9943 227.496 16.5303 227.76C16.0743 228.016 15.5503 228.144 14.9583 228.144ZM23.0488 228.144C22.3368 228.144 21.7128 227.952 21.1768 227.568C20.6488 227.176 20.2368 226.636 19.9408 225.948C19.6448 225.252 19.4968 224.444 19.4968 223.524C19.4968 222.604 19.6448 221.8 19.9408 221.112C20.2368 220.416 20.6488 219.876 21.1768 219.492C21.7048 219.108 22.3248 218.916 23.0368 218.916C23.7488 218.916 24.3688 219.108 24.8968 219.492C25.4248 219.876 25.8368 220.416 26.1328 221.112C26.4368 221.8 26.5888 222.604 26.5888 223.524C26.5888 224.444 26.4408 225.252 26.1448 225.948C25.8488 226.644 25.4328 227.184 24.8968 227.568C24.3688 227.952 23.7528 228.144 23.0488 228.144ZM23.0488 227.052C23.5288 227.052 23.9448 226.908 24.2968 226.62C24.6488 226.324 24.9208 225.912 25.1128 225.384C25.3128 224.856 25.4128 224.236 25.4128 223.524C25.4128 222.812 25.3128 222.192 25.1128 221.664C24.9208 221.136 24.6448 220.728 24.2848 220.44C23.9328 220.152 23.5168 220.008 23.0368 220.008C22.5568 220.008 22.1408 220.152 21.7888 220.44C21.4368 220.728 21.1608 221.136 20.9608 221.664C20.7688 222.192 20.6728 222.812 20.6728 223.524C20.6728 224.228 20.7688 224.844 20.9608 225.372C21.1608 225.9 21.4368 226.312 21.7888 226.608C22.1488 226.904 22.5688 227.052 23.0488 227.052ZM31.6724 228.144C30.9604 228.144 30.3364 227.952 29.8004 227.568C29.2724 227.176 28.8604 226.636 28.5644 225.948C28.2684 225.252 28.1204 224.444 28.1204 223.524C28.1204 222.604 28.2684 221.8 28.5644 221.112C28.8604 220.416 29.2724 219.876 29.8004 219.492C30.3284 219.108 30.9484 218.916 31.6604 218.916C32.3724 218.916 32.9924 219.108 33.5204 219.492C34.0484 219.876 34.4604 220.416 34.7564 221.112C35.0604 221.8 35.2124 222.604 35.2124 223.524C35.2124 224.444 35.0644 225.252 34.7684 225.948C34.4724 226.644 34.0564 227.184 33.5204 227.568C32.9924 227.952 32.3764 228.144 31.6724 228.144ZM31.6724 227.052C32.1524 227.052 32.5684 226.908 32.9204 226.62C33.2724 226.324 33.5444 225.912 33.7364 225.384C33.9364 224.856 34.0364 224.236 34.0364 223.524C34.0364 222.812 33.9364 222.192 33.7364 221.664C33.5444 221.136 33.2684 220.728 32.9084 220.44C32.5564 220.152 32.1404 220.008 31.6604 220.008C31.1804 220.008 30.7644 220.152 30.4124 220.44C30.0604 220.728 29.7844 221.136 29.5844 221.664C29.3924 222.192 29.2964 222.812 29.2964 223.524C29.2964 224.228 29.3924 224.844 29.5844 225.372C29.7844 225.9 30.0604 226.312 30.4124 226.608C30.7724 226.904 31.1924 227.052 31.6724 227.052Z" fill="#475569"/>
<path d="M44 223H904" stroke="#CBD5E1"/>
<path opacity="0.08" d="M165.248 125.633C120.857 92.3865 70.5023 75.5248 44 65.5032V223H904V187.371C869.547 111.603 834.431 138.264 801.304 93.5637C784.043 70.2731 768.838 46.0651 713.846 81.5377C676.38 105.705 651.565 102.401 635.002 90.5572C598.561 64.5009 589.948 55.4814 534.955 111.603C494.539 152.848 424.308 121.624 389.855 103.585C346.921 77.1282 324.924 147.681 299.085 182.757C267.812 228.455 233.492 176.744 165.248 125.633Z" fill="url(#paint0_linear_5647_21237)"/>
<path d="M44 65.5032C70.5023 75.5248 120.857 92.3865 165.248 125.633C233.492 176.744 267.812 228.455 299.085 182.757C324.924 147.681 346.921 77.1282 389.855 103.585C424.308 121.624 494.539 152.848 534.955 111.603C589.948 55.4814 598.561 64.5009 635.002 90.5572C651.565 102.401 676.38 105.705 713.846 81.5377C768.838 46.0651 784.043 70.2731 801.304 93.5637C834.431 138.264 869.547 111.603 904 187.371" stroke="#C7D2FE" stroke-width="2" stroke-linecap="round"/>
<path opacity="0.24" d="M86.4691 168.609C76.6344 181.667 55.5021 210.144 44 223H904V113.229C819.062 144.91 773.275 103.057 719.525 69.6803C674.932 41.9902 649.412 66.7135 612.025 113.229C503.645 248.068 419.969 126.991 387.735 63.7822C362.519 14.3356 337.302 56.8597 327.349 83.5608C305.451 139.93 285.543 219.044 225.821 128.063C191.034 75.0672 122.966 120.151 86.4691 168.609Z" fill="url(#paint1_linear_5647_21237)"/>
<path d="M44 223C55.5021 210.144 76.6344 181.667 86.4691 168.609C122.966 120.151 191.034 75.0672 225.821 128.063C285.543 219.044 305.451 139.93 327.349 83.5608C337.302 56.8597 362.519 14.3356 387.735 63.7822C419.969 126.991 503.645 248.068 612.025 113.229C649.412 66.7135 674.932 41.9902 719.525 69.6803C773.275 103.057 819.062 144.91 904 113.229" stroke="#4F46E5" stroke-width="2" stroke-linecap="round"/>
<path d="M57.0562 246V245.184L59.5282 242.508C60.0162 241.988 60.4042 241.56 60.6922 241.224C60.9882 240.888 61.2042 240.588 61.3402 240.324C61.4762 240.06 61.5442 239.78 61.5442 239.484C61.5442 238.996 61.4002 238.62 61.1122 238.356C60.8242 238.092 60.4442 237.96 59.9722 237.96C59.4922 237.96 59.0842 238.1 58.7482 238.38C58.4122 238.652 58.1802 239.04 58.0522 239.544L56.9842 239.268C57.0882 238.788 57.2802 238.372 57.5602 238.02C57.8402 237.668 58.1882 237.396 58.6042 237.204C59.0202 237.012 59.4762 236.916 59.9722 236.916C60.5162 236.916 60.9922 237.024 61.4002 237.24C61.8162 237.448 62.1402 237.74 62.3722 238.116C62.6122 238.492 62.7322 238.928 62.7322 239.424C62.7322 239.752 62.6642 240.072 62.5282 240.384C62.3922 240.696 62.1922 241.028 61.9282 241.38C61.6642 241.724 61.3202 242.124 60.8962 242.58L58.6882 244.98H62.9242V246H57.0562Z" fill="#475569"/>
<path d="M117.939 246V243.936H113.547V242.964L117.915 237.06H119.043V242.964H120.207V243.936H119.043V246H117.939ZM114.435 243.384L114.267 242.964H117.939V238.044L118.287 238.14L114.435 243.384Z" fill="#475569"/>
<path d="M173.735 246.144C173.159 246.144 172.647 246.016 172.199 245.76C171.759 245.504 171.411 245.156 171.155 244.716C170.899 244.268 170.771 243.76 170.771 243.192C170.771 242.88 170.807 242.572 170.879 242.268C170.951 241.964 171.067 241.656 171.227 241.344C171.387 241.032 171.591 240.708 171.839 240.372L174.359 237.06H175.775L172.691 241.068L172.475 241.044C172.595 240.884 172.727 240.76 172.871 240.672C173.023 240.584 173.183 240.52 173.351 240.48C173.527 240.44 173.711 240.42 173.903 240.42C174.431 240.42 174.903 240.544 175.319 240.792C175.743 241.032 176.075 241.364 176.315 241.788C176.563 242.212 176.687 242.7 176.687 243.252C176.687 243.804 176.559 244.3 176.303 244.74C176.047 245.172 175.695 245.516 175.247 245.772C174.807 246.02 174.303 246.144 173.735 246.144ZM173.735 245.088C174.071 245.088 174.371 245.012 174.635 244.86C174.899 244.7 175.107 244.48 175.259 244.2C175.419 243.92 175.499 243.608 175.499 243.264C175.499 242.904 175.423 242.592 175.271 242.328C175.119 242.056 174.911 241.84 174.647 241.68C174.383 241.52 174.079 241.44 173.735 241.44C173.399 241.44 173.095 241.52 172.823 241.68C172.551 241.84 172.339 242.056 172.187 242.328C172.035 242.592 171.959 242.904 171.959 243.264C171.959 243.608 172.035 243.92 172.187 244.2C172.347 244.48 172.559 244.7 172.823 244.86C173.095 245.012 173.399 245.088 173.735 245.088Z" fill="#475569"/>
<path d="M230.578 246.144C229.978 246.144 229.446 246.024 228.982 245.784C228.526 245.544 228.166 245.22 227.902 244.812C227.646 244.396 227.518 243.932 227.518 243.42C227.518 242.844 227.678 242.34 227.998 241.908C228.318 241.476 228.758 241.168 229.318 240.984L229.294 241.284C228.87 241.116 228.538 240.848 228.298 240.48C228.066 240.104 227.95 239.7 227.95 239.268C227.95 238.812 228.062 238.408 228.286 238.056C228.518 237.704 228.83 237.428 229.222 237.228C229.622 237.02 230.074 236.916 230.578 236.916C231.082 236.916 231.53 237.016 231.922 237.216C232.314 237.416 232.622 237.696 232.846 238.056C233.078 238.408 233.194 238.812 233.194 239.268C233.194 239.724 233.07 240.132 232.822 240.492C232.582 240.852 232.262 241.12 231.862 241.296L231.826 240.984C232.394 241.168 232.838 241.48 233.158 241.92C233.478 242.352 233.638 242.852 233.638 243.42C233.638 243.932 233.506 244.396 233.242 244.812C232.986 245.22 232.626 245.544 232.162 245.784C231.706 246.024 231.178 246.144 230.578 246.144ZM230.578 245.124C230.954 245.124 231.282 245.052 231.562 244.908C231.842 244.764 232.058 244.564 232.21 244.308C232.37 244.044 232.45 243.744 232.45 243.408C232.45 243.064 232.37 242.764 232.21 242.508C232.058 242.244 231.842 242.044 231.562 241.908C231.282 241.764 230.954 241.692 230.578 241.692C230.202 241.692 229.87 241.764 229.582 241.908C229.302 242.044 229.086 242.244 228.934 242.508C228.782 242.764 228.706 243.064 228.706 243.408C228.706 243.744 228.782 244.044 228.934 244.308C229.086 244.564 229.302 244.764 229.582 244.908C229.87 245.052 230.202 245.124 230.578 245.124ZM230.578 240.672C230.85 240.672 231.09 240.612 231.298 240.492C231.514 240.372 231.686 240.212 231.814 240.012C231.942 239.804 232.006 239.564 232.006 239.292C232.006 239.02 231.942 238.784 231.814 238.584C231.686 238.384 231.514 238.228 231.298 238.116C231.09 237.996 230.85 237.936 230.578 237.936C230.298 237.936 230.05 237.996 229.834 238.116C229.618 238.228 229.446 238.384 229.318 238.584C229.19 238.784 229.126 239.02 229.126 239.292C229.126 239.564 229.19 239.804 229.318 240.012C229.446 240.212 229.618 240.372 229.834 240.492C230.05 240.612 230.298 240.672 230.578 240.672Z" fill="#475569"/>
<path d="M282.962 246V238.08H281.27V237.06H284.15V246H282.962ZM289.704 246.144C288.992 246.144 288.368 245.952 287.832 245.568C287.304 245.176 286.892 244.636 286.596 243.948C286.3 243.252 286.152 242.444 286.152 241.524C286.152 240.604 286.3 239.8 286.596 239.112C286.892 238.416 287.304 237.876 287.832 237.492C288.36 237.108 288.98 236.916 289.692 236.916C290.404 236.916 291.024 237.108 291.552 237.492C292.08 237.876 292.492 238.416 292.788 239.112C293.092 239.8 293.244 240.604 293.244 241.524C293.244 242.444 293.096 243.252 292.8 243.948C292.504 244.644 292.088 245.184 291.552 245.568C291.024 245.952 290.408 246.144 289.704 246.144ZM289.704 245.052C290.184 245.052 290.6 244.908 290.952 244.62C291.304 244.324 291.576 243.912 291.768 243.384C291.968 242.856 292.068 242.236 292.068 241.524C292.068 240.812 291.968 240.192 291.768 239.664C291.576 239.136 291.3 238.728 290.94 238.44C290.588 238.152 290.172 238.008 289.692 238.008C289.212 238.008 288.796 238.152 288.444 238.44C288.092 238.728 287.816 239.136 287.616 239.664C287.424 240.192 287.328 240.812 287.328 241.524C287.328 242.228 287.424 242.844 287.616 243.372C287.816 243.9 288.092 244.312 288.444 244.608C288.804 244.904 289.224 245.052 289.704 245.052Z" fill="#475569"/>
<path d="M340.569 246V238.08H338.877V237.06H341.757V246H340.569ZM343.603 246V245.184L346.075 242.508C346.563 241.988 346.951 241.56 347.239 241.224C347.535 240.888 347.751 240.588 347.887 240.324C348.023 240.06 348.091 239.78 348.091 239.484C348.091 238.996 347.947 238.62 347.659 238.356C347.371 238.092 346.991 237.96 346.519 237.96C346.039 237.96 345.631 238.1 345.295 238.38C344.959 238.652 344.727 239.04 344.599 239.544L343.531 239.268C343.635 238.788 343.827 238.372 344.107 238.02C344.387 237.668 344.735 237.396 345.151 237.204C345.567 237.012 346.023 236.916 346.519 236.916C347.063 236.916 347.539 237.024 347.947 237.24C348.363 237.448 348.687 237.74 348.919 238.116C349.159 238.492 349.279 238.928 349.279 239.424C349.279 239.752 349.211 240.072 349.075 240.384C348.939 240.696 348.739 241.028 348.475 241.38C348.211 241.724 347.867 242.124 347.443 242.58L345.235 244.98H349.471V246H343.603Z" fill="#475569"/>
<path d="M397.192 246V238.08H395.5V237.06H398.38V246H397.192ZM404.486 246V243.936H400.094V242.964L404.462 237.06H405.59V242.964H406.754V243.936H405.59V246H404.486ZM400.982 243.384L400.814 242.964H404.486V238.044L404.834 238.14L400.982 243.384Z" fill="#475569"/>
<path d="M454.342 246V238.08H452.65V237.06H455.53V246H454.342ZM460.223 246.144C459.647 246.144 459.135 246.016 458.687 245.76C458.247 245.504 457.899 245.156 457.643 244.716C457.387 244.268 457.259 243.76 457.259 243.192C457.259 242.88 457.295 242.572 457.367 242.268C457.439 241.964 457.555 241.656 457.715 241.344C457.875 241.032 458.079 240.708 458.327 240.372L460.847 237.06H462.263L459.179 241.068L458.963 241.044C459.083 240.884 459.215 240.76 459.359 240.672C459.511 240.584 459.671 240.52 459.839 240.48C460.015 240.44 460.199 240.42 460.391 240.42C460.919 240.42 461.391 240.544 461.807 240.792C462.231 241.032 462.563 241.364 462.803 241.788C463.051 242.212 463.175 242.7 463.175 243.252C463.175 243.804 463.047 244.3 462.791 244.74C462.535 245.172 462.183 245.516 461.735 245.772C461.295 246.02 460.791 246.144 460.223 246.144ZM460.223 245.088C460.559 245.088 460.859 245.012 461.123 244.86C461.387 244.7 461.595 244.48 461.747 244.2C461.907 243.92 461.987 243.608 461.987 243.264C461.987 242.904 461.911 242.592 461.759 242.328C461.607 242.056 461.399 241.84 461.135 241.68C460.871 241.52 460.567 241.44 460.223 241.44C459.887 241.44 459.583 241.52 459.311 241.68C459.039 241.84 458.827 242.056 458.675 242.328C458.523 242.592 458.447 242.904 458.447 243.264C458.447 243.608 458.523 243.92 458.675 244.2C458.835 244.48 459.047 244.7 459.311 244.86C459.583 245.012 459.887 245.088 460.223 245.088Z" fill="#475569"/>
<path d="M510.959 246V238.08H509.267V237.06H512.147V246H510.959ZM517.125 246.144C516.525 246.144 515.993 246.024 515.529 245.784C515.073 245.544 514.713 245.22 514.449 244.812C514.193 244.396 514.065 243.932 514.065 243.42C514.065 242.844 514.225 242.34 514.545 241.908C514.865 241.476 515.305 241.168 515.865 240.984L515.841 241.284C515.417 241.116 515.085 240.848 514.845 240.48C514.613 240.104 514.497 239.7 514.497 239.268C514.497 238.812 514.609 238.408 514.833 238.056C515.065 237.704 515.377 237.428 515.769 237.228C516.169 237.02 516.621 236.916 517.125 236.916C517.629 236.916 518.077 237.016 518.469 237.216C518.861 237.416 519.169 237.696 519.393 238.056C519.625 238.408 519.741 238.812 519.741 239.268C519.741 239.724 519.617 240.132 519.369 240.492C519.129 240.852 518.809 241.12 518.409 241.296L518.373 240.984C518.941 241.168 519.385 241.48 519.705 241.92C520.025 242.352 520.185 242.852 520.185 243.42C520.185 243.932 520.053 244.396 519.789 244.812C519.533 245.22 519.173 245.544 518.709 245.784C518.253 246.024 517.725 246.144 517.125 246.144ZM517.125 245.124C517.501 245.124 517.829 245.052 518.109 244.908C518.389 244.764 518.605 244.564 518.757 244.308C518.917 244.044 518.997 243.744 518.997 243.408C518.997 243.064 518.917 242.764 518.757 242.508C518.605 242.244 518.389 242.044 518.109 241.908C517.829 241.764 517.501 241.692 517.125 241.692C516.749 241.692 516.417 241.764 516.129 241.908C515.849 242.044 515.633 242.244 515.481 242.508C515.329 242.764 515.253 243.064 515.253 243.408C515.253 243.744 515.329 244.044 515.481 244.308C515.633 244.564 515.849 244.764 516.129 244.908C516.417 245.052 516.749 245.124 517.125 245.124ZM517.125 240.672C517.397 240.672 517.637 240.612 517.845 240.492C518.061 240.372 518.233 240.212 518.361 240.012C518.489 239.804 518.553 239.564 518.553 239.292C518.553 239.02 518.489 238.784 518.361 238.584C518.233 238.384 518.061 238.228 517.845 238.116C517.637 237.996 517.397 237.936 517.125 237.936C516.845 237.936 516.597 237.996 516.381 238.116C516.165 238.228 515.993 238.384 515.865 238.584C515.737 238.784 515.673 239.02 515.673 239.292C515.673 239.564 515.737 239.804 515.865 240.012C515.993 240.212 516.165 240.372 516.381 240.492C516.597 240.612 516.845 240.672 517.125 240.672Z" fill="#475569"/>
<path d="M564.459 246V245.184L566.931 242.508C567.419 241.988 567.807 241.56 568.095 241.224C568.391 240.888 568.607 240.588 568.743 240.324C568.879 240.06 568.947 239.78 568.947 239.484C568.947 238.996 568.803 238.62 568.515 238.356C568.227 238.092 567.847 237.96 567.375 237.96C566.895 237.96 566.487 238.1 566.151 238.38C565.815 238.652 565.583 239.04 565.455 239.544L564.387 239.268C564.491 238.788 564.683 238.372 564.963 238.02C565.243 237.668 565.591 237.396 566.007 237.204C566.423 237.012 566.879 236.916 567.375 236.916C567.919 236.916 568.395 237.024 568.803 237.24C569.219 237.448 569.543 237.74 569.775 238.116C570.015 238.492 570.135 238.928 570.135 239.424C570.135 239.752 570.067 240.072 569.931 240.384C569.795 240.696 569.595 241.028 569.331 241.38C569.067 241.724 568.723 242.124 568.299 242.58L566.091 244.98H570.327V246H564.459ZM575.29 246.144C574.578 246.144 573.954 245.952 573.418 245.568C572.89 245.176 572.478 244.636 572.182 243.948C571.886 243.252 571.738 242.444 571.738 241.524C571.738 240.604 571.886 239.8 572.182 239.112C572.478 238.416 572.89 237.876 573.418 237.492C573.946 237.108 574.566 236.916 575.278 236.916C575.99 236.916 576.61 237.108 577.138 237.492C577.666 237.876 578.078 238.416 578.374 239.112C578.678 239.8 578.83 240.604 578.83 241.524C578.83 242.444 578.682 243.252 578.386 243.948C578.09 244.644 577.674 245.184 577.138 245.568C576.61 245.952 575.994 246.144 575.29 246.144ZM575.29 245.052C575.77 245.052 576.186 244.908 576.538 244.62C576.89 244.324 577.162 243.912 577.354 243.384C577.554 242.856 577.654 242.236 577.654 241.524C577.654 240.812 577.554 240.192 577.354 239.664C577.162 239.136 576.886 238.728 576.526 238.44C576.174 238.152 575.758 238.008 575.278 238.008C574.798 238.008 574.382 238.152 574.03 238.44C573.678 238.728 573.402 239.136 573.202 239.664C573.01 240.192 572.914 240.812 572.914 241.524C572.914 242.228 573.01 242.844 573.202 243.372C573.402 243.9 573.678 244.312 574.03 244.608C574.39 244.904 574.81 245.052 575.29 245.052Z" fill="#475569"/>
<path d="M622.066 246V245.184L624.538 242.508C625.026 241.988 625.414 241.56 625.702 241.224C625.998 240.888 626.214 240.588 626.35 240.324C626.486 240.06 626.554 239.78 626.554 239.484C626.554 238.996 626.41 238.62 626.122 238.356C625.834 238.092 625.454 237.96 624.982 237.96C624.502 237.96 624.094 238.1 623.758 238.38C623.422 238.652 623.19 239.04 623.062 239.544L621.994 239.268C622.098 238.788 622.29 238.372 622.57 238.02C622.85 237.668 623.198 237.396 623.614 237.204C624.03 237.012 624.486 236.916 624.982 236.916C625.526 236.916 626.002 237.024 626.41 237.24C626.826 237.448 627.15 237.74 627.382 238.116C627.622 238.492 627.742 238.928 627.742 239.424C627.742 239.752 627.674 240.072 627.538 240.384C627.402 240.696 627.202 241.028 626.938 241.38C626.674 241.724 626.33 242.124 625.906 242.58L623.698 244.98H627.934V246H622.066ZM629.189 246V245.184L631.661 242.508C632.149 241.988 632.537 241.56 632.825 241.224C633.121 240.888 633.337 240.588 633.473 240.324C633.609 240.06 633.677 239.78 633.677 239.484C633.677 238.996 633.533 238.62 633.245 238.356C632.957 238.092 632.577 237.96 632.105 237.96C631.625 237.96 631.217 238.1 630.881 238.38C630.545 238.652 630.313 239.04 630.185 239.544L629.117 239.268C629.221 238.788 629.413 238.372 629.693 238.02C629.973 237.668 630.321 237.396 630.737 237.204C631.153 237.012 631.609 236.916 632.105 236.916C632.649 236.916 633.125 237.024 633.533 237.24C633.949 237.448 634.273 237.74 634.505 238.116C634.745 238.492 634.865 238.928 634.865 239.424C634.865 239.752 634.797 240.072 634.661 240.384C634.525 240.696 634.325 241.028 634.061 241.38C633.797 241.724 633.453 242.124 633.029 242.58L630.821 244.98H635.057V246H629.189Z" fill="#475569"/>
<path d="M678.747 246V245.184L681.219 242.508C681.707 241.988 682.095 241.56 682.383 241.224C682.679 240.888 682.895 240.588 683.031 240.324C683.167 240.06 683.235 239.78 683.235 239.484C683.235 238.996 683.091 238.62 682.803 238.356C682.515 238.092 682.135 237.96 681.663 237.96C681.183 237.96 680.775 238.1 680.439 238.38C680.103 238.652 679.871 239.04 679.743 239.544L678.675 239.268C678.779 238.788 678.971 238.372 679.251 238.02C679.531 237.668 679.879 237.396 680.295 237.204C680.711 237.012 681.167 236.916 681.663 236.916C682.207 236.916 682.683 237.024 683.091 237.24C683.507 237.448 683.831 237.74 684.063 238.116C684.303 238.492 684.423 238.928 684.423 239.424C684.423 239.752 684.355 240.072 684.219 240.384C684.083 240.696 683.883 241.028 683.619 241.38C683.355 241.724 683.011 242.124 682.587 242.58L680.379 244.98H684.615V246H678.747ZM690.013 246V243.936H685.621V242.964L689.989 237.06H691.117V242.964H692.281V243.936H691.117V246H690.013ZM686.509 243.384L686.341 242.964H690.013V238.044L690.361 238.14L686.509 243.384Z" fill="#475569"/>
<path d="M735.78 246V245.184L738.252 242.508C738.74 241.988 739.128 241.56 739.416 241.224C739.712 240.888 739.928 240.588 740.064 240.324C740.2 240.06 740.268 239.78 740.268 239.484C740.268 238.996 740.124 238.62 739.836 238.356C739.548 238.092 739.168 237.96 738.696 237.96C738.216 237.96 737.808 238.1 737.472 238.38C737.136 238.652 736.904 239.04 736.776 239.544L735.708 239.268C735.812 238.788 736.004 238.372 736.284 238.02C736.564 237.668 736.912 237.396 737.328 237.204C737.744 237.012 738.2 236.916 738.696 236.916C739.24 236.916 739.716 237.024 740.124 237.24C740.54 237.448 740.864 237.74 741.096 238.116C741.336 238.492 741.456 238.928 741.456 239.424C741.456 239.752 741.388 240.072 741.252 240.384C741.116 240.696 740.916 241.028 740.652 241.38C740.388 241.724 740.044 242.124 739.62 242.58L737.412 244.98H741.648V246H735.78ZM745.868 246.144C745.292 246.144 744.78 246.016 744.332 245.76C743.892 245.504 743.544 245.156 743.288 244.716C743.032 244.268 742.904 243.76 742.904 243.192C742.904 242.88 742.94 242.572 743.012 242.268C743.084 241.964 743.2 241.656 743.36 241.344C743.52 241.032 743.724 240.708 743.972 240.372L746.492 237.06H747.908L744.824 241.068L744.608 241.044C744.728 240.884 744.86 240.76 745.004 240.672C745.156 240.584 745.316 240.52 745.484 240.48C745.66 240.44 745.844 240.42 746.036 240.42C746.564 240.42 747.036 240.544 747.452 240.792C747.876 241.032 748.208 241.364 748.448 241.788C748.696 242.212 748.82 242.7 748.82 243.252C748.82 243.804 748.692 244.3 748.436 244.74C748.18 245.172 747.828 245.516 747.38 245.772C746.94 246.02 746.436 246.144 745.868 246.144ZM745.868 245.088C746.204 245.088 746.504 245.012 746.768 244.86C747.032 244.7 747.24 244.48 747.392 244.2C747.552 243.92 747.632 243.608 747.632 243.264C747.632 242.904 747.556 242.592 747.404 242.328C747.252 242.056 747.044 241.84 746.78 241.68C746.516 241.52 746.212 241.44 745.868 241.44C745.532 241.44 745.228 241.52 744.956 241.68C744.684 241.84 744.472 242.056 744.32 242.328C744.168 242.592 744.092 242.904 744.092 243.264C744.092 243.608 744.168 243.92 744.32 244.2C744.48 244.48 744.692 244.7 744.956 244.86C745.228 245.012 745.532 245.088 745.868 245.088Z" fill="#475569"/>
<path d="M792.456 246V245.184L794.928 242.508C795.416 241.988 795.804 241.56 796.092 241.224C796.388 240.888 796.604 240.588 796.74 240.324C796.876 240.06 796.944 239.78 796.944 239.484C796.944 238.996 796.8 238.62 796.512 238.356C796.224 238.092 795.844 237.96 795.372 237.96C794.892 237.96 794.484 238.1 794.148 238.38C793.812 238.652 793.58 239.04 793.452 239.544L792.384 239.268C792.488 238.788 792.68 238.372 792.96 238.02C793.24 237.668 793.588 237.396 794.004 237.204C794.42 237.012 794.876 236.916 795.372 236.916C795.916 236.916 796.392 237.024 796.8 237.24C797.216 237.448 797.54 237.74 797.772 238.116C798.012 238.492 798.132 238.928 798.132 239.424C798.132 239.752 798.064 240.072 797.928 240.384C797.792 240.696 797.592 241.028 797.328 241.38C797.064 241.724 796.72 242.124 796.296 242.58L794.088 244.98H798.324V246H792.456ZM802.711 246.144C802.111 246.144 801.579 246.024 801.115 245.784C800.659 245.544 800.299 245.22 800.035 244.812C799.779 244.396 799.651 243.932 799.651 243.42C799.651 242.844 799.811 242.34 800.131 241.908C800.451 241.476 800.891 241.168 801.451 240.984L801.427 241.284C801.003 241.116 800.671 240.848 800.431 240.48C800.199 240.104 800.083 239.7 800.083 239.268C800.083 238.812 800.195 238.408 800.419 238.056C800.651 237.704 800.963 237.428 801.355 237.228C801.755 237.02 802.207 236.916 802.711 236.916C803.215 236.916 803.663 237.016 804.055 237.216C804.447 237.416 804.755 237.696 804.979 238.056C805.211 238.408 805.327 238.812 805.327 239.268C805.327 239.724 805.203 240.132 804.955 240.492C804.715 240.852 804.395 241.12 803.995 241.296L803.959 240.984C804.527 241.168 804.971 241.48 805.291 241.92C805.611 242.352 805.771 242.852 805.771 243.42C805.771 243.932 805.639 244.396 805.375 244.812C805.119 245.22 804.759 245.544 804.295 245.784C803.839 246.024 803.311 246.144 802.711 246.144ZM802.711 245.124C803.087 245.124 803.415 245.052 803.695 244.908C803.975 244.764 804.191 244.564 804.343 244.308C804.503 244.044 804.583 243.744 804.583 243.408C804.583 243.064 804.503 242.764 804.343 242.508C804.191 242.244 803.975 242.044 803.695 241.908C803.415 241.764 803.087 241.692 802.711 241.692C802.335 241.692 802.003 241.764 801.715 241.908C801.435 242.044 801.219 242.244 801.067 242.508C800.915 242.764 800.839 243.064 800.839 243.408C800.839 243.744 800.915 244.044 801.067 244.308C801.219 244.564 801.435 244.764 801.715 244.908C802.003 245.052 802.335 245.124 802.711 245.124ZM802.711 240.672C802.983 240.672 803.223 240.612 803.431 240.492C803.647 240.372 803.819 240.212 803.947 240.012C804.075 239.804 804.139 239.564 804.139 239.292C804.139 239.02 804.075 238.784 803.947 238.584C803.819 238.384 803.647 238.228 803.431 238.116C803.223 237.996 802.983 237.936 802.711 237.936C802.431 237.936 802.183 237.996 801.967 238.116C801.751 238.228 801.579 238.384 801.451 238.584C801.323 238.784 801.259 239.02 801.259 239.292C801.259 239.564 801.323 239.804 801.451 240.012C801.579 240.212 801.751 240.372 801.967 240.492C802.183 240.612 802.431 240.672 802.711 240.672Z" fill="#475569"/>
<path d="M851.554 246.144C851.082 246.144 850.642 246.06 850.234 245.892C849.826 245.724 849.474 245.488 849.178 245.184C848.882 244.872 848.662 244.504 848.518 244.08L849.514 243.672C849.682 244.12 849.946 244.468 850.306 244.716C850.666 244.964 851.082 245.088 851.554 245.088C851.922 245.088 852.25 245.016 852.538 244.872C852.826 244.728 853.05 244.52 853.21 244.248C853.378 243.976 853.462 243.648 853.462 243.264C853.462 242.872 853.378 242.544 853.21 242.28C853.05 242.008 852.826 241.8 852.538 241.656C852.25 241.512 851.918 241.44 851.542 241.44C851.422 241.44 851.29 241.448 851.146 241.464C851.01 241.48 850.894 241.504 850.798 241.536L850.546 240.996L852.934 238.08H848.974V237.06H854.266V238.044L851.986 240.852L851.914 240.54C852.45 240.556 852.922 240.68 853.33 240.912C853.738 241.144 854.058 241.46 854.29 241.86C854.522 242.252 854.638 242.712 854.638 243.24C854.638 243.784 854.506 244.276 854.242 244.716C853.978 245.156 853.614 245.504 853.15 245.76C852.686 246.016 852.154 246.144 851.554 246.144ZM859.646 246.144C858.934 246.144 858.31 245.952 857.774 245.568C857.246 245.176 856.834 244.636 856.538 243.948C856.242 243.252 856.094 242.444 856.094 241.524C856.094 240.604 856.242 239.8 856.538 239.112C856.834 238.416 857.246 237.876 857.774 237.492C858.302 237.108 858.922 236.916 859.634 236.916C860.346 236.916 860.966 237.108 861.494 237.492C862.022 237.876 862.434 238.416 862.73 239.112C863.034 239.8 863.186 240.604 863.186 241.524C863.186 242.444 863.038 243.252 862.742 243.948C862.446 244.644 862.03 245.184 861.494 245.568C860.966 245.952 860.35 246.144 859.646 246.144ZM859.646 245.052C860.126 245.052 860.542 244.908 860.894 244.62C861.246 244.324 861.518 243.912 861.71 243.384C861.91 242.856 862.01 242.236 862.01 241.524C862.01 240.812 861.91 240.192 861.71 239.664C861.518 239.136 861.242 238.728 860.882 238.44C860.53 238.152 860.114 238.008 859.634 238.008C859.154 238.008 858.738 238.152 858.386 238.44C858.034 238.728 857.758 239.136 857.558 239.664C857.366 240.192 857.27 240.812 857.27 241.524C857.27 242.228 857.366 242.844 857.558 243.372C857.758 243.9 858.034 244.312 858.386 244.608C858.746 244.904 859.166 245.052 859.646 245.052Z" fill="#475569"/>
<g filter="url(#filter0_dd_5647_21237)">
<rect x="156" y="46" width="52" height="44" rx="16" fill="#1E293B"/>
<path d="M169.31 74L173.524 65.39H168.708V63.57H175.806V65.39L171.718 74H169.31ZM181.048 74.168C180.218 74.168 179.485 73.944 178.85 73.496C178.225 73.048 177.735 72.418 177.38 71.606C177.026 70.794 176.848 69.8513 176.848 68.778C176.848 67.6953 177.021 66.7527 177.366 65.95C177.721 65.1473 178.211 64.522 178.836 64.074C179.471 63.626 180.204 63.402 181.034 63.402C181.884 63.402 182.621 63.626 183.246 64.074C183.881 64.522 184.371 65.152 184.716 65.964C185.071 66.7667 185.248 67.7047 185.248 68.778C185.248 69.8513 185.071 70.794 184.716 71.606C184.371 72.4087 183.881 73.0387 183.246 73.496C182.621 73.944 181.888 74.168 181.048 74.168ZM181.062 72.208C181.492 72.208 181.856 72.0727 182.154 71.802C182.453 71.5313 182.682 71.1393 182.84 70.626C182.999 70.1127 183.078 69.4967 183.078 68.778C183.078 68.0593 182.999 67.448 182.84 66.944C182.682 66.4307 182.448 66.0387 182.14 65.768C181.842 65.4973 181.473 65.362 181.034 65.362C180.605 65.362 180.241 65.4973 179.942 65.768C179.644 66.0387 179.415 66.4307 179.256 66.944C179.098 67.448 179.018 68.0593 179.018 68.778C179.018 69.4873 179.098 70.0987 179.256 70.612C179.415 71.1253 179.644 71.522 179.942 71.802C180.25 72.0727 180.624 72.208 181.062 72.208ZM190.767 74.168C189.937 74.168 189.204 73.944 188.569 73.496C187.944 73.048 187.454 72.418 187.099 71.606C186.745 70.794 186.567 69.8513 186.567 68.778C186.567 67.6953 186.74 66.7527 187.085 65.95C187.44 65.1473 187.93 64.522 188.555 64.074C189.19 63.626 189.923 63.402 190.753 63.402C191.603 63.402 192.34 63.626 192.965 64.074C193.6 64.522 194.09 65.152 194.435 65.964C194.79 66.7667 194.967 67.7047 194.967 68.778C194.967 69.8513 194.79 70.794 194.435 71.606C194.09 72.4087 193.6 73.0387 192.965 73.496C192.34 73.944 191.607 74.168 190.767 74.168ZM190.781 72.208C191.211 72.208 191.575 72.0727 191.873 71.802C192.172 71.5313 192.401 71.1393 192.559 70.626C192.718 70.1127 192.797 69.4967 192.797 68.778C192.797 68.0593 192.718 67.448 192.559 66.944C192.401 66.4307 192.167 66.0387 191.859 65.768C191.561 65.4973 191.192 65.362 190.753 65.362C190.324 65.362 189.96 65.4973 189.661 65.768C189.363 66.0387 189.134 66.4307 188.975 66.944C188.817 67.448 188.737 68.0593 188.737 68.778C188.737 69.4873 188.817 70.0987 188.975 70.612C189.134 71.1253 189.363 71.522 189.661 71.802C189.969 72.0727 190.343 72.208 190.781 72.208Z" fill="white"/>
<g clip-path="url(#clip0_5647_21237)">
<path d="M180.586 96.5858L174 90L182 82L190 90L183.414 96.5858C182.633 97.3668 181.367 97.3668 180.586 96.5858Z" fill="#1E293B"/>
</g>
</g>
<g filter="url(#filter1_dd_5647_21237)">
<rect x="657" width="51" height="44" rx="16" fill="#1E293B"/>
<path d="M670.448 28L673.962 23.506L674.312 23.996C674.181 24.052 674.055 24.1033 673.934 24.15C673.822 24.1873 673.705 24.2153 673.584 24.234C673.463 24.2527 673.337 24.262 673.206 24.262C672.562 24.262 671.988 24.1173 671.484 23.828C670.989 23.5387 670.597 23.1467 670.308 22.652C670.028 22.148 669.888 21.5833 669.888 20.958C669.888 20.2673 670.047 19.656 670.364 19.124C670.681 18.592 671.12 18.172 671.68 17.864C672.24 17.556 672.879 17.402 673.598 17.402C674.326 17.402 674.965 17.556 675.516 17.864C676.076 18.1627 676.515 18.5733 676.832 19.096C677.149 19.6093 677.308 20.1973 677.308 20.86C677.308 21.1867 677.275 21.5133 677.21 21.84C677.145 22.1667 677.014 22.526 676.818 22.918C676.622 23.3007 676.328 23.7487 675.936 24.262L673.038 28H670.448ZM673.598 22.484C673.887 22.484 674.144 22.4187 674.368 22.288C674.601 22.1573 674.788 21.9753 674.928 21.742C675.068 21.5087 675.138 21.238 675.138 20.93C675.138 20.6127 675.068 20.3373 674.928 20.104C674.788 19.8707 674.601 19.6887 674.368 19.558C674.144 19.4273 673.887 19.362 673.598 19.362C673.318 19.362 673.061 19.4273 672.828 19.558C672.595 19.6887 672.408 19.8707 672.268 20.104C672.128 20.3373 672.058 20.6127 672.058 20.93C672.058 21.238 672.128 21.5087 672.268 21.742C672.408 21.9753 672.595 22.1573 672.828 22.288C673.061 22.4187 673.318 22.484 673.598 22.484ZM682.653 28V25.76H678.033V23.94L682.513 17.57H684.823V23.94H686.433V25.76H684.823V28H682.653ZM679.615 24.724L679.209 23.94H682.653V19.25L683.199 19.418L679.615 24.724ZM691.194 28.168C690.41 28.168 689.734 28.0233 689.164 27.734C688.604 27.4447 688.175 27.0573 687.876 26.572C687.578 26.0867 687.428 25.5593 687.428 24.99C687.428 24.3087 687.606 23.7393 687.96 23.282C688.324 22.8247 688.856 22.4793 689.556 22.246L689.416 22.778C688.922 22.6287 688.525 22.3207 688.226 21.854C687.937 21.3873 687.792 20.8693 687.792 20.3C687.792 19.74 687.937 19.2407 688.226 18.802C688.516 18.3633 688.917 18.0227 689.43 17.78C689.944 17.528 690.532 17.402 691.194 17.402C691.857 17.402 692.44 17.528 692.944 17.78C693.458 18.0227 693.859 18.3633 694.148 18.802C694.447 19.2407 694.596 19.74 694.596 20.3C694.596 20.8693 694.452 21.3873 694.162 21.854C693.873 22.3207 693.476 22.6333 692.972 22.792L692.846 22.232C693.546 22.4933 694.078 22.8527 694.442 23.31C694.806 23.758 694.988 24.3227 694.988 25.004C694.988 25.5733 694.834 26.1007 694.526 26.586C694.228 27.062 693.794 27.4447 693.224 27.734C692.655 28.0233 691.978 28.168 691.194 28.168ZM691.194 26.348C691.521 26.348 691.806 26.2873 692.048 26.166C692.291 26.0447 692.478 25.8767 692.608 25.662C692.748 25.4473 692.818 25.2 692.818 24.92C692.818 24.6307 692.748 24.3833 692.608 24.178C692.478 23.9633 692.291 23.8 692.048 23.688C691.806 23.5667 691.521 23.506 691.194 23.506C690.877 23.506 690.597 23.5667 690.354 23.688C690.121 23.8 689.934 23.9633 689.794 24.178C689.664 24.3833 689.598 24.6307 689.598 24.92C689.598 25.2 689.664 25.4473 689.794 25.662C689.934 25.8767 690.121 26.0447 690.354 26.166C690.597 26.2873 690.877 26.348 691.194 26.348ZM691.194 21.686C691.446 21.686 691.661 21.63 691.838 21.518C692.025 21.406 692.17 21.2567 692.272 21.07C692.375 20.8833 692.426 20.678 692.426 20.454C692.426 20.2207 692.375 20.0107 692.272 19.824C692.17 19.6373 692.025 19.4927 691.838 19.39C691.661 19.278 691.446 19.222 691.194 19.222C690.952 19.222 690.737 19.278 690.55 19.39C690.364 19.4927 690.219 19.6373 690.116 19.824C690.014 20.0107 689.962 20.2207 689.962 20.454C689.962 20.678 690.014 20.8833 690.116 21.07C690.219 21.2567 690.364 21.406 690.55 21.518C690.737 21.63 690.952 21.686 691.194 21.686Z" fill="white"/>
<g clip-path="url(#clip1_5647_21237)">
<path d="M681.086 50.5858L674.5 44L682.5 36L690.5 44L683.914 50.5858C683.133 51.3668 681.867 51.3668 681.086 50.5858Z" fill="#1E293B"/>
</g>
</g>
<defs>
<filter id="filter0_dd_5647_21237" x="144" y="46" width="76" height="76" filterUnits="userSpaceOnUse" color-interpolation-filters="sRGB">
<feFlood flood-opacity="0" result="BackgroundImageFix"/>
<feColorMatrix in="SourceAlpha" type="matrix" values="0 0 0 0 0 0 0 0 0 0 0 0 0 0 0 0 0 0 127 0" result="hardAlpha"/>
<feMorphology radius="2" operator="erode" in="SourceAlpha" result="effect1_dropShadow_5647_21237"/>
<feOffset dy="4"/>
<feGaussianBlur stdDeviation="3"/>
<feColorMatrix type="matrix" values="0 0 0 0 0.0627451 0 0 0 0 0.0941176 0 0 0 0 0.156863 0 0 0 0.03 0"/>
<feBlend mode="normal" in2="BackgroundImageFix" result="effect1_dropShadow_5647_21237"/>
<feColorMatrix in="SourceAlpha" type="matrix" values="0 0 0 0 0 0 0 0 0 0 0 0 0 0 0 0 0 0 127 0" result="hardAlpha"/>
<feMorphology radius="4" operator="erode" in="SourceAlpha" result="effect2_dropShadow_5647_21237"/>
<feOffset dy="12"/>
<feGaussianBlur stdDeviation="8"/>
<feColorMatrix type="matrix" values="0 0 0 0 0.0627451 0 0 0 0 0.0941176 0 0 0 0 0.156863 0 0 0 0.08 0"/>
<feBlend mode="normal" in2="effect1_dropShadow_5647_21237" result="effect2_dropShadow_5647_21237"/>
<feBlend mode="normal" in="SourceGraphic" in2="effect2_dropShadow_5647_21237" result="shape"/>
</filter>
<filter id="filter1_dd_5647_21237" x="645" y="0" width="75" height="76" filterUnits="userSpaceOnUse" color-interpolation-filters="sRGB">
<feFlood flood-opacity="0" result="BackgroundImageFix"/>
<feColorMatrix in="SourceAlpha" type="matrix" values="0 0 0 0 0 0 0 0 0 0 0 0 0 0 0 0 0 0 127 0" result="hardAlpha"/>
<feMorphology radius="2" operator="erode" in="SourceAlpha" result="effect1_dropShadow_5647_21237"/>
<feOffset dy="4"/>
<feGaussianBlur stdDeviation="3"/>
<feColorMatrix type="matrix" values="0 0 0 0 0.0627451 0 0 0 0 0.0941176 0 0 0 0 0.156863 0 0 0 0.03 0"/>
<feBlend mode="normal" in2="BackgroundImageFix" result="effect1_dropShadow_5647_21237"/>
<feColorMatrix in="SourceAlpha" type="matrix" values="0 0 0 0 0 0 0 0 0 0 0 0 0 0 0 0 0 0 127 0" result="hardAlpha"/>
<feMorphology radius="4" operator="erode" in="SourceAlpha" result="effect2_dropShadow_5647_21237"/>
<feOffset dy="12"/>
<feGaussianBlur stdDeviation="8"/>
<feColorMatrix type="matrix" values="0 0 0 0 0.0627451 0 0 0 0 0.0941176 0 0 0 0 0.156863 0 0 0 0.08 0"/>
<feBlend mode="normal" in2="effect1_dropShadow_5647_21237" result="effect2_dropShadow_5647_21237"/>
<feBlend mode="normal" in="SourceGraphic" in2="effect2_dropShadow_5647_21237" result="shape"/>
</filter>
<linearGradient id="paint0_linear_5647_21237" x1="474" y1="223" x2="474" y2="63.6013" gradientUnits="userSpaceOnUse">
<stop stop-color="#4F46E5" stop-opacity="0"/>
<stop offset="1" stop-color="#4F46E5"/>
</linearGradient>
<linearGradient id="paint1_linear_5647_21237" x1="474" y1="41" x2="474" y2="223" gradientUnits="userSpaceOnUse">
<stop stop-color="#4F46E5"/>
<stop offset="1" stop-color="#4F46E5" stop-opacity="0"/>
</linearGradient>
<clipPath id="clip0_5647_21237">
<rect width="16" height="8" fill="white" transform="translate(174 90)"/>
</clipPath>
<clipPath id="clip1_5647_21237">
<rect width="16" height="8" fill="white" transform="translate(674.5 44)"/>
</clipPath>
</defs>
</svg>
