<svg width="343" height="196" viewBox="0 0 343 196" fill="none" xmlns="http://www.w3.org/2000/svg">
<path d="M16 10H331" stroke="#CBD5E1"/>
<path d="M16 42H331" stroke="#CBD5E1"/>
<path d="M16 74H331" stroke="#CBD5E1"/>
<path d="M16 106H331" stroke="#CBD5E1"/>
<path d="M16 138H331" stroke="#CBD5E1"/>
<path d="M16 170H331" stroke="#CBD5E1"/>
<path d="M26 104C26 97.3726 31.3726 92 38 92C44.6274 92 50 97.3726 50 104V170H26V104Z" fill="#A5B4FC"/>
<path d="M26 126.75C26 120.123 31.3726 114.75 38 114.75C44.6274 114.75 50 120.123 50 126.75V170H26V126.75Z" fill="#6366F1"/>
<path d="M26 152.75C26 146.123 31.3726 140.75 38 140.75C44.6274 140.75 50 146.123 50 152.75V170H26V152.75Z" fill="#4338CA"/>
<path d="M70.6665 44C70.6665 37.3726 76.0391 32 82.6665 32C89.2939 32 94.6665 37.3726 94.6665 44V170H70.6665V44Z" fill="#A5B4FC"/>
<path d="M70.6665 84.25C70.6665 77.6226 76.0391 72.25 82.6665 72.25C89.2939 72.25 94.6665 77.6226 94.6665 84.25V170H70.6665V84.25Z" fill="#6366F1"/>
<path d="M70.6665 130.25C70.6665 123.623 76.0391 118.25 82.6665 118.25C89.2939 118.25 94.6665 123.623 94.6665 130.25V170H70.6665V130.25Z" fill="#4338CA"/>
<path d="M115.333 123C115.333 116.373 120.706 111 127.333 111C133.961 111 139.333 116.373 139.333 123V170H115.333V123Z" fill="#A5B4FC"/>
<path d="M115.333 140.208C115.333 133.581 120.706 128.208 127.333 128.208C133.961 128.208 139.333 133.581 139.333 140.208V170H115.333V140.208Z" fill="#6366F1"/>
<path d="M115.333 159.875C115.333 153.248 120.706 147.875 127.333 147.875C133.961 147.875 139.333 153.248 139.333 159.875V170H115.333V159.875Z" fill="#4338CA"/>
<path d="M160 68C160 61.3726 165.373 56 172 56C178.627 56 184 61.3726 184 68V170H160V68Z" fill="#A5B4FC"/>
<path d="M160 101.25C160 94.6226 165.373 89.25 172 89.25C178.627 89.25 184 94.6226 184 101.25V170H160V101.25Z" fill="#6366F1"/>
<path d="M160 139.25C160 132.623 165.373 127.25 172 127.25C178.627 127.25 184 132.623 184 139.25V170H160V139.25Z" fill="#4338CA"/>
<path d="M204.667 32C204.667 25.3726 210.039 20 216.667 20C223.294 20 228.667 25.3726 228.667 32V170H204.667V32Z" fill="#A5B4FC"/>
<path d="M204.667 75.75C204.667 69.1226 210.039 63.75 216.667 63.75C223.294 63.75 228.667 69.1226 228.667 75.75V170H204.667V75.75Z" fill="#6366F1"/>
<path d="M204.667 125.75C204.667 119.123 210.039 113.75 216.667 113.75C223.294 113.75 228.667 119.123 228.667 125.75V170H204.667V125.75Z" fill="#4338CA"/>
<path d="M249.333 64C249.333 57.3726 254.706 52 261.333 52C267.961 52 273.333 57.3726 273.333 64V170H249.333V64Z" fill="#A5B4FC"/>
<path d="M249.333 98.4167C249.333 91.7893 254.706 86.4167 261.333 86.4167C267.961 86.4167 273.333 91.7893 273.333 98.4167V170H249.333V98.4167Z" fill="#6366F1"/>
<path d="M249.333 137.75C249.333 131.123 254.706 125.75 261.333 125.75C267.961 125.75 273.333 131.123 273.333 137.75V170H249.333V137.75Z" fill="#4338CA"/>
<path d="M294 110C294 103.373 299.373 98 306 98C312.627 98 318 103.373 318 110V170H294V110Z" fill="#A5B4FC"/>
<path d="M294 131C294 124.373 299.373 119 306 119C312.627 119 318 124.373 318 131V170H294V131Z" fill="#6366F1"/>
<path d="M294 155C294 148.373 299.373 143 306 143C312.627 143 318 148.373 318 155V170H294V155Z" fill="#4338CA"/>
<path d="M26.7312 193V184.06H27.8112L31.1592 188.824H30.6072L33.9312 184.06H35.0112V193H33.8232V185.548L34.2432 185.68L30.9192 190.36H30.8232L27.5352 185.68L27.9072 185.548V193H26.7312ZM39.8768 193.144C39.2528 193.144 38.6888 193 38.1848 192.712C37.6808 192.416 37.2808 192.012 36.9848 191.5C36.6888 190.988 36.5408 190.408 36.5408 189.76C36.5408 189.112 36.6848 188.536 36.9728 188.032C37.2688 187.528 37.6688 187.128 38.1728 186.832C38.6768 186.536 39.2448 186.388 39.8768 186.388C40.5008 186.388 41.0648 186.536 41.5688 186.832C42.0728 187.12 42.4688 187.516 42.7568 188.02C43.0528 188.524 43.2008 189.104 43.2008 189.76C43.2008 190.416 43.0488 191 42.7448 191.512C42.4408 192.016 42.0368 192.416 41.5328 192.712C41.0368 193 40.4848 193.144 39.8768 193.144ZM39.8768 192.064C40.2768 192.064 40.6368 191.964 40.9568 191.764C41.2848 191.564 41.5408 191.288 41.7248 190.936C41.9168 190.584 42.0128 190.192 42.0128 189.76C42.0128 189.32 41.9168 188.932 41.7248 188.596C41.5408 188.252 41.2848 187.98 40.9568 187.78C40.6368 187.572 40.2768 187.468 39.8768 187.468C39.4688 187.468 39.1008 187.572 38.7728 187.78C38.4528 187.98 38.1968 188.252 38.0048 188.596C37.8128 188.932 37.7168 189.32 37.7168 189.76C37.7168 190.192 37.8128 190.584 38.0048 190.936C38.1968 191.288 38.4528 191.564 38.7728 191.764C39.1008 191.964 39.4688 192.064 39.8768 192.064ZM44.5964 193V186.532H45.6884V187.792L45.5084 187.684C45.6684 187.276 45.9244 186.96 46.2764 186.736C46.6364 186.504 47.0564 186.388 47.5364 186.388C48.0004 186.388 48.4124 186.492 48.7724 186.7C49.1404 186.908 49.4284 187.196 49.6364 187.564C49.8524 187.932 49.9604 188.348 49.9604 188.812V193H48.8324V189.172C48.8324 188.812 48.7684 188.508 48.6404 188.26C48.5124 188.012 48.3284 187.82 48.0884 187.684C47.8564 187.54 47.5884 187.468 47.2844 187.468C46.9804 187.468 46.7084 187.54 46.4684 187.684C46.2364 187.82 46.0524 188.016 45.9164 188.272C45.7804 188.52 45.7124 188.82 45.7124 189.172V193H44.5964Z" fill="#475569"/>
<path d="M75.1985 193V185.14H72.7745V184.06H78.7745V185.14H76.3865V193H75.1985ZM81.5275 193.144C81.0635 193.144 80.6435 193.036 80.2675 192.82C79.8995 192.604 79.6115 192.304 79.4035 191.92C79.2035 191.528 79.1035 191.08 79.1035 190.576V186.532H80.2195V190.456C80.2195 190.776 80.2835 191.056 80.4115 191.296C80.5475 191.536 80.7315 191.724 80.9635 191.86C81.2035 191.996 81.4755 192.064 81.7795 192.064C82.0835 192.064 82.3515 191.996 82.5835 191.86C82.8235 191.724 83.0075 191.528 83.1355 191.272C83.2715 191.016 83.3395 190.712 83.3395 190.36V186.532H84.4675V193H83.3755V191.74L83.5555 191.848C83.4035 192.256 83.1435 192.576 82.7755 192.808C82.4155 193.032 81.9995 193.144 81.5275 193.144ZM89.1125 193.144C88.4885 193.144 87.9325 192.996 87.4445 192.7C86.9565 192.404 86.5725 192 86.2925 191.488C86.0125 190.968 85.8725 190.388 85.8725 189.748C85.8725 189.1 86.0085 188.524 86.2805 188.02C86.5605 187.516 86.9365 187.12 87.4085 186.832C87.8885 186.536 88.4245 186.388 89.0165 186.388C89.4965 186.388 89.9205 186.476 90.2885 186.652C90.6645 186.82 90.9805 187.052 91.2365 187.348C91.5005 187.636 91.7005 187.968 91.8365 188.344C91.9805 188.712 92.0525 189.096 92.0525 189.496C92.0525 189.584 92.0445 189.684 92.0285 189.796C92.0205 189.9 92.0085 190 91.9925 190.096H86.6885V189.136H91.3445L90.8165 189.568C90.8885 189.152 90.8485 188.78 90.6965 188.452C90.5445 188.124 90.3205 187.864 90.0245 187.672C89.7285 187.48 89.3925 187.384 89.0165 187.384C88.6405 187.384 88.2965 187.48 87.9845 187.672C87.6725 187.864 87.4285 188.14 87.2525 188.5C87.0845 188.852 87.0165 189.272 87.0485 189.76C87.0165 190.232 87.0885 190.648 87.2645 191.008C87.4485 191.36 87.7045 191.636 88.0325 191.836C88.3685 192.028 88.7325 192.124 89.1245 192.124C89.5565 192.124 89.9205 192.024 90.2165 191.824C90.5125 191.624 90.7525 191.368 90.9365 191.056L91.8725 191.536C91.7445 191.832 91.5445 192.104 91.2725 192.352C91.0085 192.592 90.6925 192.784 90.3245 192.928C89.9645 193.072 89.5605 193.144 89.1125 193.144Z" fill="#475569"/>
<path d="M116.318 193L113.81 184.06H115.046L117.146 191.932H116.858L119.042 184.06H120.278L122.45 191.932H122.15L124.262 184.06H125.498L122.99 193H121.682L119.498 185.164H119.81L117.626 193H116.318ZM128.966 193.144C128.342 193.144 127.786 192.996 127.298 192.7C126.81 192.404 126.426 192 126.146 191.488C125.866 190.968 125.726 190.388 125.726 189.748C125.726 189.1 125.862 188.524 126.134 188.02C126.414 187.516 126.79 187.12 127.262 186.832C127.742 186.536 128.278 186.388 128.87 186.388C129.35 186.388 129.774 186.476 130.142 186.652C130.518 186.82 130.834 187.052 131.09 187.348C131.354 187.636 131.554 187.968 131.69 188.344C131.834 188.712 131.906 189.096 131.906 189.496C131.906 189.584 131.898 189.684 131.882 189.796C131.874 189.9 131.862 190 131.846 190.096H126.542V189.136H131.198L130.67 189.568C130.742 189.152 130.702 188.78 130.55 188.452C130.398 188.124 130.174 187.864 129.878 187.672C129.582 187.48 129.246 187.384 128.87 187.384C128.494 187.384 128.15 187.48 127.838 187.672C127.526 187.864 127.282 188.14 127.106 188.5C126.938 188.852 126.87 189.272 126.902 189.76C126.87 190.232 126.942 190.648 127.118 191.008C127.302 191.36 127.558 191.636 127.886 191.836C128.222 192.028 128.586 192.124 128.978 192.124C129.41 192.124 129.774 192.024 130.07 191.824C130.366 191.624 130.606 191.368 130.79 191.056L131.726 191.536C131.598 191.832 131.398 192.104 131.126 192.352C130.862 192.592 130.546 192.784 130.178 192.928C129.818 193.072 129.414 193.144 128.966 193.144ZM136.241 193.144C135.633 193.144 135.085 192.996 134.597 192.7C134.117 192.404 133.737 192 133.457 191.488C133.177 190.976 133.037 190.404 133.037 189.772C133.037 189.124 133.177 188.548 133.457 188.044C133.737 187.532 134.117 187.128 134.597 186.832C135.085 186.536 135.633 186.388 136.241 186.388C136.777 186.388 137.253 186.504 137.669 186.736C138.085 186.96 138.413 187.264 138.653 187.648L138.473 187.924V183.916H139.601V193H138.509V191.62L138.653 191.812C138.429 192.236 138.101 192.564 137.669 192.796C137.245 193.028 136.769 193.144 136.241 193.144ZM136.337 192.064C136.745 192.064 137.109 191.964 137.429 191.764C137.749 191.564 138.001 191.292 138.185 190.948C138.377 190.596 138.473 190.204 138.473 189.772C138.473 189.332 138.377 188.94 138.185 188.596C138.001 188.244 137.749 187.968 137.429 187.768C137.109 187.568 136.745 187.468 136.337 187.468C135.937 187.468 135.573 187.572 135.245 187.78C134.925 187.98 134.673 188.252 134.489 188.596C134.305 188.932 134.213 189.324 134.213 189.772C134.213 190.204 134.305 190.596 134.489 190.948C134.673 191.292 134.925 191.564 135.245 191.764C135.565 191.964 135.929 192.064 136.337 192.064Z" fill="#475569"/>
<path d="M164.02 193V185.14H161.596V184.06H167.596V185.14H165.208V193H164.02ZM168.538 193V183.916H169.654V187.792L169.45 187.684C169.61 187.276 169.866 186.96 170.218 186.736C170.578 186.504 170.998 186.388 171.478 186.388C171.942 186.388 172.354 186.492 172.714 186.7C173.082 186.908 173.37 187.196 173.578 187.564C173.794 187.932 173.902 188.348 173.902 188.812V193H172.774V189.172C172.774 188.812 172.706 188.508 172.57 188.26C172.442 188.012 172.262 187.82 172.03 187.684C171.798 187.54 171.53 187.468 171.226 187.468C170.93 187.468 170.662 187.54 170.422 187.684C170.182 187.82 169.994 188.016 169.858 188.272C169.722 188.52 169.654 188.82 169.654 189.172V193H168.538ZM177.731 193.144C177.267 193.144 176.847 193.036 176.471 192.82C176.103 192.604 175.815 192.304 175.607 191.92C175.407 191.528 175.307 191.08 175.307 190.576V186.532H176.423V190.456C176.423 190.776 176.487 191.056 176.615 191.296C176.751 191.536 176.935 191.724 177.167 191.86C177.407 191.996 177.679 192.064 177.983 192.064C178.287 192.064 178.555 191.996 178.787 191.86C179.027 191.724 179.211 191.528 179.339 191.272C179.475 191.016 179.543 190.712 179.543 190.36V186.532H180.671V193H179.579V191.74L179.759 191.848C179.607 192.256 179.347 192.576 178.979 192.808C178.619 193.032 178.203 193.144 177.731 193.144Z" fill="#475569"/>
<path d="M210.147 193V184.06H215.811V185.14H211.323V188.032H215.391V189.112H211.323V193H210.147ZM216.588 193V186.532H217.68V187.72L217.56 187.552C217.712 187.184 217.944 186.912 218.256 186.736C218.568 186.552 218.948 186.46 219.396 186.46H219.792V187.516H219.228C218.772 187.516 218.404 187.66 218.124 187.948C217.844 188.228 217.704 188.628 217.704 189.148V193H216.588ZM220.723 193V186.532H221.839V193H220.723ZM220.723 185.5V184.06H221.839V185.5H220.723Z" fill="#475569"/>
<path d="M254.923 193.144C254.355 193.144 253.835 193.04 253.363 192.832C252.891 192.616 252.491 192.324 252.163 191.956C251.835 191.588 251.599 191.176 251.455 190.72L252.475 190.3C252.691 190.876 253.011 191.32 253.435 191.632C253.867 191.936 254.371 192.088 254.947 192.088C255.299 192.088 255.607 192.032 255.871 191.92C256.135 191.808 256.339 191.652 256.483 191.452C256.635 191.244 256.711 191.004 256.711 190.732C256.711 190.356 256.603 190.06 256.387 189.844C256.179 189.62 255.871 189.452 255.463 189.34L253.819 188.836C253.171 188.636 252.675 188.32 252.331 187.888C251.987 187.456 251.815 186.96 251.815 186.4C251.815 185.912 251.931 185.484 252.163 185.116C252.403 184.74 252.731 184.448 253.147 184.24C253.571 184.024 254.051 183.916 254.587 183.916C255.123 183.916 255.607 184.012 256.039 184.204C256.479 184.396 256.851 184.656 257.155 184.984C257.459 185.304 257.683 185.672 257.827 186.088L256.819 186.508C256.627 186.004 256.339 185.624 255.955 185.368C255.571 185.104 255.119 184.972 254.599 184.972C254.279 184.972 253.995 185.028 253.747 185.14C253.507 185.244 253.319 185.4 253.183 185.608C253.055 185.808 252.991 186.048 252.991 186.328C252.991 186.656 253.095 186.948 253.303 187.204C253.511 187.46 253.827 187.656 254.251 187.792L255.751 188.236C256.455 188.452 256.987 188.76 257.347 189.16C257.707 189.56 257.887 190.056 257.887 190.648C257.887 191.136 257.759 191.568 257.503 191.944C257.255 192.32 256.907 192.616 256.459 192.832C256.019 193.04 255.507 193.144 254.923 193.144ZM261.137 193.144C260.713 193.144 260.337 193.068 260.009 192.916C259.689 192.756 259.437 192.54 259.253 192.268C259.069 191.988 258.977 191.668 258.977 191.308C258.977 190.964 259.049 190.656 259.193 190.384C259.345 190.104 259.577 189.868 259.889 189.676C260.209 189.484 260.609 189.348 261.089 189.268L263.489 188.872V189.808L261.341 190.168C260.925 190.24 260.621 190.372 260.429 190.564C260.245 190.756 260.153 190.992 260.153 191.272C260.153 191.536 260.257 191.756 260.465 191.932C260.681 192.108 260.949 192.196 261.269 192.196C261.677 192.196 262.029 192.112 262.325 191.944C262.629 191.768 262.865 191.532 263.033 191.236C263.209 190.94 263.297 190.612 263.297 190.252V188.608C263.297 188.256 263.165 187.972 262.901 187.756C262.645 187.532 262.305 187.42 261.881 187.42C261.513 187.42 261.185 187.516 260.897 187.708C260.617 187.892 260.409 188.14 260.273 188.452L259.301 187.948C259.421 187.652 259.613 187.388 259.877 187.156C260.141 186.916 260.449 186.728 260.801 186.592C261.153 186.456 261.521 186.388 261.905 186.388C262.401 186.388 262.837 186.484 263.213 186.676C263.589 186.86 263.881 187.12 264.089 187.456C264.305 187.784 264.413 188.168 264.413 188.608V193H263.321V191.776L263.525 191.848C263.389 192.104 263.205 192.328 262.973 192.52C262.741 192.712 262.469 192.864 262.157 192.976C261.845 193.088 261.505 193.144 261.137 193.144ZM268.594 193.072C267.962 193.072 267.474 192.892 267.13 192.532C266.794 192.172 266.626 191.664 266.626 191.008V187.6H265.45V186.532H265.69C265.978 186.532 266.206 186.444 266.374 186.268C266.542 186.092 266.626 185.86 266.626 185.572V185.044H267.742V186.532H269.194V187.6H267.742V190.972C267.742 191.188 267.774 191.376 267.838 191.536C267.91 191.696 268.026 191.824 268.186 191.92C268.346 192.008 268.558 192.052 268.822 192.052C268.878 192.052 268.946 192.048 269.026 192.04C269.114 192.032 269.194 192.024 269.266 192.016V193C269.162 193.024 269.046 193.04 268.918 193.048C268.79 193.064 268.682 193.072 268.594 193.072Z" fill="#475569"/>
<path d="M298.074 193.144C297.506 193.144 296.986 193.04 296.514 192.832C296.042 192.616 295.642 192.324 295.314 191.956C294.986 191.588 294.75 191.176 294.606 190.72L295.626 190.3C295.842 190.876 296.162 191.32 296.586 191.632C297.018 191.936 297.522 192.088 298.098 192.088C298.45 192.088 298.758 192.032 299.022 191.92C299.286 191.808 299.49 191.652 299.634 191.452C299.786 191.244 299.862 191.004 299.862 190.732C299.862 190.356 299.754 190.06 299.538 189.844C299.33 189.62 299.022 189.452 298.614 189.34L296.97 188.836C296.322 188.636 295.826 188.32 295.482 187.888C295.138 187.456 294.966 186.96 294.966 186.4C294.966 185.912 295.082 185.484 295.314 185.116C295.554 184.74 295.882 184.448 296.298 184.24C296.722 184.024 297.202 183.916 297.738 183.916C298.274 183.916 298.758 184.012 299.19 184.204C299.63 184.396 300.002 184.656 300.306 184.984C300.61 185.304 300.834 185.672 300.978 186.088L299.97 186.508C299.778 186.004 299.49 185.624 299.106 185.368C298.722 185.104 298.27 184.972 297.75 184.972C297.43 184.972 297.146 185.028 296.898 185.14C296.658 185.244 296.47 185.4 296.334 185.608C296.206 185.808 296.142 186.048 296.142 186.328C296.142 186.656 296.246 186.948 296.454 187.204C296.662 187.46 296.978 187.656 297.402 187.792L298.902 188.236C299.606 188.452 300.138 188.76 300.498 189.16C300.858 189.56 301.038 190.056 301.038 190.648C301.038 191.136 300.91 191.568 300.654 191.944C300.406 192.32 300.058 192.616 299.61 192.832C299.17 193.04 298.658 193.144 298.074 193.144ZM304.86 193.144C304.396 193.144 303.976 193.036 303.6 192.82C303.232 192.604 302.944 192.304 302.736 191.92C302.536 191.528 302.436 191.08 302.436 190.576V186.532H303.552V190.456C303.552 190.776 303.616 191.056 303.744 191.296C303.88 191.536 304.064 191.724 304.296 191.86C304.536 191.996 304.808 192.064 305.112 192.064C305.416 192.064 305.684 191.996 305.916 191.86C306.156 191.724 306.34 191.528 306.468 191.272C306.604 191.016 306.672 190.712 306.672 190.36V186.532H307.8V193H306.708V191.74L306.888 191.848C306.736 192.256 306.476 192.576 306.108 192.808C305.748 193.032 305.332 193.144 304.86 193.144ZM309.468 193V186.532H310.56V187.792L310.38 187.684C310.54 187.276 310.796 186.96 311.148 186.736C311.508 186.504 311.928 186.388 312.408 186.388C312.872 186.388 313.284 186.492 313.644 186.7C314.012 186.908 314.3 187.196 314.508 187.564C314.724 187.932 314.832 188.348 314.832 188.812V193H313.704V189.172C313.704 188.812 313.64 188.508 313.512 188.26C313.384 188.012 313.2 187.82 312.96 187.684C312.728 187.54 312.46 187.468 312.156 187.468C311.852 187.468 311.58 187.54 311.34 187.684C311.108 187.82 310.924 188.016 310.788 188.272C310.652 188.52 310.584 188.82 310.584 189.172V193H309.468Z" fill="#475569"/>
</svg>
