<svg width="14" height="9" viewBox="0 0 14 9" fill="none" xmlns="http://www.w3.org/2000/svg">
<path d="M13.3437 1.0625V4.5625C13.3437 4.73655 13.2746 4.90347 13.1515 5.02654C13.0284 5.14961 12.8615 5.21875 12.6875 5.21875C12.5134 5.21875 12.3465 5.14961 12.2234 5.02654C12.1004 4.90347 12.0312 4.73655 12.0312 4.5625V2.64844L7.90177 6.77844C7.84081 6.83962 7.76836 6.88816 7.68859 6.92128C7.60882 6.95441 7.5233 6.97146 7.43693 6.97146C7.35056 6.97146 7.26504 6.95441 7.18527 6.92128C7.1055 6.88816 7.03305 6.83962 6.97209 6.77844L5.24998 5.05469L1.77677 8.5268C1.65349 8.65008 1.48628 8.71934 1.31193 8.71934C1.13758 8.71934 0.97037 8.65008 0.847086 8.5268C0.723801 8.40351 0.654541 8.2363 0.654541 8.06195C0.654541 7.8876 0.723801 7.72039 0.847086 7.59711L4.78459 3.65961C4.84555 3.59843 4.918 3.54989 4.99777 3.51676C5.07754 3.48364 5.16306 3.46659 5.24943 3.46659C5.3358 3.46659 5.42132 3.48364 5.50109 3.51676C5.58086 3.54989 5.65331 3.59843 5.71427 3.65961L7.43748 5.38281L11.1015 1.71875H9.18748C9.01343 1.71875 8.84651 1.64961 8.72344 1.52654C8.60037 1.40347 8.53123 1.23655 8.53123 1.0625C8.53123 0.888452 8.60037 0.721532 8.72344 0.598461C8.84651 0.47539 9.01343 0.40625 9.18748 0.40625H12.6875C12.8615 0.40625 13.0284 0.47539 13.1515 0.598461C13.2746 0.721532 13.3437 0.888452 13.3437 1.0625Z" fill="#22C55E"/>
</svg>
