<svg width="10" height="18" viewBox="0 0 10 18" fill="none" xmlns="http://www.w3.org/2000/svg">
<path d="M0.67266 5.48915C0.625286 5.37496 0.612841 5.24928 0.636899 5.12802C0.660957 5.00676 0.720437 4.89535 0.807816 4.8079L4.55782 1.0579C4.61586 0.999787 4.68479 0.953688 4.76067 0.922235C4.83654 0.890782 4.91787 0.874593 5 0.874593C5.08214 0.874593 5.16347 0.890782 5.23934 0.922235C5.31522 0.953688 5.38415 0.999787 5.44219 1.0579L9.19219 4.8079C9.2797 4.89531 9.3393 5.00672 9.36346 5.12802C9.38762 5.24932 9.37524 5.37506 9.32789 5.48933C9.28055 5.60359 9.20036 5.70124 9.09749 5.76991C8.99462 5.83858 8.87369 5.87518 8.75 5.87508H1.25C1.12639 5.87506 1.00556 5.83838 0.902796 5.76968C0.80003 5.70099 0.719942 5.60336 0.67266 5.48915ZM8.75 12.1251H1.25C1.12632 12.125 1.00539 12.1616 0.902515 12.2303C0.799644 12.2989 0.71946 12.3966 0.672115 12.5108C0.62477 12.6251 0.612392 12.7508 0.636548 12.8722C0.660705 12.9935 0.720309 13.1049 0.807816 13.1923L4.55782 16.9423C4.61586 17.0004 4.68479 17.0465 4.76067 17.0779C4.83654 17.1094 4.91787 17.1256 5 17.1256C5.08214 17.1256 5.16347 17.1094 5.23934 17.0779C5.31522 17.0465 5.38415 17.0004 5.44219 16.9423L9.19219 13.1923C9.2797 13.1049 9.3393 12.9935 9.36346 12.8722C9.38762 12.7508 9.37524 12.6251 9.32789 12.5108C9.28055 12.3966 9.20036 12.2989 9.09749 12.2303C8.99462 12.1616 8.87369 12.125 8.75 12.1251Z" fill="#475569"/>
</svg>
