<svg width="245" height="193" viewBox="0 0 245 193" fill="none" xmlns="http://www.w3.org/2000/svg">
<rect y="67" width="245" height="126" rx="10" fill="#363062"/>
<mask id="mask0_1_371" style="mask-type:alpha" maskUnits="userSpaceOnUse" x="0" y="67" width="245" height="126">
<rect y="67" width="245" height="126" rx="10" fill="#363062"/>
</mask>
<g mask="url(#mask0_1_371)">
<path d="M56.9714 160.144C54.2274 160.144 52.0014 162.202 52.0014 165.114C52.0014 168.04 54.2274 170.084 56.9714 170.084C59.5894 170.084 61.4934 168.166 61.7874 165.912V164.666H56.4254V165.94H60.0794C59.8414 167.578 58.7354 168.642 56.9714 168.642C55.0394 168.642 53.6394 167.256 53.6394 165.114C53.6394 162.972 55.0394 161.6 56.9714 161.6C58.1334 161.6 59.0574 162.09 59.5754 163.07H61.4934C60.7514 161.166 59.0014 160.144 56.9714 160.144ZM66.6095 163.504C67.7995 163.504 68.7375 164.26 68.7655 165.45H64.4955C64.6635 164.232 65.5315 163.504 66.6095 163.504ZM70.2215 167.704H68.4995C68.2055 168.306 67.6595 168.782 66.6795 168.782C65.5035 168.782 64.5935 168.012 64.4815 166.738H70.3755C70.4175 166.472 70.4315 166.22 70.4315 165.954C70.4315 163.686 68.8775 162.16 66.6795 162.16C64.3975 162.16 62.8295 163.714 62.8295 166.136C62.8295 168.558 64.4675 170.126 66.6795 170.126C68.5695 170.126 69.7875 169.048 70.2215 167.704ZM77.4761 170H79.0581V165.45C79.0581 163.294 77.7001 162.16 75.8941 162.16C74.9701 162.16 74.1161 162.538 73.5981 163.168V162.286H72.0021V170H73.5981V165.688C73.5981 164.274 74.3681 163.546 75.5441 163.546C76.7061 163.546 77.4761 164.274 77.4761 165.688V170ZM84.3419 163.504C85.5319 163.504 86.4699 164.26 86.4979 165.45H82.2279C82.3959 164.232 83.2639 163.504 84.3419 163.504ZM87.9539 167.704H86.2319C85.9379 168.306 85.3919 168.782 84.4119 168.782C83.2359 168.782 82.3259 168.012 82.2139 166.738H88.1079C88.1499 166.472 88.1639 166.22 88.1639 165.954C88.1639 163.686 86.6099 162.16 84.4119 162.16C82.1299 162.16 80.5619 163.714 80.5619 166.136C80.5619 168.558 82.1999 170.126 84.4119 170.126C86.3019 170.126 87.5199 169.048 87.9539 167.704ZM91.3306 165.94C91.3306 164.302 92.0586 163.812 93.2346 163.812H93.6406V162.16C92.5486 162.16 91.7786 162.636 91.3306 163.406V162.286H89.7346V170H91.3306V165.94ZM94.5756 166.108C94.5756 168.488 96.1856 170.126 98.1876 170.126C99.4756 170.126 100.4 169.51 100.89 168.852V170H102.5V162.286H100.89V163.406C100.414 162.776 99.5176 162.16 98.2156 162.16C96.1856 162.16 94.5756 163.728 94.5756 166.108ZM100.89 166.136C100.89 167.802 99.7556 168.74 98.5516 168.74C97.3616 168.74 96.2136 167.774 96.2136 166.108C96.2136 164.442 97.3616 163.546 98.5516 163.546C99.7556 163.546 100.89 164.484 100.89 166.136ZM104.848 167.858C104.848 169.426 105.702 170 107.074 170H108.334V168.67H107.354C106.682 168.67 106.458 168.432 106.458 167.858V163.588H108.334V162.286H106.458V160.368H104.848V162.286H103.938V163.588H104.848V167.858ZM113.053 163.504C114.243 163.504 115.181 164.26 115.209 165.45H110.939C111.107 164.232 111.975 163.504 113.053 163.504ZM116.665 167.704H114.943C114.649 168.306 114.103 168.782 113.123 168.782C111.947 168.782 111.037 168.012 110.925 166.738H116.819C116.861 166.472 116.875 166.22 116.875 165.954C116.875 163.686 115.321 162.16 113.123 162.16C110.841 162.16 109.273 163.714 109.273 166.136C109.273 168.558 110.911 170.126 113.123 170.126C115.013 170.126 116.231 169.048 116.665 167.704ZM127.248 163.182C127.248 164.148 126.688 164.834 125.442 164.834H123.678V161.572H125.442C126.688 161.572 127.248 162.202 127.248 163.182ZM122.082 160.27V170H123.678V166.108H124.896L127.136 170H129.04L126.632 165.968C128.27 165.562 128.886 164.33 128.886 163.182C128.886 161.6 127.752 160.27 125.442 160.27H122.082ZM134.176 163.504C135.366 163.504 136.304 164.26 136.332 165.45H132.062C132.23 164.232 133.098 163.504 134.176 163.504ZM137.788 167.704H136.066C135.772 168.306 135.226 168.782 134.246 168.782C133.07 168.782 132.16 168.012 132.048 166.738H137.942C137.984 166.472 137.998 166.22 137.998 165.954C137.998 163.686 136.444 162.16 134.246 162.16C131.964 162.16 130.396 163.714 130.396 166.136C130.396 168.558 132.034 170.126 134.246 170.126C136.136 170.126 137.354 169.048 137.788 167.704ZM141.165 163.42V162.286H139.569V173.668H141.165V168.88C141.669 169.482 142.579 170.126 143.853 170.126C145.883 170.126 147.479 168.488 147.479 166.108C147.479 163.728 145.883 162.16 143.853 162.16C142.593 162.16 141.655 162.776 141.165 163.42ZM145.855 166.108C145.855 167.774 144.707 168.74 143.503 168.74C142.313 168.74 141.165 167.802 141.165 166.136C141.165 164.484 142.313 163.546 143.503 163.546C144.707 163.546 145.855 164.442 145.855 166.108ZM156.407 166.136C156.407 163.714 154.671 162.16 152.473 162.16C150.275 162.16 148.539 163.714 148.539 166.136C148.539 168.558 150.205 170.126 152.403 170.126C154.615 170.126 156.407 168.558 156.407 166.136ZM150.163 166.136C150.163 164.386 151.241 163.546 152.445 163.546C153.635 163.546 154.769 164.386 154.769 166.136C154.769 167.886 153.593 168.74 152.403 168.74C151.199 168.74 150.163 167.886 150.163 166.136ZM159.581 165.94C159.581 164.302 160.309 163.812 161.485 163.812H161.891V162.16C160.799 162.16 160.029 162.636 159.581 163.406V162.286H157.985V170H159.581V165.94ZM163.61 167.858C163.61 169.426 164.464 170 165.836 170H167.096V168.67H166.116C165.444 168.67 165.22 168.432 165.22 167.858V163.588H167.096V162.286H165.22V160.368H163.61V162.286H162.7V163.588H163.61V167.858Z" fill="white"/>
<path d="M185 169L189 165L185 161" stroke="white" stroke-width="2" stroke-linecap="round" stroke-linejoin="round"/>
<path d="M186.75 91.4032C186.75 92.1782 186.134 92.8065 185.375 92.8065C184.616 92.8065 184 92.1782 184 91.4032C184 90.6282 184.616 90 185.375 90C186.134 90 186.75 90.6282 186.75 91.4032Z" fill="white" fill-opacity="0.5"/>
<path d="M193.167 91.4032C193.167 92.1782 192.551 92.8065 191.792 92.8065C191.032 92.8065 190.417 92.1782 190.417 91.4032C190.417 90.6282 191.032 90 191.792 90C192.551 90 193.167 90.6282 193.167 91.4032Z" fill="white" fill-opacity="0.5"/>
<path d="M199.583 91.4032C199.583 92.1782 198.968 92.8065 198.208 92.8065C197.449 92.8065 196.833 92.1782 196.833 91.4032C196.833 90.6282 197.449 90 198.208 90C198.968 90 199.583 90.6282 199.583 91.4032Z" fill="white" fill-opacity="0.5"/>
<path d="M206 91.4032C206 92.1782 205.384 92.8065 204.625 92.8065C203.866 92.8065 203.25 92.1782 203.25 91.4032C203.25 90.6282 203.866 90 204.625 90C205.384 90 206 90.6282 206 91.4032Z" fill="white" fill-opacity="0.5"/>
<path d="M186.75 97.9516C186.75 98.7266 186.134 99.3548 185.375 99.3548C184.616 99.3548 184 98.7266 184 97.9516C184 97.1766 184.616 96.5484 185.375 96.5484C186.134 96.5484 186.75 97.1766 186.75 97.9516Z" fill="white" fill-opacity="0.5"/>
<path d="M193.167 97.9516C193.167 98.7266 192.551 99.3548 191.792 99.3548C191.032 99.3548 190.417 98.7266 190.417 97.9516C190.417 97.1766 191.032 96.5484 191.792 96.5484C192.551 96.5484 193.167 97.1766 193.167 97.9516Z" fill="white" fill-opacity="0.5"/>
<path d="M199.583 97.9516C199.583 98.7266 198.968 99.3548 198.208 99.3548C197.449 99.3548 196.833 98.7266 196.833 97.9516C196.833 97.1766 197.449 96.5484 198.208 96.5484C198.968 96.5484 199.583 97.1766 199.583 97.9516Z" fill="white" fill-opacity="0.5"/>
<path d="M206 97.9516C206 98.7266 205.384 99.3548 204.625 99.3548C203.866 99.3548 203.25 98.7266 203.25 97.9516C203.25 97.1766 203.866 96.5484 204.625 96.5484C205.384 96.5484 206 97.1766 206 97.9516Z" fill="white" fill-opacity="0.5"/>
<path d="M186.75 104.5C186.75 105.275 186.134 105.903 185.375 105.903C184.616 105.903 184 105.275 184 104.5C184 103.725 184.616 103.097 185.375 103.097C186.134 103.097 186.75 103.725 186.75 104.5Z" fill="white" fill-opacity="0.5"/>
<path d="M193.167 104.5C193.167 105.275 192.551 105.903 191.792 105.903C191.032 105.903 190.417 105.275 190.417 104.5C190.417 103.725 191.032 103.097 191.792 103.097C192.551 103.097 193.167 103.725 193.167 104.5Z" fill="white" fill-opacity="0.5"/>
<path d="M199.583 104.5C199.583 105.275 198.968 105.903 198.208 105.903C197.449 105.903 196.833 105.275 196.833 104.5C196.833 103.725 197.449 103.097 198.208 103.097C198.968 103.097 199.583 103.725 199.583 104.5Z" fill="white" fill-opacity="0.5"/>
<path d="M206 104.5C206 105.275 205.384 105.903 204.625 105.903C203.866 105.903 203.25 105.275 203.25 104.5C203.25 103.725 203.866 103.097 204.625 103.097C205.384 103.097 206 103.725 206 104.5Z" fill="white" fill-opacity="0.5"/>
<path d="M186.75 111.048C186.75 111.823 186.134 112.452 185.375 112.452C184.616 112.452 184 111.823 184 111.048C184 110.273 184.616 109.645 185.375 109.645C186.134 109.645 186.75 110.273 186.75 111.048Z" fill="white" fill-opacity="0.5"/>
<path d="M193.167 111.048C193.167 111.823 192.551 112.452 191.792 112.452C191.032 112.452 190.417 111.823 190.417 111.048C190.417 110.273 191.032 109.645 191.792 109.645C192.551 109.645 193.167 110.273 193.167 111.048Z" fill="white" fill-opacity="0.5"/>
<path d="M199.583 111.048C199.583 111.823 198.968 112.452 198.208 112.452C197.449 112.452 196.833 111.823 196.833 111.048C196.833 110.273 197.449 109.645 198.208 109.645C198.968 109.645 199.583 110.273 199.583 111.048Z" fill="white" fill-opacity="0.5"/>
<path d="M206 111.048C206 111.823 205.384 112.452 204.625 112.452C203.866 112.452 203.25 111.823 203.25 111.048C203.25 110.273 203.866 109.645 204.625 109.645C205.384 109.645 206 110.273 206 111.048Z" fill="white" fill-opacity="0.5"/>
<path d="M186.75 117.597C186.75 118.372 186.134 119 185.375 119C184.616 119 184 118.372 184 117.597C184 116.822 184.616 116.194 185.375 116.194C186.134 116.194 186.75 116.822 186.75 117.597Z" fill="white" fill-opacity="0.5"/>
<path d="M193.167 117.597C193.167 118.372 192.551 119 191.792 119C191.032 119 190.417 118.372 190.417 117.597C190.417 116.822 191.032 116.194 191.792 116.194C192.551 116.194 193.167 116.822 193.167 117.597Z" fill="white" fill-opacity="0.5"/>
<path d="M199.583 117.597C199.583 118.372 198.968 119 198.208 119C197.449 119 196.833 118.372 196.833 117.597C196.833 116.822 197.449 116.194 198.208 116.194C198.968 116.194 199.583 116.822 199.583 117.597Z" fill="white" fill-opacity="0.5"/>
<path d="M206 117.597C206 118.372 205.384 119 204.625 119C203.866 119 203.25 118.372 203.25 117.597C203.25 116.822 203.866 116.194 204.625 116.194C205.384 116.194 206 116.822 206 117.597Z" fill="white" fill-opacity="0.5"/>
<path d="M4.75 142.419C4.75 143.756 3.68668 144.839 2.375 144.839C1.06332 144.839 0 143.756 0 142.419C0 141.083 1.06332 140 2.375 140C3.68668 140 4.75 141.083 4.75 142.419Z" fill="#221C4B"/>
<path d="M15.8333 142.419C15.8333 143.756 14.77 144.839 13.4583 144.839C12.1467 144.839 11.0833 143.756 11.0833 142.419C11.0833 141.083 12.1467 140 13.4583 140C14.77 140 15.8333 141.083 15.8333 142.419Z" fill="#221C4B"/>
<path d="M26.9167 142.419C26.9167 143.756 25.8533 144.839 24.5417 144.839C23.23 144.839 22.1667 143.756 22.1667 142.419C22.1667 141.083 23.23 140 24.5417 140C25.8533 140 26.9167 141.083 26.9167 142.419Z" fill="#221C4B"/>
<path d="M38 142.419C38 143.756 36.9367 144.839 35.625 144.839C34.3133 144.839 33.25 143.756 33.25 142.419C33.25 141.083 34.3133 140 35.625 140C36.9367 140 38 141.083 38 142.419Z" fill="#221C4B"/>
<path d="M4.75 153.71C4.75 155.046 3.68668 156.129 2.375 156.129C1.06332 156.129 0 155.046 0 153.71C0 152.374 1.06332 151.29 2.375 151.29C3.68668 151.29 4.75 152.374 4.75 153.71Z" fill="#221C4B"/>
<path d="M15.8333 153.71C15.8333 155.046 14.77 156.129 13.4583 156.129C12.1467 156.129 11.0833 155.046 11.0833 153.71C11.0833 152.374 12.1467 151.29 13.4583 151.29C14.77 151.29 15.8333 152.374 15.8333 153.71Z" fill="#221C4B"/>
<path d="M26.9167 153.71C26.9167 155.046 25.8533 156.129 24.5417 156.129C23.23 156.129 22.1667 155.046 22.1667 153.71C22.1667 152.374 23.23 151.29 24.5417 151.29C25.8533 151.29 26.9167 152.374 26.9167 153.71Z" fill="#221C4B"/>
<path d="M38 153.71C38 155.046 36.9367 156.129 35.625 156.129C34.3133 156.129 33.25 155.046 33.25 153.71C33.25 152.374 34.3133 151.29 35.625 151.29C36.9367 151.29 38 152.374 38 153.71Z" fill="#221C4B"/>
<path d="M4.75 165C4.75 166.336 3.68668 167.419 2.375 167.419C1.06332 167.419 0 166.336 0 165C0 163.664 1.06332 162.581 2.375 162.581C3.68668 162.581 4.75 163.664 4.75 165Z" fill="#221C4B"/>
<path d="M15.8333 165C15.8333 166.336 14.77 167.419 13.4583 167.419C12.1467 167.419 11.0833 166.336 11.0833 165C11.0833 163.664 12.1467 162.581 13.4583 162.581C14.77 162.581 15.8333 163.664 15.8333 165Z" fill="#221C4B"/>
<path d="M26.9167 165C26.9167 166.336 25.8533 167.419 24.5417 167.419C23.23 167.419 22.1667 166.336 22.1667 165C22.1667 163.664 23.23 162.581 24.5417 162.581C25.8533 162.581 26.9167 163.664 26.9167 165Z" fill="#221C4B"/>
<path d="M38 165C38 166.336 36.9367 167.419 35.625 167.419C34.3133 167.419 33.25 166.336 33.25 165C33.25 163.664 34.3133 162.581 35.625 162.581C36.9367 162.581 38 163.664 38 165Z" fill="#221C4B"/>
<path d="M4.75 176.29C4.75 177.626 3.68668 178.71 2.375 178.71C1.06332 178.71 0 177.626 0 176.29C0 174.954 1.06332 173.871 2.375 173.871C3.68668 173.871 4.75 174.954 4.75 176.29Z" fill="#221C4B"/>
<path d="M15.8333 176.29C15.8333 177.626 14.77 178.71 13.4583 178.71C12.1467 178.71 11.0833 177.626 11.0833 176.29C11.0833 174.954 12.1467 173.871 13.4583 173.871C14.77 173.871 15.8333 174.954 15.8333 176.29Z" fill="#221C4B"/>
<path d="M26.9167 176.29C26.9167 177.626 25.8533 178.71 24.5417 178.71C23.23 178.71 22.1667 177.626 22.1667 176.29C22.1667 174.954 23.23 173.871 24.5417 173.871C25.8533 173.871 26.9167 174.954 26.9167 176.29Z" fill="#221C4B"/>
<path d="M38 176.29C38 177.626 36.9367 178.71 35.625 178.71C34.3133 178.71 33.25 177.626 33.25 176.29C33.25 174.954 34.3133 173.871 35.625 173.871C36.9367 173.871 38 174.954 38 176.29Z" fill="#221C4B"/>
<path d="M4.75 187.581C4.75 188.917 3.68668 190 2.375 190C1.06332 190 0 188.917 0 187.581C0 186.244 1.06332 185.161 2.375 185.161C3.68668 185.161 4.75 186.244 4.75 187.581Z" fill="#221C4B"/>
<path d="M15.8333 187.581C15.8333 188.917 14.77 190 13.4583 190C12.1467 190 11.0833 188.917 11.0833 187.581C11.0833 186.244 12.1467 185.161 13.4583 185.161C14.77 185.161 15.8333 186.244 15.8333 187.581Z" fill="#221C4B"/>
<path d="M26.9167 187.581C26.9167 188.917 25.8533 190 24.5417 190C23.23 190 22.1667 188.917 22.1667 187.581C22.1667 186.244 23.23 185.161 24.5417 185.161C25.8533 185.161 26.9167 186.244 26.9167 187.581Z" fill="#221C4B"/>
<path d="M38 187.581C38 188.917 36.9367 190 35.625 190C34.3133 190 33.25 188.917 33.25 187.581C33.25 186.244 34.3133 185.161 35.625 185.161C36.9367 185.161 38 186.244 38 187.581Z" fill="#221C4B"/>
</g>
<path d="M58.6022 44.7827L131.143 2.62644L127.679 0.626343L55.1381 42.7826L58.6022 44.7827Z" fill="#FE91AB"/>
<path d="M136.791 65.6418C133.593 63.7929 131 59.2989 131.013 55.6311L131.125 2.63879L106.446 16.9791L58.6019 44.7798L58.4714 97.7832C58.4651 101.456 61.0574 105.951 64.2557 107.794C65.8646 108.726 67.3238 108.81 68.3789 108.199L140.921 66.0399C139.865 66.6516 138.4 66.5679 136.791 65.6418Z" fill="#ED5D71"/>
<path d="M61.4984 46.7896L71.2949 52.4436L72.0092 52.8568V109.02C71.0633 108.964 70.0187 108.641 68.9174 108.005C64.7552 105.596 61.3745 99.7458 61.3874 94.965L61.4984 46.7896Z" fill="#E3E7F0"/>
<path d="M146.208 11.3247L146.078 64.3269C146.064 67.2387 145.035 69.2967 143.368 70.2606L70.8262 112.419C72.4936 111.448 73.5226 109.397 73.5358 106.478L73.666 53.4762L146.208 11.3247Z" fill="#ED5D71"/>
<path d="M70.8263 52.175L138.928 12.5987L129.6 7.21313L61.4984 46.7894L70.8263 52.175Z" fill="white"/>
<path d="M55.138 42.7827L55.0063 95.784C54.9895 101.652 59.131 108.828 64.2397 111.777C69.3481 114.727 73.5169 112.349 73.5334 106.481L73.6654 53.4795L70.201 51.4794L70.0693 104.481C70.0588 108.154 67.4494 109.643 64.2511 107.797C61.0525 105.95 58.4599 101.458 58.4704 97.7841L58.6021 44.7828L55.138 42.7827Z" fill="#D3374E"/>
<path d="M73.6654 53.4795L146.206 11.3232L142.742 9.32312L70.201 51.4794L73.6654 53.4795Z" fill="#FE91AB"/>
<path d="M146.226 2.6319L128.978 12.6567L121.529 25.665L146.208 11.3247L146.226 2.6319Z" fill="#ED5D71"/>
<path d="M128.98 12.6567L121.532 25.6632L118.068 23.6631L125.516 10.6569L128.98 12.6567Z" fill="#D3374E"/>
<path d="M128.98 12.657L146.226 2.63462L142.762 0.634521L125.516 10.6569L128.98 12.657Z" fill="#FE91AB"/>
<path d="M84.986 59.9475L157.527 17.7912L154.063 15.7911L81.5219 57.9474L84.986 59.9475Z" fill="#FFDD94"/>
<path d="M163.175 80.8065C159.977 78.9579 157.384 74.4636 157.397 70.7961L157.509 17.8035L132.83 32.1441L84.9857 59.9448L84.8555 112.948C84.8489 116.62 87.4415 121.116 90.6395 122.959C92.2484 123.891 93.7076 123.975 94.7627 123.363L167.304 81.2049C166.249 81.8163 164.784 81.7326 163.175 80.8065Z" fill="#FEBB61"/>
<path d="M87.8822 61.9542L97.6787 67.6083L98.393 68.0214V124.185C97.4471 124.129 96.4025 123.805 95.3012 123.17C91.139 120.76 87.7583 114.911 87.7712 110.13L87.8822 61.9542Z" fill="#E3E7F0"/>
<path d="M172.592 26.4895L172.461 79.4917C172.448 82.4035 171.419 84.4615 169.752 85.4257L97.2101 127.584C98.8775 126.613 99.9065 124.562 99.9197 121.643L100.05 68.641L172.592 26.4895Z" fill="#FEBB61"/>
<path d="M97.21 67.3398L165.311 27.7635L155.984 22.3779L87.8821 61.9542L97.21 67.3398Z" fill="white"/>
<path d="M81.5218 57.9474L81.3901 110.949C81.3733 116.817 85.5148 123.992 90.6235 126.942C95.7322 129.891 99.9007 127.514 99.9175 121.645L100.049 68.6442L96.5848 66.6441L96.4531 119.645C96.4426 123.319 93.8332 124.808 90.6349 122.961C87.4363 121.115 84.8437 116.622 84.8542 112.949L84.9859 59.9475L81.5218 57.9474Z" fill="#EFA143"/>
<path d="M100.049 68.6442L172.59 26.4879L169.126 24.4878L96.5848 66.6441L100.049 68.6442Z" fill="#FFDD94"/>
<path d="M172.61 17.7966L155.362 27.8217L147.913 40.8297L172.592 26.4894L172.61 17.7966Z" fill="#FEBB61"/>
<path d="M155.364 27.8218L147.916 40.828L144.451 38.8282L151.9 25.8217L155.364 27.8218Z" fill="#EFA143"/>
<path d="M155.364 27.8216L172.61 17.7995L169.146 15.7994L151.9 25.8215L155.364 27.8216Z" fill="#FFDD94"/>
<path d="M111.37 75.1122L183.911 32.9562L180.447 30.9561L107.906 73.1121L111.37 75.1122Z" fill="#7BB1FF"/>
<path d="M189.558 95.9715C186.36 94.1226 183.768 89.6283 183.781 85.9608L183.893 32.9685L159.214 47.3088L111.369 75.1095L111.239 128.113C111.233 131.785 113.825 136.281 117.023 138.124C118.632 139.056 120.091 139.14 121.146 138.528L193.688 96.3696C192.633 96.981 191.167 96.8973 189.558 95.9715Z" fill="#5793FB"/>
<path d="M114.266 77.1193L124.062 82.7731L124.777 83.1865V139.35C123.831 139.294 122.786 138.97 121.685 138.335C117.523 135.925 114.142 130.076 114.155 125.294L114.266 77.1193Z" fill="#E3E7F0"/>
<path d="M198.975 41.6542L198.845 94.6564C198.832 97.5682 197.803 99.6265 196.136 100.59L123.594 142.749C125.261 141.778 126.291 139.726 126.303 136.808L126.434 83.806L198.975 41.6542Z" fill="#5793FB"/>
<path d="M175.536 100.562L193.199 90.2992C193.199 90.2992 193.188 93.7768 193.191 93.9949L175.52 104.265L175.536 100.562Z" fill="#E3E7F0"/>
<path d="M175.536 93.5794L193.199 83.3158C193.199 83.3158 193.188 86.7934 193.191 87.0118L175.52 97.2823L175.536 93.5794Z" fill="#E3E7F0"/>
<path d="M175.536 86.5962L193.199 76.3326C193.199 76.3326 193.188 79.8102 193.191 80.0286L175.52 90.2991L175.536 86.5962Z" fill="#E3E7F0"/>
<path d="M123.594 82.5044L191.695 42.9281L182.367 37.5428L114.266 77.1191L123.594 82.5044Z" fill="white"/>
<path d="M107.906 73.1121L107.774 126.114C107.757 131.982 111.899 139.157 117.007 142.107C122.116 145.056 126.285 142.678 126.301 136.81L126.433 83.8089L122.969 81.8088L122.837 134.81C122.827 138.484 120.217 139.972 117.019 138.126C113.82 136.279 111.228 131.787 111.238 128.114L111.37 75.1122L107.906 73.1121Z" fill="#3A53D0"/>
<path d="M126.433 83.8089L198.974 41.6529L195.51 39.6528L122.969 81.8088L126.433 83.8089Z" fill="#7BB1FF"/>
<path d="M198.994 32.9616L181.746 42.9864L174.297 55.9947L198.975 41.6541L198.994 32.9616Z" fill="#5793FB"/>
<path d="M181.748 42.9864L174.3 55.9926L170.835 53.9928L178.284 40.9866L181.748 42.9864Z" fill="#3A53D0"/>
<path d="M181.748 42.9863L198.993 32.9642L195.529 30.9641L178.284 40.9862L181.748 42.9863Z" fill="#7BB1FF"/>
</svg>
