<svg width="28" height="28" viewBox="0 0 28 28" fill="none" xmlns="http://www.w3.org/2000/svg">
<path d="M27.468 5.02831L14.2884 0.0516804C14.1025 -0.0172268 13.8974 -0.0172268 13.7116 0.0516804L0.53189 5.02831C0.212297 5.14852 0 5.45444 0 5.79652V7.49185C0 7.94527 0.366898 8.31218 0.820312 8.31218H27.1797C27.6331 8.31218 28 7.94527 28 7.49185V5.79652C28 5.45444 27.7877 5.14852 27.468 5.02831Z" fill="#BFBFBF"/>
<path d="M3.28125 19.7968C2.37513 19.7968 1.64062 20.5313 1.64062 21.4374V22.2577C1.64062 22.7108 2.0079 23.0781 2.46094 23.0781H8.3225L9.96312 19.7968H3.28125Z" fill="#BFBFBF"/>
<path d="M24.7187 19.7968H18.0368L19.6772 23.0781H25.539C25.992 23.0781 26.3593 22.7108 26.3593 22.2577V21.4374C26.3593 20.5313 25.6248 19.7968 24.7187 19.7968Z" fill="#BFBFBF"/>
<path d="M1.64062 24.7187C0.734507 24.7187 0 25.4532 0 26.3593V27.1797C0 27.6327 0.367281 28 0.820312 28H5.86156L7.50219 24.7187H1.64062Z" fill="#BFBFBF"/>
<path d="M26.3594 24.7187H20.4973L22.1377 28H27.1797C27.6327 28 28 27.6327 28 27.1797V26.3593C28 25.4533 27.2655 24.7187 26.3594 24.7187Z" fill="#BFBFBF"/>
<path d="M7.38281 9.95315H4.10156V18.1564H7.38281V9.95315Z" fill="#BFBFBF"/>
<path d="M15.6406 9.95315H12.3047V18.1564H15.6406V9.95315Z" fill="#BFBFBF"/>
<path d="M23.8984 9.95315H20.6172V18.1564H23.8984V9.95315Z" fill="#BFBFBF"/>
<path d="M16.1477 19.7968H11.7976C10.2863 22.8194 9.2334 24.9252 7.69603 28H20.3039C17.1451 21.6822 18.4403 24.3819 16.1477 19.7968Z" fill="#BFBFBF"/>
</svg>
