<svg width="23" height="23" viewBox="0 0 23 23" fill="none" xmlns="http://www.w3.org/2000/svg">
<path d="M20.8362 10.5431C20.8362 10.1289 20.5004 9.79309 20.0862 9.79309C19.672 9.79309 19.3362 10.1289 19.3362 10.5431H20.8362ZM19.3362 21.5C19.3362 21.9142 19.672 22.25 20.0862 22.25C20.5004 22.25 20.8362 21.9142 20.8362 21.5H19.3362ZM1.66381 21.5C1.66381 21.9142 1.99959 22.25 2.41381 22.25C2.82802 22.25 3.16381 21.9142 3.16381 21.5H1.66381ZM3.16381 10.5431C3.16381 10.1289 2.82802 9.79309 2.41381 9.79309C1.99959 9.79309 1.66381 10.1289 1.66381 10.5431H3.16381ZM7.31898 21.5C7.31898 21.9142 7.65476 22.25 8.06898 22.25C8.48319 22.25 8.81898 21.9142 8.81898 21.5H7.31898ZM8.81898 10.5431C8.81898 10.1289 8.48319 9.79309 8.06898 9.79309C7.65476 9.79309 7.31898 10.1289 7.31898 10.5431H8.81898ZM13.681 21.5C13.681 21.9142 14.0168 22.25 14.431 22.25C14.8453 22.25 15.181 21.9142 15.181 21.5H13.681ZM15.181 10.5431C15.181 10.1289 14.8453 9.79309 14.431 9.79309C14.0168 9.79309 13.681 10.1289 13.681 10.5431H15.181ZM19.3362 10.5431V21.5H20.8362V10.5431H19.3362ZM3.16381 21.5V10.5431H1.66381V21.5H3.16381ZM8.81898 21.5V10.5431H7.31898V21.5H8.81898ZM15.181 21.5V10.5431H13.681V21.5H15.181Z" fill="white"/>
<path fill-rule="evenodd" clip-rule="evenodd" d="M11.25 1L21.5 10.1897H1L11.25 1Z" stroke="white" stroke-width="1.5" stroke-linecap="round" stroke-linejoin="round"/>
<path d="M1 21.5H21.5" stroke="white" stroke-width="1.5" stroke-linecap="round" stroke-linejoin="round"/>
</svg>
