<svg width="13" height="13" viewBox="0 0 13 13" fill="none" xmlns="http://www.w3.org/2000/svg">
<path d="M12.25 1.30859C12.25 1.11719 12.168 0.953125 12.0312 0.816406C11.8945 0.707031 11.7305 0.625 11.5664 0.625H0.683594C0.464844 0.625 0.300781 0.707031 0.191406 0.816406C0.0546875 0.953125 0 1.11719 0 1.30859V12.1914C0 12.3828 0.0546875 12.5469 0.191406 12.6836C0.300781 12.8203 0.464844 12.875 0.683594 12.875H6.53516V8.11719H4.94922V6.28516H6.53516V4.91797C6.53516 4.15234 6.75391 3.55078 7.19141 3.11328C7.62891 2.70312 8.20312 2.48438 8.91406 2.48438C9.46094 2.48438 9.95312 2.51172 10.3359 2.53906V4.20703H9.35156C8.99609 4.20703 8.75 4.28906 8.61328 4.45312C8.50391 4.58984 8.44922 4.80859 8.44922 5.10938V6.28516H10.2812L10.0352 8.11719H8.44922V12.875H11.5664C11.7578 12.875 11.9219 12.8203 12.0586 12.6836C12.168 12.5469 12.25 12.3828 12.25 12.1914V1.30859Z" fill="#344E86"/>
</svg>
