<svg width="12" height="13" viewBox="0 0 12 13" fill="none" xmlns="http://www.w3.org/2000/svg">
<path d="M6.125 3.60547C6.67188 3.60547 7.19141 3.76953 7.68359 4.04297C8.17578 4.31641 8.55859 4.69922 8.83203 5.19141C9.10547 5.68359 9.26953 6.20312 9.26953 6.75C9.26953 7.32422 9.10547 7.84375 8.83203 8.33594C8.55859 8.82812 8.17578 9.21094 7.68359 9.48438C7.19141 9.75781 6.67188 9.89453 6.125 9.89453C5.55078 9.89453 5.03125 9.75781 4.53906 9.48438C4.04688 9.21094 3.66406 8.82812 3.39062 8.33594C3.11719 7.84375 2.98047 7.32422 2.98047 6.75C2.98047 6.20312 3.11719 5.68359 3.39062 5.19141C3.66406 4.69922 4.04688 4.31641 4.53906 4.04297C5.03125 3.76953 5.55078 3.60547 6.125 3.60547ZM6.125 8.80078C6.67188 8.80078 7.16406 8.60938 7.57422 8.19922C7.95703 7.81641 8.17578 7.32422 8.17578 6.75C8.17578 6.20312 7.95703 5.71094 7.57422 5.30078C7.16406 4.91797 6.67188 4.69922 6.125 4.69922C5.55078 4.69922 5.05859 4.91797 4.67578 5.30078C4.26562 5.71094 4.07422 6.20312 4.07422 6.75C4.07422 7.32422 4.26562 7.81641 4.67578 8.19922C5.05859 8.60938 5.55078 8.80078 6.125 8.80078ZM10.1445 3.46875C10.1445 3.27734 10.0625 3.11328 9.92578 2.94922C9.76172 2.8125 9.59766 2.73047 9.40625 2.73047C9.1875 2.73047 9.02344 2.8125 8.88672 2.94922C8.72266 3.11328 8.66797 3.27734 8.66797 3.46875C8.66797 3.6875 8.72266 3.85156 8.88672 3.98828C9.02344 4.15234 9.1875 4.20703 9.40625 4.20703C9.59766 4.20703 9.76172 4.15234 9.89844 3.98828C10.0352 3.85156 10.1172 3.6875 10.1445 3.46875ZM12.2227 4.20703C12.2227 4.72656 12.25 5.57422 12.25 6.75C12.25 7.95312 12.2227 8.80078 12.1953 9.32031C12.168 9.83984 12.0859 10.2773 11.9766 10.6602C11.8125 11.125 11.5391 11.5352 11.2109 11.8633C10.8828 12.1914 10.4727 12.4375 10.0352 12.6016C9.65234 12.7383 9.1875 12.8203 8.66797 12.8477C8.14844 12.875 7.30078 12.875 6.125 12.875C4.92188 12.875 4.07422 12.875 3.55469 12.8477C3.03516 12.8203 2.59766 12.7383 2.21484 12.5742C1.75 12.4375 1.33984 12.1914 1.01172 11.8633C0.683594 11.5352 0.4375 11.125 0.273438 10.6602C0.136719 10.2773 0.0546875 9.83984 0.0273438 9.32031C0 8.80078 0 7.95312 0 6.75C0 5.57422 0 4.72656 0.0273438 4.20703C0.0546875 3.6875 0.136719 3.22266 0.273438 2.83984C0.4375 2.40234 0.683594 1.99219 1.01172 1.66406C1.33984 1.33594 1.75 1.0625 2.21484 0.898438C2.59766 0.789062 3.03516 0.707031 3.55469 0.679688C4.07422 0.652344 4.92188 0.625 6.125 0.625C7.30078 0.625 8.14844 0.652344 8.66797 0.679688C9.1875 0.707031 9.65234 0.789062 10.0352 0.898438C10.4727 1.0625 10.8828 1.33594 11.2109 1.66406C11.5391 1.99219 11.8125 2.40234 11.9766 2.83984C12.0859 3.22266 12.168 3.6875 12.2227 4.20703ZM10.9102 10.3594C11.0195 10.0586 11.0742 9.56641 11.1289 8.88281C11.1289 8.5 11.1562 7.92578 11.1562 7.1875V6.3125C11.1562 5.57422 11.1289 5 11.1289 4.61719C11.0742 3.93359 11.0195 3.44141 10.9102 3.14062C10.6914 2.59375 10.2812 2.18359 9.73438 1.96484C9.43359 1.85547 8.94141 1.80078 8.25781 1.74609C7.84766 1.74609 7.27344 1.71875 6.5625 1.71875H5.6875C4.94922 1.71875 4.375 1.74609 3.99219 1.74609C3.30859 1.80078 2.81641 1.85547 2.51562 1.96484C1.94141 2.18359 1.55859 2.59375 1.33984 3.14062C1.23047 3.44141 1.14844 3.93359 1.12109 4.61719C1.09375 5.02734 1.09375 5.60156 1.09375 6.3125V7.1875C1.09375 7.92578 1.09375 8.5 1.12109 8.88281C1.14844 9.56641 1.23047 10.0586 1.33984 10.3594C1.55859 10.9336 1.96875 11.3164 2.51562 11.5352C2.81641 11.6445 3.30859 11.7266 3.99219 11.7539C4.375 11.7812 4.94922 11.7812 5.6875 11.7812H6.5625C7.30078 11.7812 7.875 11.7812 8.25781 11.7539C8.94141 11.7266 9.43359 11.6445 9.73438 11.5352C10.2812 11.3164 10.6914 10.9062 10.9102 10.3594Z" fill="#E1306C"/>
</svg>
