<svg width="21" height="21" viewBox="0 0 21 21" fill="none" xmlns="http://www.w3.org/2000/svg">
<path d="M19.0963 0H1.9037C0.852305 0 0 0.852305 0 1.9037V19.0963C0 20.1477 0.852305 21 1.9037 21H19.0963C20.1477 21 21 20.1477 21 19.0963V1.9037C21 0.852305 20.1477 0 19.0963 0Z" fill="#DC395F"/>
<path fill-rule="evenodd" clip-rule="evenodd" d="M8.3721 5.42262C8.3721 6.1389 7.79529 6.68541 7.10674 6.68541C6.41819 6.68541 5.84155 6.13881 5.84155 5.42262C5.84155 4.70683 6.41819 4.1604 7.10674 4.1604C7.79529 4.1604 8.3721 4.70683 8.3721 5.42262ZM4.37148 14.3952C4.37148 14.113 4.40878 13.7671 4.48314 13.4467H4.48322L5.43206 9.52086H3.96216L4.40878 7.85233H7.94425L6.54854 13.4587C6.45549 13.817 6.41828 14.1142 6.41828 14.3211C6.41828 14.6796 6.59256 14.7844 6.86506 14.8467C7.03101 14.8843 8.35333 14.858 9.07319 13.2375L9.98991 9.52086H8.50123L8.94786 7.85233H12.1296L11.7203 9.74668C12.2785 8.69127 13.395 7.68846 14.4928 7.68846C15.665 7.68846 16.6327 8.5342 16.6327 10.1547C16.6327 10.5691 16.5768 11.0202 16.428 11.5289L15.8324 13.6951C15.7768 13.9217 15.7394 14.1099 15.7394 14.2795C15.7394 14.6562 15.8883 14.8445 16.1674 14.8445C16.4466 14.8445 16.8001 14.6367 17.2095 13.4879L18.0282 13.808C17.5444 15.5228 16.6699 16.2385 15.572 16.2385C14.288 16.2385 13.6742 15.4664 13.6742 14.4109C13.6742 14.1096 13.7112 13.789 13.8043 13.4687L14.4184 11.2452C14.4928 11.0001 14.5114 10.7742 14.5114 10.5669C14.5114 9.85106 14.0835 9.41746 13.395 9.41746C12.5204 9.41746 11.9436 10.0532 11.6458 11.278L10.4548 16.1154H8.37097L8.74502 14.5952C8.13244 15.6142 7.28167 16.2453 6.23226 16.2453C4.9669 16.2453 4.37148 15.5071 4.37148 14.3952Z" fill="white"/>
</svg>
