<svg width="14" height="12" viewBox="0 0 14 12" fill="none" xmlns="http://www.w3.org/2000/svg">
<path d="M12.5508 2.90625C13.0977 2.49609 13.5898 2.00391 14 1.40234C13.4531 1.64844 12.9062 1.8125 12.3594 1.86719C12.9609 1.48438 13.3984 0.964844 13.6172 0.28125C13.043 0.609375 12.4414 0.855469 11.7852 0.964844C11.5117 0.691406 11.1836 0.472656 10.8281 0.308594C10.4727 0.144531 10.0898 0.0625 9.67969 0.0625C9.16016 0.0625 8.69531 0.199219 8.25781 0.445312C7.82031 0.71875 7.46484 1.07422 7.21875 1.51172C6.94531 1.94922 6.83594 2.44141 6.83594 2.93359C6.83594 3.15234 6.83594 3.37109 6.89062 3.58984C5.71484 3.53516 4.62109 3.26172 3.58203 2.71484C2.54297 2.19531 1.69531 1.48438 0.984375 0.582031C0.710938 1.04688 0.574219 1.53906 0.574219 2.03125C0.574219 2.52344 0.683594 2.98828 0.929688 3.39844C1.14844 3.83594 1.47656 4.16406 1.85938 4.4375C1.39453 4.4375 0.957031 4.30078 0.574219 4.05469V4.10938C0.574219 4.79297 0.792969 5.39453 1.23047 5.91406C1.66797 6.46094 2.21484 6.78906 2.87109 6.92578C2.59766 6.98047 2.35156 7.00781 2.10547 7.00781C1.94141 7.00781 1.75 7.00781 1.58594 6.98047C1.75 7.55469 2.07812 8.01953 2.57031 8.40234C3.0625 8.78516 3.60938 8.94922 4.26562 8.94922C3.19922 9.76953 1.99609 10.1797 0.683594 10.1797C0.410156 10.1797 0.191406 10.1797 0 10.1523C1.3125 11.0273 2.78906 11.4375 4.40234 11.4375C6.07031 11.4375 7.54688 11.0273 8.85938 10.1523C10.0352 9.38672 10.9648 8.375 11.6211 7.0625C12.25 5.85938 12.5781 4.57422 12.5781 3.26172C12.5781 3.09766 12.5508 2.98828 12.5508 2.90625Z" fill="#3EA1EC"/>
</svg>
