<svg width="24" height="21" viewBox="0 0 24 21" fill="none" xmlns="http://www.w3.org/2000/svg">
<path d="M14.6087 9.95296C14.5181 9.22464 14.1559 8.49631 13.6126 8.04111L4.28544 0.575768C3.10823 -0.334639 1.47824 -0.152558 0.572695 1.03097C-0.332853 2.2145 -0.151744 3.85323 1.02547 4.76364L7.81708 10.2261L1.02547 15.6885C-0.151744 16.5989 -0.332853 18.2377 0.572695 19.4212C1.47824 20.6047 3.10823 20.7868 4.28544 19.8764L13.6126 12.229C14.2465 11.6827 14.6087 10.9544 14.6087 10.135V9.95296Z" fill="#0D55FF"/>
<path d="M21.2718 15.0261H13.192C13.1012 15.0261 12.9197 15.0261 12.8289 15.1161L6.74631 19.8837C6.65553 19.9736 6.65553 20.0636 6.74631 20.1536C6.74631 20.2435 6.8371 20.2435 6.92788 20.2435H21.3626C22.8152 20.2435 24.0862 18.9841 23.9954 17.4549C23.9046 16.0156 22.6336 15.0261 21.2718 15.0261Z" fill="#00C9DB"/>
<path d="M23.7914 17.6348C23.7914 19.0741 22.622 20.2435 21.1827 20.2435C19.7434 20.2435 18.574 19.0741 18.574 17.6348C18.574 16.1955 19.7434 15.0261 21.1827 15.0261C22.622 15.0261 23.7914 16.1955 23.7914 17.6348Z" fill="#7000F2"/>
</svg>
