<svg width="20" height="22" viewBox="0 0 20 22" fill="none" xmlns="http://www.w3.org/2000/svg">
<path d="M1.75 4.54688H18.25C18.5003 4.54688 18.7417 4.63373 18.9336 4.79102L19.0127 4.8623C19.2149 5.06449 19.3281 5.33906 19.3281 5.625C19.3281 5.87527 19.2413 6.11672 19.084 6.30859L19.0127 6.3877C18.8105 6.58988 18.5359 6.70312 18.25 6.70312H17.8281V19.5C17.8281 19.9848 17.6358 20.4501 17.293 20.793C16.9501 21.1358 16.4848 21.3281 16 21.3281H4C3.51515 21.3281 3.04987 21.1358 2.70703 20.793C2.36419 20.4501 2.17188 19.9848 2.17188 19.5V6.70312H1.75C1.49972 6.70312 1.25828 6.61627 1.06641 6.45898L0.987305 6.3877C0.785117 6.18551 0.671875 5.91094 0.671875 5.625C0.671875 5.37472 0.758728 5.13328 0.916016 4.94141L0.987305 4.8623C1.18949 4.66012 1.46406 4.54688 1.75 4.54688ZM4.32812 19.1719H15.6719V6.70312H4.32812V19.1719ZM6.25 0.796875H13.75C14.0003 0.796875 14.2417 0.883728 14.4336 1.04102L14.5127 1.1123C14.7149 1.31449 14.8281 1.58906 14.8281 1.875C14.8281 2.12527 14.7413 2.36672 14.584 2.55859L14.5127 2.6377C14.3105 2.83988 14.0359 2.95312 13.75 2.95312H6.25C5.99972 2.95312 5.75828 2.86627 5.56641 2.70898L5.4873 2.6377C5.28512 2.43551 5.17188 2.16094 5.17188 1.875C5.17188 1.62472 5.25873 1.38328 5.41602 1.19141L5.4873 1.1123C5.68949 0.910117 5.96406 0.796875 6.25 0.796875Z" fill="#475569" stroke="#475569" stroke-width="0.09375"/>
</svg>
