<svg width="313" height="137" viewBox="0 0 313 137" fill="none" xmlns="http://www.w3.org/2000/svg">
<path d="M1 10H312" stroke="#CBD5E1"/>
<path d="M1 33.4H312" stroke="#CBD5E1"/>
<path d="M1 56.8H312" stroke="#CBD5E1"/>
<path d="M1 80.2H312" stroke="#CBD5E1"/>
<path d="M1 103.6H312" stroke="#CBD5E1"/>
<path d="M1 127H312" stroke="#CBD5E1"/>
<path opacity="0.08" d="M44.8467 75.1067C28.7935 57.3873 10.584 48.4006 1 43.0594V127H312V108.011C299.541 67.6289 286.842 81.8387 274.862 58.0147C268.62 45.6016 263.122 32.6995 243.235 51.6052C229.686 64.4857 220.713 62.7247 214.723 56.4123C201.545 42.5252 198.43 37.7181 178.543 67.6289C163.928 89.6115 138.53 72.9701 126.071 63.3559C110.545 49.2551 102.59 86.8573 93.2458 105.552C81.9367 129.908 69.5254 102.347 44.8467 75.1067Z" fill="url(#paint0_linear_5671_22704)"/>
<path d="M1 43.0594C10.584 48.4006 28.7935 57.3873 44.8467 75.1066C69.5254 102.347 81.9367 129.908 93.2458 105.552C102.59 86.8573 110.545 49.2551 126.071 63.3559C138.53 72.9701 163.928 89.6115 178.543 67.6289C198.43 37.7181 201.545 42.5252 214.723 56.4123C220.713 62.7247 229.686 64.4857 243.235 51.6052C263.122 32.6995 268.62 45.6016 274.862 58.0147C286.842 81.8387 299.541 67.6289 312 108.011" stroke="#C7D2FE" stroke-width="2" stroke-linecap="round"/>
<path opacity="0.24" d="M16.358 98.0113C12.8015 104.971 5.15946 120.148 1 127H312V68.4955C281.284 85.3806 264.726 63.0742 245.289 45.2856C229.163 30.5277 219.934 43.7044 206.414 68.4955C167.221 140.36 136.961 75.8305 125.304 42.1422C116.185 15.7888 107.066 38.4527 103.467 52.6835C95.5478 82.7264 88.3488 124.892 66.7515 76.4016C54.1715 48.1567 29.5563 72.1849 16.358 98.0113Z" fill="url(#paint1_linear_5671_22704)"/>
<path d="M1 127C5.15947 120.148 12.8015 104.971 16.358 98.0113C29.5563 72.1849 54.1715 48.1567 66.7515 76.4016C88.3488 124.892 95.5478 82.7264 103.467 52.6835C107.066 38.4527 116.185 15.7888 125.304 42.1422C136.961 75.8305 167.221 140.36 206.414 68.4955C219.934 43.7044 229.163 30.5277 245.289 45.2856C264.726 63.0742 281.284 85.3806 312 68.4955" stroke="#4F46E5" stroke-width="2" stroke-linecap="round"/>
<defs>
<linearGradient id="paint0_linear_5671_22704" x1="156.5" y1="127" x2="156.5" y2="42.0458" gradientUnits="userSpaceOnUse">
<stop stop-color="#4F46E5" stop-opacity="0"/>
<stop offset="1" stop-color="#4F46E5"/>
</linearGradient>
<linearGradient id="paint1_linear_5671_22704" x1="156.5" y1="30" x2="156.5" y2="127" gradientUnits="userSpaceOnUse">
<stop stop-color="#4F46E5"/>
<stop offset="1" stop-color="#4F46E5" stop-opacity="0"/>
</linearGradient>
</defs>
</svg>
