<svg width="912" height="218" viewBox="0 0 912 218" fill="none" xmlns="http://www.w3.org/2000/svg">
<path d="M24 26H888" stroke="#CBD5E1"/>
<path d="M24 58H888" stroke="#CBD5E1"/>
<path d="M24 90H888" stroke="#CBD5E1"/>
<path d="M24 122H888" stroke="#CBD5E1"/>
<path d="M24 154H888" stroke="#CBD5E1"/>
<path d="M24 186H888" stroke="#CBD5E1"/>
<path d="M29 124C29 115.163 36.1634 108 45 108C53.8366 108 61 115.163 61 124V186H29V124Z" fill="#A5B4FC"/>
<path d="M29 146.75C29 137.913 36.1634 130.75 45 130.75C53.8366 130.75 61 137.913 61 146.75V186H29V146.75Z" fill="#6366F1"/>
<path d="M29 172.75C29 163.913 36.1634 156.75 45 156.75C53.8366 156.75 61 163.913 61 172.75V186H29V172.75Z" fill="#4338CA"/>
<path d="M103.727 84C103.727 75.1634 110.891 68 119.727 68C128.564 68 135.727 75.1634 135.727 84V186H103.727V84Z" fill="#A5B4FC"/>
<path d="M103.727 118.417C103.727 109.58 110.891 102.417 119.727 102.417C128.564 102.417 135.727 109.58 135.727 118.417V186H103.727V118.417Z" fill="#6366F1"/>
<path d="M103.727 157.75C103.727 148.913 110.891 141.75 119.727 141.75C128.564 141.75 135.727 148.913 135.727 157.75V186H103.727V157.75Z" fill="#4338CA"/>
<path d="M178.455 143C178.455 134.163 185.618 127 194.455 127C203.291 127 210.455 134.163 210.455 143V186H178.455V143Z" fill="#A5B4FC"/>
<path d="M178.455 160.208C178.455 151.372 185.618 144.208 194.455 144.208C203.291 144.208 210.455 151.372 210.455 160.208V186H178.455V160.208Z" fill="#6366F1"/>
<path d="M178.455 179.875C178.455 171.038 185.618 163.875 194.455 163.875C203.291 163.875 210.455 171.038 210.455 179.875V186H178.455V179.875Z" fill="#4338CA"/>
<path d="M253.182 64C253.182 55.1634 260.345 48 269.182 48C278.018 48 285.182 55.1634 285.182 64V186H253.182V64Z" fill="#A5B4FC"/>
<path d="M253.182 104.25C253.182 95.4134 260.345 88.25 269.182 88.25C278.018 88.25 285.182 95.4134 285.182 104.25V186H253.182V104.25Z" fill="#6366F1"/>
<path d="M253.182 150.25C253.182 141.413 260.345 134.25 269.182 134.25C278.018 134.25 285.182 141.413 285.182 150.25V186H253.182V150.25Z" fill="#4338CA"/>
<path d="M327.909 88C327.909 79.1634 335.073 72 343.909 72C352.746 72 359.909 79.1634 359.909 88V186H327.909V88Z" fill="#A5B4FC"/>
<path d="M327.909 121.25C327.909 112.413 335.073 105.25 343.909 105.25C352.746 105.25 359.909 112.413 359.909 121.25V186H327.909V121.25Z" fill="#6366F1"/>
<path d="M327.909 159.25C327.909 150.413 335.073 143.25 343.909 143.25C352.746 143.25 359.909 150.413 359.909 159.25V186H327.909V159.25Z" fill="#4338CA"/>
<path d="M402.636 143C402.636 134.163 409.8 127 418.636 127C427.473 127 434.636 134.163 434.636 143V186H402.636V143Z" fill="#A5B4FC"/>
<path d="M402.636 160.208C402.636 151.372 409.8 144.208 418.636 144.208C427.473 144.208 434.636 151.372 434.636 160.208V186H402.636V160.208Z" fill="#6366F1"/>
<path d="M402.636 179.875C402.636 171.038 409.8 163.875 418.636 163.875C427.473 163.875 434.636 171.038 434.636 179.875V186H402.636V179.875Z" fill="#4338CA"/>
<path d="M477.364 121C477.364 112.163 484.527 105 493.364 105C502.2 105 509.364 112.163 509.364 121V186H477.364V121Z" fill="#A5B4FC"/>
<path d="M477.364 144.625C477.364 135.788 484.527 128.625 493.364 128.625C502.2 128.625 509.364 135.788 509.364 144.625V186H477.364V144.625Z" fill="#6366F1"/>
<path d="M477.364 171.625C477.364 162.788 484.527 155.625 493.364 155.625C502.2 155.625 509.364 162.788 509.364 171.625V186H477.364V171.625Z" fill="#4338CA"/>
<path d="M552.091 88C552.091 79.1634 559.254 72 568.091 72C576.927 72 584.091 79.1634 584.091 88V186H552.091V88Z" fill="#A5B4FC"/>
<path d="M552.091 121.25C552.091 112.413 559.254 105.25 568.091 105.25C576.927 105.25 584.091 112.413 584.091 121.25V186H552.091V121.25Z" fill="#6366F1"/>
<path d="M552.091 159.25C552.091 150.413 559.254 143.25 568.091 143.25C576.927 143.25 584.091 150.413 584.091 159.25V186H552.091V159.25Z" fill="#4338CA"/>
<path d="M626.818 52C626.818 43.1634 633.982 36 642.818 36C651.655 36 658.818 43.1634 658.818 52V186H626.818V52Z" fill="#A5B4FC"/>
<path d="M626.818 95.75C626.818 86.9134 633.982 79.75 642.818 79.75C651.655 79.75 658.818 86.9134 658.818 95.75V186H626.818V95.75Z" fill="#6366F1"/>
<path d="M626.818 145.75C626.818 136.913 633.982 129.75 642.818 129.75C651.655 129.75 658.818 136.913 658.818 145.75V186H626.818V145.75Z" fill="#4338CA"/>
<path d="M701.545 84C701.545 75.1634 708.709 68 717.545 68C726.382 68 733.545 75.1634 733.545 84V186H701.545V84Z" fill="#A5B4FC"/>
<path d="M701.545 118.417C701.545 109.58 708.709 102.417 717.545 102.417C726.382 102.417 733.545 109.58 733.545 118.417V186H701.545V118.417Z" fill="#6366F1"/>
<path d="M701.545 157.75C701.545 148.913 708.709 141.75 717.545 141.75C726.382 141.75 733.545 148.913 733.545 157.75V186H701.545V157.75Z" fill="#4338CA"/>
<path d="M776.273 130C776.273 121.163 783.436 114 792.273 114C801.11 114 808.273 121.163 808.273 130V186H776.273V130Z" fill="#A5B4FC"/>
<path d="M776.273 151C776.273 142.163 783.436 135 792.273 135C801.11 135 808.273 142.163 808.273 151V186H776.273V151Z" fill="#6366F1"/>
<path d="M776.273 175C776.273 166.163 783.436 159 792.273 159C801.11 159 808.273 166.163 808.273 175V186H776.273V175Z" fill="#4338CA"/>
<path d="M851 167C851 158.163 858.163 151 867 151C875.837 151 883 158.163 883 167V186H851V167Z" fill="#A5B4FC"/>
<path d="M851 177.208C851 168.372 858.163 161.208 867 161.208C875.837 161.208 883 168.372 883 177.208V186H851V177.208Z" fill="#6366F1"/>
<path d="M851 186C851 178.751 856.876 172.875 864.125 172.875H869.875C877.124 172.875 883 178.751 883 186H851Z" fill="#4338CA"/>
<path d="M32.9139 209V207.86H33.4059C33.8299 207.86 34.1659 207.736 34.4139 207.488C34.6619 207.232 34.7859 206.888 34.7859 206.456V200.06H35.9739V206.432C35.9739 206.952 35.8659 207.404 35.6499 207.788C35.4419 208.172 35.1459 208.472 34.7619 208.688C34.3779 208.896 33.9259 209 33.4059 209H32.9139ZM39.6428 209.144C39.2188 209.144 38.8428 209.068 38.5148 208.916C38.1948 208.756 37.9428 208.54 37.7588 208.268C37.5748 207.988 37.4828 207.668 37.4828 207.308C37.4828 206.964 37.5548 206.656 37.6988 206.384C37.8508 206.104 38.0828 205.868 38.3948 205.676C38.7148 205.484 39.1148 205.348 39.5948 205.268L41.9948 204.872V205.808L39.8468 206.168C39.4308 206.24 39.1268 206.372 38.9348 206.564C38.7508 206.756 38.6588 206.992 38.6588 207.272C38.6588 207.536 38.7628 207.756 38.9708 207.932C39.1868 208.108 39.4548 208.196 39.7748 208.196C40.1828 208.196 40.5348 208.112 40.8308 207.944C41.1348 207.768 41.3708 207.532 41.5388 207.236C41.7148 206.94 41.8028 206.612 41.8028 206.252V204.608C41.8028 204.256 41.6708 203.972 41.4068 203.756C41.1508 203.532 40.8108 203.42 40.3868 203.42C40.0188 203.42 39.6908 203.516 39.4028 203.708C39.1228 203.892 38.9148 204.14 38.7788 204.452L37.8068 203.948C37.9268 203.652 38.1188 203.388 38.3828 203.156C38.6468 202.916 38.9548 202.728 39.3068 202.592C39.6588 202.456 40.0268 202.388 40.4108 202.388C40.9068 202.388 41.3428 202.484 41.7188 202.676C42.0948 202.86 42.3868 203.12 42.5948 203.456C42.8108 203.784 42.9188 204.168 42.9188 204.608V209H41.8268V207.776L42.0308 207.848C41.8948 208.104 41.7108 208.328 41.4788 208.52C41.2468 208.712 40.9748 208.864 40.6628 208.976C40.3508 209.088 40.0108 209.144 39.6428 209.144ZM44.5892 209V202.532H45.6812V203.792L45.5012 203.684C45.6612 203.276 45.9172 202.96 46.2692 202.736C46.6292 202.504 47.0492 202.388 47.5292 202.388C47.9932 202.388 48.4052 202.492 48.7652 202.7C49.1332 202.908 49.4212 203.196 49.6292 203.564C49.8452 203.932 49.9532 204.348 49.9532 204.812V209H48.8252V205.172C48.8252 204.812 48.7612 204.508 48.6332 204.26C48.5052 204.012 48.3212 203.82 48.0812 203.684C47.8492 203.54 47.5812 203.468 47.2772 203.468C46.9732 203.468 46.7012 203.54 46.4612 203.684C46.2292 203.82 46.0452 204.016 45.9092 204.272C45.7732 204.52 45.7052 204.82 45.7052 205.172V209H44.5892Z" fill="#475569"/>
<path d="M105.913 209V200.06H111.577V201.14H107.089V204.032H111.157V205.112H107.089V209H105.913ZM115.494 209.144C114.87 209.144 114.314 208.996 113.826 208.7C113.338 208.404 112.954 208 112.674 207.488C112.394 206.968 112.254 206.388 112.254 205.748C112.254 205.1 112.39 204.524 112.662 204.02C112.942 203.516 113.318 203.12 113.79 202.832C114.27 202.536 114.806 202.388 115.398 202.388C115.878 202.388 116.302 202.476 116.67 202.652C117.046 202.82 117.362 203.052 117.618 203.348C117.882 203.636 118.082 203.968 118.218 204.344C118.362 204.712 118.434 205.096 118.434 205.496C118.434 205.584 118.426 205.684 118.41 205.796C118.402 205.9 118.39 206 118.374 206.096H113.07V205.136H117.726L117.198 205.568C117.27 205.152 117.23 204.78 117.078 204.452C116.926 204.124 116.702 203.864 116.406 203.672C116.11 203.48 115.774 203.384 115.398 203.384C115.022 203.384 114.678 203.48 114.366 203.672C114.054 203.864 113.81 204.14 113.634 204.5C113.466 204.852 113.398 205.272 113.43 205.76C113.398 206.232 113.47 206.648 113.646 207.008C113.83 207.36 114.086 207.636 114.414 207.836C114.75 208.028 115.114 208.124 115.506 208.124C115.938 208.124 116.302 208.024 116.598 207.824C116.894 207.624 117.134 207.368 117.318 207.056L118.254 207.536C118.126 207.832 117.926 208.104 117.654 208.352C117.39 208.592 117.074 208.784 116.706 208.928C116.346 209.072 115.942 209.144 115.494 209.144ZM123.177 209.144C122.657 209.144 122.181 209.028 121.749 208.796C121.325 208.564 120.997 208.236 120.765 207.812L120.921 207.62V209H119.829V199.916H120.945V203.924L120.777 203.648C121.017 203.264 121.345 202.96 121.761 202.736C122.177 202.504 122.653 202.388 123.189 202.388C123.797 202.388 124.341 202.536 124.821 202.832C125.309 203.128 125.693 203.532 125.973 204.044C126.253 204.548 126.393 205.124 126.393 205.772C126.393 206.404 126.253 206.976 125.973 207.488C125.693 208 125.309 208.404 124.821 208.7C124.341 208.996 123.793 209.144 123.177 209.144ZM123.093 208.064C123.501 208.064 123.865 207.964 124.185 207.764C124.505 207.564 124.753 207.292 124.929 206.948C125.113 206.596 125.205 206.204 125.205 205.772C125.205 205.324 125.113 204.932 124.929 204.596C124.753 204.252 124.505 203.98 124.185 203.78C123.865 203.572 123.501 203.468 123.093 203.468C122.685 203.468 122.317 203.568 121.989 203.768C121.669 203.968 121.413 204.244 121.221 204.596C121.037 204.94 120.945 205.332 120.945 205.772C120.945 206.204 121.037 206.596 121.221 206.948C121.413 207.292 121.669 207.564 121.989 207.764C122.317 207.964 122.685 208.064 123.093 208.064Z" fill="#475569"/>
<path d="M182.284 209V200.06H183.364L186.712 204.824H186.16L189.484 200.06H190.564V209H189.376V201.548L189.796 201.68L186.472 206.36H186.376L183.088 201.68L183.46 201.548V209H182.284ZM194.253 209.144C193.829 209.144 193.453 209.068 193.125 208.916C192.805 208.756 192.553 208.54 192.369 208.268C192.185 207.988 192.093 207.668 192.093 207.308C192.093 206.964 192.165 206.656 192.309 206.384C192.461 206.104 192.693 205.868 193.005 205.676C193.325 205.484 193.725 205.348 194.205 205.268L196.605 204.872V205.808L194.457 206.168C194.041 206.24 193.737 206.372 193.545 206.564C193.361 206.756 193.269 206.992 193.269 207.272C193.269 207.536 193.373 207.756 193.581 207.932C193.797 208.108 194.065 208.196 194.385 208.196C194.793 208.196 195.145 208.112 195.441 207.944C195.745 207.768 195.981 207.532 196.149 207.236C196.325 206.94 196.413 206.612 196.413 206.252V204.608C196.413 204.256 196.281 203.972 196.017 203.756C195.761 203.532 195.421 203.42 194.997 203.42C194.629 203.42 194.301 203.516 194.013 203.708C193.733 203.892 193.525 204.14 193.389 204.452L192.417 203.948C192.537 203.652 192.729 203.388 192.993 203.156C193.257 202.916 193.565 202.728 193.917 202.592C194.269 202.456 194.637 202.388 195.021 202.388C195.517 202.388 195.953 202.484 196.329 202.676C196.705 202.86 196.997 203.12 197.205 203.456C197.421 203.784 197.529 204.168 197.529 204.608V209H196.437V207.776L196.641 207.848C196.505 208.104 196.321 208.328 196.089 208.52C195.857 208.712 195.585 208.864 195.273 208.976C194.961 209.088 194.621 209.144 194.253 209.144ZM199.2 209V202.532H200.292V203.72L200.172 203.552C200.324 203.184 200.556 202.912 200.868 202.736C201.18 202.552 201.56 202.46 202.008 202.46H202.404V203.516H201.84C201.384 203.516 201.016 203.66 200.736 203.948C200.456 204.228 200.316 204.628 200.316 205.148V209H199.2Z" fill="#475569"/>
<path d="M256.913 209L260.117 200.06H261.509L264.713 209H263.453L262.721 206.9H258.905L258.173 209H256.913ZM259.277 205.82H262.349L260.645 200.912H260.981L259.277 205.82ZM265.647 211.4V202.532H266.739V203.924L266.595 203.648C266.835 203.264 267.163 202.96 267.579 202.736C267.995 202.504 268.471 202.388 269.007 202.388C269.615 202.388 270.159 202.536 270.639 202.832C271.127 203.128 271.511 203.532 271.791 204.044C272.071 204.548 272.211 205.124 272.211 205.772C272.211 206.404 272.071 206.976 271.791 207.488C271.511 208 271.127 208.404 270.639 208.7C270.159 208.996 269.611 209.144 268.995 209.144C268.475 209.144 267.999 209.028 267.567 208.796C267.143 208.564 266.815 208.236 266.583 207.812L266.763 207.62V211.4H265.647ZM268.911 208.064C269.319 208.064 269.683 207.964 270.003 207.764C270.323 207.564 270.571 207.292 270.747 206.948C270.931 206.596 271.023 206.204 271.023 205.772C271.023 205.324 270.931 204.932 270.747 204.596C270.571 204.252 270.323 203.98 270.003 203.78C269.683 203.572 269.319 203.468 268.911 203.468C268.503 203.468 268.135 203.568 267.807 203.768C267.487 203.968 267.231 204.244 267.039 204.596C266.855 204.94 266.763 205.332 266.763 205.772C266.763 206.204 266.855 206.596 267.039 206.948C267.231 207.292 267.487 207.564 267.807 207.764C268.135 207.964 268.503 208.064 268.911 208.064ZM273.615 209V202.532H274.707V203.72L274.587 203.552C274.739 203.184 274.971 202.912 275.283 202.736C275.595 202.552 275.975 202.46 276.423 202.46H276.819V203.516H276.255C275.799 203.516 275.431 203.66 275.151 203.948C274.871 204.228 274.731 204.628 274.731 205.148V209H273.615Z" fill="#475569"/>
<path d="M331.974 209V200.06H333.054L336.402 204.824H335.85L339.174 200.06H340.254V209H339.066V201.548L339.486 201.68L336.162 206.36H336.066L332.778 201.68L333.15 201.548V209H331.974ZM343.943 209.144C343.519 209.144 343.143 209.068 342.815 208.916C342.495 208.756 342.243 208.54 342.059 208.268C341.875 207.988 341.783 207.668 341.783 207.308C341.783 206.964 341.855 206.656 341.999 206.384C342.151 206.104 342.383 205.868 342.695 205.676C343.015 205.484 343.415 205.348 343.895 205.268L346.295 204.872V205.808L344.147 206.168C343.731 206.24 343.427 206.372 343.235 206.564C343.051 206.756 342.959 206.992 342.959 207.272C342.959 207.536 343.063 207.756 343.271 207.932C343.487 208.108 343.755 208.196 344.075 208.196C344.483 208.196 344.835 208.112 345.131 207.944C345.435 207.768 345.671 207.532 345.839 207.236C346.015 206.94 346.103 206.612 346.103 206.252V204.608C346.103 204.256 345.971 203.972 345.707 203.756C345.451 203.532 345.111 203.42 344.687 203.42C344.319 203.42 343.991 203.516 343.703 203.708C343.423 203.892 343.215 204.14 343.079 204.452L342.107 203.948C342.227 203.652 342.419 203.388 342.683 203.156C342.947 202.916 343.255 202.728 343.607 202.592C343.959 202.456 344.327 202.388 344.711 202.388C345.207 202.388 345.643 202.484 346.019 202.676C346.395 202.86 346.687 203.12 346.895 203.456C347.111 203.784 347.219 204.168 347.219 204.608V209H346.127V207.776L346.331 207.848C346.195 208.104 346.011 208.328 345.779 208.52C345.547 208.712 345.275 208.864 344.963 208.976C344.651 209.088 344.311 209.144 343.943 209.144ZM349.238 211.64C349.094 211.64 348.95 211.628 348.806 211.604C348.662 211.588 348.526 211.552 348.398 211.496V210.5C348.486 210.508 348.594 210.524 348.722 210.548C348.858 210.572 348.99 210.584 349.118 210.584C349.494 210.584 349.778 210.5 349.97 210.332C350.17 210.164 350.358 209.88 350.534 209.48L350.942 208.508L350.918 209.48L348.158 202.532H349.37L351.518 208.052H351.158L353.294 202.532H354.53L351.614 209.768C351.478 210.112 351.302 210.428 351.086 210.716C350.878 211.004 350.622 211.228 350.318 211.388C350.014 211.556 349.654 211.64 349.238 211.64Z" fill="#475569"/>
<path d="M409.157 209V207.86H409.649C410.073 207.86 410.409 207.736 410.657 207.488C410.905 207.232 411.029 206.888 411.029 206.456V200.06H412.217V206.432C412.217 206.952 412.109 207.404 411.893 207.788C411.685 208.172 411.389 208.472 411.005 208.688C410.621 208.896 410.169 209 409.649 209H409.157ZM416.282 209.144C415.818 209.144 415.398 209.036 415.022 208.82C414.654 208.604 414.366 208.304 414.158 207.92C413.958 207.528 413.858 207.08 413.858 206.576V202.532H414.974V206.456C414.974 206.776 415.038 207.056 415.166 207.296C415.302 207.536 415.486 207.724 415.718 207.86C415.958 207.996 416.23 208.064 416.534 208.064C416.838 208.064 417.106 207.996 417.338 207.86C417.578 207.724 417.762 207.528 417.89 207.272C418.026 207.016 418.094 206.712 418.094 206.36V202.532H419.222V209H418.13V207.74L418.31 207.848C418.158 208.256 417.898 208.576 417.53 208.808C417.17 209.032 416.754 209.144 416.282 209.144ZM420.891 209V202.532H421.983V203.792L421.803 203.684C421.963 203.276 422.219 202.96 422.571 202.736C422.931 202.504 423.351 202.388 423.831 202.388C424.295 202.388 424.707 202.492 425.067 202.7C425.435 202.908 425.723 203.196 425.931 203.564C426.147 203.932 426.255 204.348 426.255 204.812V209H425.127V205.172C425.127 204.812 425.063 204.508 424.935 204.26C424.807 204.012 424.623 203.82 424.383 203.684C424.151 203.54 423.883 203.468 423.579 203.468C423.275 203.468 423.003 203.54 422.763 203.684C422.531 203.82 422.347 204.016 422.211 204.272C422.075 204.52 422.007 204.82 422.007 205.172V209H420.891Z" fill="#475569"/>
<path d="M481.669 209V207.86H482.161C482.585 207.86 482.921 207.736 483.169 207.488C483.417 207.232 483.541 206.888 483.541 206.456V200.06H484.729V206.432C484.729 206.952 484.621 207.404 484.405 207.788C484.197 208.172 483.901 208.472 483.517 208.688C483.133 208.896 482.681 209 482.161 209H481.669ZM488.793 209.144C488.329 209.144 487.909 209.036 487.533 208.82C487.165 208.604 486.877 208.304 486.669 207.92C486.469 207.528 486.369 207.08 486.369 206.576V202.532H487.485V206.456C487.485 206.776 487.549 207.056 487.677 207.296C487.813 207.536 487.997 207.724 488.229 207.86C488.469 207.996 488.741 208.064 489.045 208.064C489.349 208.064 489.617 207.996 489.849 207.86C490.089 207.724 490.273 207.528 490.401 207.272C490.537 207.016 490.605 206.712 490.605 206.36V202.532H491.733V209H490.641V207.74L490.821 207.848C490.669 208.256 490.409 208.576 490.041 208.808C489.681 209.032 489.265 209.144 488.793 209.144ZM493.402 209V199.916H494.518V209H493.402Z" fill="#475569"/>
<path d="M549.465 209L552.669 200.06H554.061L557.265 209H556.005L555.273 206.9H551.457L550.725 209H549.465ZM551.829 205.82H554.901L553.197 200.912H553.533L551.829 205.82ZM560.375 209.144C559.911 209.144 559.491 209.036 559.115 208.82C558.747 208.604 558.459 208.304 558.251 207.92C558.051 207.528 557.951 207.08 557.951 206.576V202.532H559.067V206.456C559.067 206.776 559.131 207.056 559.259 207.296C559.395 207.536 559.579 207.724 559.811 207.86C560.051 207.996 560.323 208.064 560.627 208.064C560.931 208.064 561.199 207.996 561.431 207.86C561.671 207.724 561.855 207.528 561.983 207.272C562.119 207.016 562.187 206.712 562.187 206.36V202.532H563.315V209H562.223V207.74L562.403 207.848C562.251 208.256 561.991 208.576 561.623 208.808C561.263 209.032 560.847 209.144 560.375 209.144ZM568.068 211.64C567.612 211.64 567.188 211.568 566.796 211.424C566.412 211.28 566.08 211.08 565.8 210.824C565.528 210.576 565.32 210.284 565.176 209.948L566.22 209.468C566.332 209.772 566.544 210.028 566.856 210.236C567.176 210.452 567.576 210.56 568.056 210.56C568.424 210.56 568.756 210.488 569.052 210.344C569.356 210.208 569.596 210 569.772 209.72C569.948 209.448 570.036 209.116 570.036 208.724V207.272L570.24 207.488C570.016 207.928 569.692 208.264 569.268 208.496C568.852 208.728 568.392 208.844 567.888 208.844C567.28 208.844 566.736 208.704 566.256 208.424C565.776 208.136 565.4 207.748 565.128 207.26C564.856 206.764 564.72 206.216 564.72 205.616C564.72 205.008 564.856 204.46 565.128 203.972C565.4 203.484 565.772 203.1 566.244 202.82C566.724 202.532 567.268 202.388 567.876 202.388C568.38 202.388 568.836 202.504 569.244 202.736C569.66 202.96 569.992 203.272 570.24 203.672L570.072 203.972V202.532H571.164V208.724C571.164 209.284 571.032 209.784 570.768 210.224C570.504 210.664 570.136 211.008 569.664 211.256C569.2 211.512 568.668 211.64 568.068 211.64ZM567.984 207.764C568.368 207.764 568.712 207.668 569.016 207.476C569.328 207.284 569.576 207.028 569.76 206.708C569.944 206.38 570.036 206.016 570.036 205.616C570.036 205.224 569.944 204.864 569.76 204.536C569.576 204.208 569.328 203.948 569.016 203.756C568.712 203.564 568.368 203.468 567.984 203.468C567.592 203.468 567.236 203.564 566.916 203.756C566.596 203.948 566.344 204.208 566.16 204.536C565.984 204.856 565.896 205.216 565.896 205.616C565.896 206.016 565.984 206.38 566.16 206.708C566.344 207.028 566.592 207.284 566.904 207.476C567.224 207.668 567.584 207.764 567.984 207.764Z" fill="#475569"/>
<path d="M630.186 209.144C629.618 209.144 629.098 209.04 628.626 208.832C628.154 208.616 627.754 208.324 627.426 207.956C627.098 207.588 626.862 207.176 626.718 206.72L627.738 206.3C627.954 206.876 628.274 207.32 628.698 207.632C629.13 207.936 629.634 208.088 630.21 208.088C630.562 208.088 630.87 208.032 631.134 207.92C631.398 207.808 631.602 207.652 631.746 207.452C631.898 207.244 631.974 207.004 631.974 206.732C631.974 206.356 631.866 206.06 631.65 205.844C631.442 205.62 631.134 205.452 630.726 205.34L629.082 204.836C628.434 204.636 627.938 204.32 627.594 203.888C627.25 203.456 627.078 202.96 627.078 202.4C627.078 201.912 627.194 201.484 627.426 201.116C627.666 200.74 627.994 200.448 628.41 200.24C628.834 200.024 629.314 199.916 629.85 199.916C630.386 199.916 630.87 200.012 631.302 200.204C631.742 200.396 632.114 200.656 632.418 200.984C632.722 201.304 632.946 201.672 633.09 202.088L632.082 202.508C631.89 202.004 631.602 201.624 631.218 201.368C630.834 201.104 630.382 200.972 629.862 200.972C629.542 200.972 629.258 201.028 629.01 201.14C628.77 201.244 628.582 201.4 628.446 201.608C628.318 201.808 628.254 202.048 628.254 202.328C628.254 202.656 628.358 202.948 628.566 203.204C628.774 203.46 629.09 203.656 629.514 203.792L631.014 204.236C631.718 204.452 632.25 204.76 632.61 205.16C632.97 205.56 633.15 206.056 633.15 206.648C633.15 207.136 633.022 207.568 632.766 207.944C632.518 208.32 632.17 208.616 631.722 208.832C631.282 209.04 630.77 209.144 630.186 209.144ZM637.656 209.144C637.032 209.144 636.476 208.996 635.988 208.7C635.5 208.404 635.116 208 634.836 207.488C634.556 206.968 634.416 206.388 634.416 205.748C634.416 205.1 634.552 204.524 634.824 204.02C635.104 203.516 635.48 203.12 635.952 202.832C636.432 202.536 636.968 202.388 637.56 202.388C638.04 202.388 638.464 202.476 638.832 202.652C639.208 202.82 639.524 203.052 639.78 203.348C640.044 203.636 640.244 203.968 640.38 204.344C640.524 204.712 640.596 205.096 640.596 205.496C640.596 205.584 640.588 205.684 640.572 205.796C640.564 205.9 640.552 206 640.536 206.096H635.232V205.136H639.888L639.36 205.568C639.432 205.152 639.392 204.78 639.24 204.452C639.088 204.124 638.864 203.864 638.568 203.672C638.272 203.48 637.936 203.384 637.56 203.384C637.184 203.384 636.84 203.48 636.528 203.672C636.216 203.864 635.972 204.14 635.796 204.5C635.628 204.852 635.56 205.272 635.592 205.76C635.56 206.232 635.632 206.648 635.808 207.008C635.992 207.36 636.248 207.636 636.576 207.836C636.912 208.028 637.276 208.124 637.668 208.124C638.1 208.124 638.464 208.024 638.76 207.824C639.056 207.624 639.296 207.368 639.48 207.056L640.416 207.536C640.288 207.832 640.088 208.104 639.816 208.352C639.552 208.592 639.236 208.784 638.868 208.928C638.508 209.072 638.104 209.144 637.656 209.144ZM641.991 211.4V202.532H643.083V203.924L642.939 203.648C643.179 203.264 643.507 202.96 643.923 202.736C644.339 202.504 644.815 202.388 645.351 202.388C645.959 202.388 646.503 202.536 646.983 202.832C647.471 203.128 647.855 203.532 648.135 204.044C648.415 204.548 648.555 205.124 648.555 205.772C648.555 206.404 648.415 206.976 648.135 207.488C647.855 208 647.471 208.404 646.983 208.7C646.503 208.996 645.955 209.144 645.339 209.144C644.819 209.144 644.343 209.028 643.911 208.796C643.487 208.564 643.159 208.236 642.927 207.812L643.107 207.62V211.4H641.991ZM645.255 208.064C645.663 208.064 646.027 207.964 646.347 207.764C646.667 207.564 646.915 207.292 647.091 206.948C647.275 206.596 647.367 206.204 647.367 205.772C647.367 205.324 647.275 204.932 647.091 204.596C646.915 204.252 646.667 203.98 646.347 203.78C646.027 203.572 645.663 203.468 645.255 203.468C644.847 203.468 644.479 203.568 644.151 203.768C643.831 203.968 643.575 204.244 643.383 204.596C643.199 204.94 643.107 205.332 643.107 205.772C643.107 206.204 643.199 206.596 643.383 206.948C643.575 207.292 643.831 207.564 644.151 207.764C644.479 207.964 644.847 208.064 645.255 208.064Z" fill="#475569"/>
<path d="M708.657 209.144C708.025 209.144 707.433 209.032 706.881 208.808C706.329 208.576 705.845 208.252 705.429 207.836C705.021 207.42 704.701 206.932 704.469 206.372C704.237 205.804 704.121 205.188 704.121 204.524C704.121 203.852 704.237 203.236 704.469 202.676C704.701 202.116 705.021 201.628 705.429 201.212C705.845 200.796 706.325 200.476 706.869 200.252C707.421 200.028 708.017 199.916 708.657 199.916C709.297 199.916 709.889 200.032 710.433 200.264C710.985 200.488 711.465 200.808 711.873 201.224C712.289 201.632 712.613 202.116 712.845 202.676C713.085 203.236 713.205 203.852 713.205 204.524C713.205 205.188 713.085 205.804 712.845 206.372C712.613 206.932 712.289 207.42 711.873 207.836C711.465 208.252 710.985 208.576 710.433 208.808C709.889 209.032 709.297 209.144 708.657 209.144ZM708.657 208.052C709.153 208.052 709.605 207.964 710.013 207.788C710.421 207.604 710.773 207.352 711.069 207.032C711.373 206.704 711.605 206.328 711.765 205.904C711.933 205.472 712.017 205.012 712.017 204.524C712.017 204.036 711.933 203.58 711.765 203.156C711.605 202.732 711.373 202.36 711.069 202.04C710.773 201.712 710.421 201.46 710.013 201.284C709.605 201.1 709.153 201.008 708.657 201.008C708.169 201.008 707.721 201.1 707.313 201.284C706.905 201.46 706.549 201.712 706.245 202.04C705.949 202.36 705.717 202.732 705.549 203.156C705.381 203.58 705.297 204.036 705.297 204.524C705.297 205.012 705.381 205.472 705.549 205.904C705.717 206.328 705.949 206.704 706.245 207.032C706.549 207.352 706.905 207.604 707.313 207.788C707.721 207.964 708.169 208.052 708.657 208.052ZM717.728 209.144C717.096 209.144 716.532 208.996 716.036 208.7C715.548 208.404 715.164 208 714.884 207.488C714.604 206.976 714.464 206.4 714.464 205.76C714.464 205.112 714.604 204.536 714.884 204.032C715.164 203.528 715.548 203.128 716.036 202.832C716.532 202.536 717.096 202.388 717.728 202.388C718.152 202.388 718.548 202.464 718.916 202.616C719.284 202.768 719.608 202.972 719.888 203.228C720.168 203.484 720.372 203.784 720.5 204.128L719.504 204.608C719.352 204.272 719.12 204 718.808 203.792C718.496 203.576 718.136 203.468 717.728 203.468C717.336 203.468 716.98 203.568 716.66 203.768C716.348 203.968 716.1 204.24 715.916 204.584C715.732 204.928 715.64 205.324 715.64 205.772C715.64 206.204 715.732 206.596 715.916 206.948C716.1 207.292 716.348 207.564 716.66 207.764C716.98 207.964 717.336 208.064 717.728 208.064C718.136 208.064 718.496 207.96 718.808 207.752C719.12 207.536 719.352 207.252 719.504 206.9L720.5 207.404C720.372 207.74 720.168 208.04 719.888 208.304C719.608 208.56 719.284 208.764 718.916 208.916C718.548 209.068 718.152 209.144 717.728 209.144ZM724.527 209.072C723.895 209.072 723.407 208.892 723.063 208.532C722.727 208.172 722.559 207.664 722.559 207.008V203.6H721.383V202.532H721.623C721.911 202.532 722.139 202.444 722.307 202.268C722.475 202.092 722.559 201.86 722.559 201.572V201.044H723.675V202.532H725.127V203.6H723.675V206.972C723.675 207.188 723.707 207.376 723.771 207.536C723.843 207.696 723.959 207.824 724.119 207.92C724.279 208.008 724.491 208.052 724.755 208.052C724.811 208.052 724.879 208.048 724.959 208.04C725.047 208.032 725.127 208.024 725.199 208.016V209C725.095 209.024 724.979 209.04 724.851 209.048C724.723 209.064 724.615 209.072 724.527 209.072Z" fill="#475569"/>
<path d="M780.605 209V200.06H781.589L786.725 207.284L786.281 207.332V200.06H787.469V209H786.485L781.373 201.728L781.781 201.68V209H780.605ZM792.345 209.144C791.721 209.144 791.157 209 790.653 208.712C790.149 208.416 789.749 208.012 789.453 207.5C789.157 206.988 789.009 206.408 789.009 205.76C789.009 205.112 789.153 204.536 789.441 204.032C789.737 203.528 790.137 203.128 790.641 202.832C791.145 202.536 791.713 202.388 792.345 202.388C792.969 202.388 793.533 202.536 794.037 202.832C794.541 203.12 794.937 203.516 795.225 204.02C795.521 204.524 795.669 205.104 795.669 205.76C795.669 206.416 795.517 207 795.213 207.512C794.909 208.016 794.505 208.416 794.001 208.712C793.505 209 792.953 209.144 792.345 209.144ZM792.345 208.064C792.745 208.064 793.105 207.964 793.425 207.764C793.753 207.564 794.009 207.288 794.193 206.936C794.385 206.584 794.481 206.192 794.481 205.76C794.481 205.32 794.385 204.932 794.193 204.596C794.009 204.252 793.753 203.98 793.425 203.78C793.105 203.572 792.745 203.468 792.345 203.468C791.937 203.468 791.569 203.572 791.241 203.78C790.921 203.98 790.665 204.252 790.473 204.596C790.281 204.932 790.185 205.32 790.185 205.76C790.185 206.192 790.281 206.584 790.473 206.936C790.665 207.288 790.921 207.564 791.241 207.764C791.569 207.964 791.937 208.064 792.345 208.064ZM798.747 209L796.215 202.532H797.463L799.491 208.004H799.059L801.099 202.532H802.347L799.803 209H798.747Z" fill="#475569"/>
<path d="M857.308 209V200.06H860.236C861.14 200.06 861.928 200.244 862.6 200.612C863.272 200.98 863.792 201.5 864.16 202.172C864.528 202.836 864.712 203.62 864.712 204.524C864.712 205.42 864.528 206.204 864.16 206.876C863.792 207.548 863.272 208.072 862.6 208.448C861.928 208.816 861.14 209 860.236 209H857.308ZM858.484 207.92H860.248C860.912 207.92 861.484 207.78 861.964 207.5C862.452 207.22 862.828 206.828 863.092 206.324C863.356 205.812 863.488 205.212 863.488 204.524C863.488 203.828 863.352 203.228 863.08 202.724C862.816 202.22 862.44 201.832 861.952 201.56C861.472 201.28 860.904 201.14 860.248 201.14H858.484V207.92ZM868.986 209.144C868.362 209.144 867.806 208.996 867.318 208.7C866.83 208.404 866.446 208 866.166 207.488C865.886 206.968 865.746 206.388 865.746 205.748C865.746 205.1 865.882 204.524 866.154 204.02C866.434 203.516 866.81 203.12 867.282 202.832C867.762 202.536 868.298 202.388 868.89 202.388C869.37 202.388 869.794 202.476 870.162 202.652C870.538 202.82 870.854 203.052 871.11 203.348C871.374 203.636 871.574 203.968 871.71 204.344C871.854 204.712 871.926 205.096 871.926 205.496C871.926 205.584 871.918 205.684 871.902 205.796C871.894 205.9 871.882 206 871.866 206.096H866.562V205.136H871.218L870.69 205.568C870.762 205.152 870.722 204.78 870.57 204.452C870.418 204.124 870.194 203.864 869.898 203.672C869.602 203.48 869.266 203.384 868.89 203.384C868.514 203.384 868.17 203.48 867.858 203.672C867.546 203.864 867.302 204.14 867.126 204.5C866.958 204.852 866.89 205.272 866.922 205.76C866.89 206.232 866.962 206.648 867.138 207.008C867.322 207.36 867.578 207.636 867.906 207.836C868.242 208.028 868.606 208.124 868.998 208.124C869.43 208.124 869.794 208.024 870.09 207.824C870.386 207.624 870.626 207.368 870.81 207.056L871.746 207.536C871.618 207.832 871.418 208.104 871.146 208.352C870.882 208.592 870.566 208.784 870.198 208.928C869.838 209.072 869.434 209.144 868.986 209.144ZM876.322 209.144C875.69 209.144 875.126 208.996 874.63 208.7C874.142 208.404 873.758 208 873.478 207.488C873.198 206.976 873.058 206.4 873.058 205.76C873.058 205.112 873.198 204.536 873.478 204.032C873.758 203.528 874.142 203.128 874.63 202.832C875.126 202.536 875.69 202.388 876.322 202.388C876.746 202.388 877.142 202.464 877.51 202.616C877.878 202.768 878.202 202.972 878.482 203.228C878.762 203.484 878.966 203.784 879.094 204.128L878.098 204.608C877.946 204.272 877.714 204 877.402 203.792C877.09 203.576 876.73 203.468 876.322 203.468C875.93 203.468 875.574 203.568 875.254 203.768C874.942 203.968 874.694 204.24 874.51 204.584C874.326 204.928 874.234 205.324 874.234 205.772C874.234 206.204 874.326 206.596 874.51 206.948C874.694 207.292 874.942 207.564 875.254 207.764C875.574 207.964 875.93 208.064 876.322 208.064C876.73 208.064 877.09 207.96 877.402 207.752C877.714 207.536 877.946 207.252 878.098 206.9L879.094 207.404C878.966 207.74 878.762 208.04 878.482 208.304C878.202 208.56 877.878 208.764 877.51 208.916C877.142 209.068 876.746 209.144 876.322 209.144Z" fill="#475569"/>
</svg>
