<svg width="16" height="20" viewBox="0 0 16 20" fill="none" xmlns="http://www.w3.org/2000/svg">
<path d="M12.0626 18.125C12.0626 18.3736 11.9638 18.6121 11.788 18.7879C11.6122 18.9637 11.3737 19.0625 11.1251 19.0625H4.87511C4.62647 19.0625 4.38801 18.9637 4.21219 18.7879C4.03638 18.6121 3.93761 18.3736 3.93761 18.125C3.93761 17.8764 4.03638 17.6379 4.21219 17.4621C4.38801 17.2863 4.62647 17.1875 4.87511 17.1875H11.1251C11.3737 17.1875 11.6122 17.2863 11.788 17.4621C11.9638 17.6379 12.0626 17.8764 12.0626 18.125ZM15.1876 8.125C15.1905 9.21421 14.9444 10.2897 14.4682 11.2693C13.992 12.2489 13.2983 13.1067 12.4399 13.7773C12.3237 13.8659 12.2293 13.9799 12.1639 14.1105C12.0985 14.2412 12.0638 14.3851 12.0626 14.5312V14.6875C12.0626 15.1019 11.898 15.4993 11.605 15.7924C11.3119 16.0854 10.9145 16.25 10.5001 16.25H5.50011C5.0857 16.25 4.68828 16.0854 4.39525 15.7924C4.10223 15.4993 3.93761 15.1019 3.93761 14.6875V14.5312C3.93744 14.3876 3.90423 14.2458 3.84057 14.117C3.7769 13.9882 3.68447 13.8757 3.57042 13.7883C2.71445 13.1216 2.02135 12.2689 1.54357 11.2948C1.06578 10.3206 0.815819 9.2506 0.812605 8.16562C0.791512 4.27266 3.93761 1.03125 7.82745 0.937499C8.78575 0.914472 9.73899 1.08337 10.631 1.43425C11.5231 1.78513 12.3359 2.31091 13.0218 2.98064C13.7076 3.65037 14.2525 4.45051 14.6245 5.33399C14.9964 6.21746 15.1879 7.16642 15.1876 8.125ZM13.3126 8.125C13.3128 7.41637 13.1712 6.71486 12.8962 6.06177C12.6212 5.40868 12.2184 4.81721 11.7113 4.32217C11.2043 3.82714 10.6033 3.43855 9.94381 3.17928C9.28432 2.92001 8.57962 2.7953 7.8712 2.8125C4.99698 2.88125 2.67198 5.27734 2.68761 8.15469C2.69028 8.95659 2.87524 9.74738 3.22849 10.4673C3.58175 11.1872 4.09405 11.8174 4.72667 12.3102C5.04537 12.5561 5.30733 12.8679 5.49473 13.2242C5.68212 13.5805 5.79054 13.973 5.81261 14.375H10.1954C10.2179 13.9722 10.3265 13.579 10.5138 13.2217C10.7011 12.8644 10.9629 12.5515 11.2814 12.3039C11.9158 11.808 12.4286 11.1738 12.7806 10.4495C13.1326 9.7253 13.3146 8.93024 13.3126 8.125ZM11.7446 7.70937C11.6617 7.00789 11.3843 6.34355 10.9438 5.79136C10.5033 5.23917 9.91719 4.82111 9.25167 4.58437C9.01905 4.50837 8.76593 4.52634 8.54638 4.63444C8.32683 4.74254 8.15825 4.9322 8.07665 5.16292C7.99505 5.39364 8.00691 5.64712 8.10968 5.86921C8.21245 6.09131 8.39799 6.26442 8.62667 6.35156C8.96111 6.46879 9.25608 6.67725 9.47822 6.95338C9.70037 7.2295 9.84082 7.56228 9.8837 7.91406C9.91105 8.16125 10.0355 8.38745 10.2296 8.5429C10.3257 8.61987 10.4361 8.67716 10.5543 8.71149C10.6726 8.74581 10.7965 8.75651 10.9189 8.74297C11.0413 8.72943 11.1598 8.69191 11.2677 8.63256C11.3756 8.57321 11.4707 8.49319 11.5477 8.39706C11.6247 8.30094 11.682 8.1906 11.7163 8.07233C11.7506 7.95407 11.7613 7.83021 11.7478 7.70781L11.7446 7.70937Z" fill="#4F46E5"/>
</svg>
