<svg width="24" height="24" viewBox="0 0 24 24" fill="none" xmlns="http://www.w3.org/2000/svg">
<path d="M14.8029 0.436813C14.9727 0.405075 15.1467 0.414955 15.3107 0.464157L15.4708 0.525681C15.6264 0.601049 15.7607 0.712897 15.8634 0.849899L15.9552 0.995407C16.0355 1.14836 16.078 1.31746 16.0792 1.48857L16.0665 1.65947L15.0734 8.27959L15.0685 8.3167L15.1027 8.33037L19.9005 10.2493C20.0226 10.2982 20.1345 10.3687 20.2306 10.4573L20.3214 10.5511C20.4065 10.6511 20.472 10.7659 20.5157 10.889L20.5519 11.0149C20.5809 11.1435 20.5861 11.2758 20.5675 11.4056L20.5411 11.5345C20.5067 11.6616 20.4493 11.7811 20.3722 11.887L20.2882 11.9886L9.78821 23.2386C9.63109 23.4072 9.42391 23.5214 9.19739 23.5638C9.02762 23.5955 8.85343 23.5856 8.68958 23.5364L8.52942 23.4739C8.32208 23.3735 8.15224 23.2091 8.04504 23.0052C7.96458 22.852 7.9222 22.6824 7.92102 22.511L7.93372 22.3401L8.92688 15.7171L8.93176 15.681L8.89758 15.6673L4.09973 13.7483C3.97782 13.6995 3.86572 13.6288 3.76965 13.5403L3.67883 13.4456C3.59373 13.3455 3.5282 13.2308 3.4845 13.1077L3.44739 12.9817C3.41882 12.8535 3.41396 12.7214 3.43274 12.5921L3.46008 12.4642C3.49462 12.3373 3.55207 12.2182 3.62903 12.1126L3.71204 12.011L14.212 0.761032C14.3298 0.63471 14.4758 0.539499 14.6368 0.481735L14.8029 0.436813ZM13.3156 4.88506L6.41028 12.2835L6.3634 12.3343L6.42688 12.3597L10.5255 13.9993C10.751 14.0895 10.9398 14.2535 11.0607 14.4642C11.1662 14.6484 11.2149 14.8591 11.2013 15.0696L11.1915 15.1595L10.6036 19.0755L10.5812 19.2249L10.6847 19.1145L17.59 11.7161L17.6368 11.6663L17.5734 11.6409L13.4747 10.0013C13.2774 9.92231 13.1085 9.78634 12.9884 9.61259L12.9396 9.53642C12.8338 9.35198 12.7853 9.14083 12.799 8.92998L12.8087 8.84013L13.3966 4.92412L13.4191 4.7747L13.3156 4.88506Z" fill="#475569" stroke="#475569" stroke-width="0.09375"/>
</svg>
