<svg width="24" height="16" viewBox="0 0 24 16" fill="none" xmlns="http://www.w3.org/2000/svg">
<path d="M11.7357 10.7131C12.6779 9.92114 13.3538 8.85852 13.6716 7.66937C13.9894 6.48023 13.9338 5.22211 13.5124 4.06563C13.0909 2.90916 12.3239 1.9103 11.3155 1.20451C10.3071 0.498714 9.10597 0.120148 7.87508 0.120148C6.6442 0.120148 5.4431 0.498714 4.43467 1.20451C3.42624 1.9103 2.65928 2.90916 2.2378 4.06563C1.81632 5.22211 1.76072 6.48023 2.07854 7.66937C2.39636 8.85852 3.07222 9.92114 4.01446 10.7131C2.54313 11.3784 1.26807 12.4116 0.312273 13.7131C0.135738 13.9537 0.0619957 14.2545 0.107268 14.5495C0.152541 14.8444 0.313119 15.1093 0.553679 15.2858C0.794239 15.4623 1.09507 15.5361 1.39 15.4908C1.68493 15.4455 1.9498 15.2849 2.12634 15.0444C2.78797 14.1408 3.6533 13.4058 4.65212 12.8992C5.65095 12.3926 6.75513 12.1286 7.87508 12.1286C8.99504 12.1286 10.0992 12.3926 11.098 12.8992C12.0969 13.4058 12.9622 14.1408 13.6238 15.0444C13.8004 15.2851 14.0653 15.4458 14.3603 15.4911C14.6553 15.5365 14.9563 15.4628 15.197 15.2863C15.4376 15.1097 15.5983 14.8448 15.6437 14.5498C15.6891 14.2548 15.6154 13.9538 15.4388 13.7131C14.4825 12.4118 13.2072 11.3787 11.7357 10.7131ZM4.12508 6.12501C4.12508 5.38333 4.34502 4.65831 4.75707 4.04163C5.16913 3.42494 5.7548 2.94429 6.44002 2.66047C7.12525 2.37664 7.87924 2.30237 8.60667 2.44707C9.3341 2.59176 10.0023 2.94892 10.5267 3.47336C11.0512 3.99781 11.4083 4.666 11.553 5.39343C11.6977 6.12085 11.6235 6.87485 11.3396 7.56008C11.0558 8.2453 10.5752 8.83097 9.95847 9.24303C9.34179 9.65508 8.61677 9.87501 7.87508 9.87501C6.88052 9.87501 5.9267 9.47993 5.22343 8.77666C4.52017 8.0734 4.12508 7.11958 4.12508 6.12501ZM23.447 15.2816C23.3279 15.3691 23.1927 15.4323 23.0492 15.4675C22.9056 15.5028 22.7566 15.5094 22.6105 15.4871C22.4644 15.4647 22.3241 15.4137 22.1977 15.3371C22.0713 15.2605 21.9613 15.1598 21.8738 15.0406C21.2106 14.1387 20.3449 13.4051 19.3464 12.8987C18.348 12.3923 17.2446 12.1273 16.1251 12.125C15.8267 12.125 15.5406 12.0065 15.3296 11.7955C15.1186 11.5845 15.0001 11.2984 15.0001 11C15.0001 10.7016 15.1186 10.4155 15.3296 10.2045C15.5406 9.99354 15.8267 9.87501 16.1251 9.87501C16.6581 9.87406 17.1848 9.7595 17.67 9.53896C18.1552 9.31843 18.5879 8.99698 18.9391 8.59606C19.2903 8.19514 19.5521 7.72395 19.7068 7.21391C19.8616 6.70387 19.9059 6.1667 19.8367 5.6382C19.7675 5.10971 19.5864 4.60203 19.3056 4.14903C19.0247 3.69602 18.6505 3.30809 18.2079 3.0111C17.7653 2.71411 17.2645 2.51488 16.7388 2.4267C16.2132 2.33852 15.6747 2.3634 15.1595 2.4997C15.0155 2.54134 14.8648 2.55381 14.716 2.53638C14.5672 2.51896 14.4233 2.47199 14.2929 2.39823C14.1625 2.32446 14.0482 2.2254 13.9566 2.10685C13.865 1.98829 13.798 1.85264 13.7595 1.70784C13.7211 1.56304 13.7119 1.41202 13.7326 1.26364C13.7533 1.11526 13.8034 0.972502 13.88 0.843752C13.9566 0.715002 14.0582 0.602851 14.1787 0.51388C14.2993 0.424909 14.4364 0.36091 14.582 0.32564C15.8996 -0.0234859 17.2968 0.0864441 18.5436 0.637331C19.7904 1.18822 20.8125 2.14723 21.4416 3.35647C22.0706 4.56572 22.2692 5.95312 22.0046 7.29028C21.74 8.62743 21.0279 9.83463 19.9857 10.7131C21.457 11.3784 22.7321 12.4116 23.6879 13.7131C23.8632 13.9533 23.9362 14.2532 23.8911 14.5471C23.8459 14.841 23.6862 15.1051 23.447 15.2816Z" fill="#94A3B8"/>
</svg>
